<svg width="231" height="201" viewBox="0 0 231 201" fill="none" xmlns="http://www.w3.org/2000/svg">
<path d="M212.984 79.7953C213.917 66.8665 211.035 53.3683 207.173 41.3543C201.46 23.467 190.304 5.13694 171.556 0.903559C160.746 -1.52942 149.744 1.07874 140.473 7.19038C131.56 13.0685 124.616 20.6642 113.652 22.1337C102.566 23.6227 91.1911 23.0242 80.0495 23.0242C51.4003 23.0242 28.1517 54.4242 33.9626 87.1332C39.7736 119.842 67.1776 142.522 90.4263 142.522C111.32 142.522 128.51 129.448 148.354 125.934C158.195 124.192 168.077 126.255 177.815 123.647C189.134 120.611 199.776 113.375 206.049 102.899C210.321 95.7556 212.401 87.8874 212.984 79.7953Z" fill="#FF9B5A"/>
<path opacity="0.7" d="M212.984 79.7953C213.917 66.8665 211.035 53.3683 207.173 41.3543C201.46 23.467 190.304 5.13694 171.556 0.903559C160.746 -1.52942 149.744 1.07874 140.473 7.19038C131.56 13.0685 124.616 20.6642 113.652 22.1337C102.566 23.6227 91.1911 23.0242 80.0495 23.0242C51.4003 23.0242 28.1517 54.4242 33.9626 87.1332C39.7736 119.842 67.1776 142.522 90.4263 142.522C111.32 142.522 128.51 129.448 148.354 125.934C158.195 124.192 168.077 126.255 177.815 123.647C189.134 120.611 199.776 113.375 206.049 102.899C210.321 95.7556 212.401 87.8874 212.984 79.7953Z" fill="white"/>
<path d="M189.396 93.2414C189.359 93.2414 189.815 90.8787 189.864 90.7076C190.387 89.0227 192.359 86.0836 194.263 86.0899C194.58 86.0993 194.891 86.178 195.176 86.3209C195.462 86.4637 195.715 86.6676 195.92 86.9191C196.125 87.1706 196.277 87.4642 196.366 87.7808C196.454 88.0974 196.478 88.4299 196.435 88.7567C196.295 90.1565 195.091 91.3411 194.001 92.0315C192.724 92.8613 189.396 93.2414 189.396 93.2414Z" fill="#FF9B5A"/>
<path d="M185.702 77.3359C187.497 78.0073 188.392 81.4659 188.331 83.2395C188.331 83.3915 187.99 85.7732 187.96 85.7732H187.923C188.063 86.318 188.215 86.9071 188.367 87.5468C188.635 88.7377 188.927 90.0805 189.152 91.5754C189.413 93.1789 189.584 94.797 189.663 96.4212C189.76 98.2389 189.701 100.062 189.487 101.869C189.483 101.89 189.483 101.911 189.487 101.932C189.724 101.406 190.424 99.9494 190.491 99.8417C191.428 98.3595 194.068 96.0411 195.912 96.5986C196.214 96.6955 196.493 96.8575 196.731 97.074C196.969 97.2905 197.161 97.5566 197.294 97.8552C197.427 98.1538 197.499 98.4781 197.504 98.8073C197.509 99.1364 197.447 99.4629 197.323 99.7657C196.837 101.071 195.376 101.888 194.153 102.249C192.772 102.661 189.694 102.173 189.45 102.135C189.191 103.967 188.813 105.778 188.319 107.557C188.035 108.596 187.726 109.635 187.394 110.673C187.607 110.224 187.807 109.825 187.838 109.768C188.775 108.285 191.415 105.967 193.259 106.518C193.562 106.614 193.841 106.776 194.08 106.992C194.319 107.208 194.511 107.475 194.644 107.773C194.777 108.072 194.849 108.397 194.853 108.726C194.858 109.056 194.795 109.383 194.67 109.685C194.184 110.996 192.724 111.807 191.501 112.175C190.278 112.542 187.625 112.175 186.931 112.08C186.804 112.472 186.676 112.871 186.542 113.264C185.933 115.164 185.276 117.065 184.717 118.927C184.516 119.561 184.339 120.245 184.163 120.903C184.358 120.504 184.522 120.169 184.552 120.124C185.483 118.642 188.13 116.324 189.967 116.875C190.269 116.972 190.549 117.134 190.787 117.35C191.025 117.567 191.218 117.833 191.351 118.131C191.485 118.429 191.557 118.754 191.562 119.083C191.568 119.412 191.508 119.739 191.385 120.042C190.898 121.347 189.432 122.164 188.209 122.525C186.986 122.886 184.595 122.569 183.767 122.449C183.603 123.133 183.445 123.811 183.317 124.476C183.238 124.932 183.135 125.369 183.08 125.831C183.025 126.294 182.958 126.744 182.897 127.187C182.812 128.055 182.715 128.954 182.654 129.803C182.605 130.392 182.569 130.956 182.532 131.52C182.721 130.886 183.141 129.581 183.171 129.474C183.847 128.081 184.852 126.891 186.092 126.015C186.159 125.856 186.243 125.706 186.341 125.565C186.514 125.289 186.74 125.053 187.005 124.874C187.271 124.695 187.57 124.575 187.882 124.524C188.195 124.472 188.515 124.49 188.821 124.576C189.126 124.661 189.411 124.813 189.657 125.021C191.105 126.288 190.74 129.885 190.077 131.52C190.04 131.615 189.499 132.609 189.152 133.23C189.414 132.901 189.657 132.597 189.931 132.229C190.46 131.558 191.008 130.899 191.592 130.189L192.486 129.182C192.778 128.834 193.131 128.511 193.454 128.175C194.214 127.409 195.023 126.668 195.857 125.939C195.285 125.458 193.295 123.703 192.724 122.512C192.152 121.321 191.744 119.656 192.34 118.401C192.471 118.1 192.661 117.831 192.898 117.611C193.135 117.391 193.414 117.226 193.716 117.126C194.019 117.027 194.338 116.994 194.654 117.032C194.969 117.069 195.273 117.175 195.547 117.343C197.159 118.395 197.323 121.974 196.903 123.678C196.903 123.785 196.441 124.983 196.192 125.635C196.697 125.204 197.195 124.767 197.719 124.368C199.228 123.152 200.791 121.974 202.343 120.789L203.76 119.694C203.56 119.522 201.15 117.496 200.505 116.165C199.94 114.981 199.526 113.309 200.122 112.048C200.253 111.747 200.444 111.479 200.681 111.26C200.918 111.041 201.197 110.876 201.499 110.776C201.801 110.676 202.12 110.644 202.436 110.681C202.751 110.718 203.055 110.823 203.328 110.99C204.941 112.048 205.105 115.627 204.685 117.324C204.655 117.458 204.028 119.18 203.846 119.611C204.886 118.8 205.914 117.99 206.888 117.147C208.221 116.014 209.481 114.791 210.66 113.486C210.569 113.41 208.044 111.307 207.387 109.939C206.815 108.754 206.407 107.082 207.003 105.828C207.133 105.527 207.322 105.257 207.559 105.038C207.796 104.818 208.074 104.653 208.376 104.553C208.678 104.453 208.997 104.421 209.312 104.458C209.627 104.496 209.931 104.602 210.204 104.77C211.822 105.821 211.986 109.4 211.567 111.104C211.536 111.212 211.062 112.529 210.818 113.15L210.916 113.207C212.07 111.862 213.106 110.412 214.012 108.874C214.517 108.038 214.962 107.209 215.375 106.385C214.864 106.043 212.558 104.485 211.834 103.294C211.11 102.103 210.563 100.57 211.019 99.2527C211.117 98.9426 211.277 98.6573 211.487 98.4149C211.697 98.1725 211.953 97.9784 212.24 97.8449C212.526 97.7114 212.836 97.6414 213.149 97.6395C213.463 97.6376 213.773 97.7038 214.061 97.8338C215.783 98.6952 216.318 102.236 216.081 103.991C216.081 104.086 215.838 105.042 215.661 105.739C215.838 105.365 216.032 104.985 216.197 104.624C216.805 103.269 217.322 101.989 217.748 100.824C217.992 100.19 218.192 99.5567 218.357 99.0309C218.022 98.3975 216.72 95.9588 216.592 94.5969C216.464 93.235 216.671 91.5628 217.663 90.6126C217.889 90.3816 218.16 90.2028 218.457 90.0878C218.754 89.9728 219.07 89.9241 219.387 89.945C219.703 89.966 220.011 90.0559 220.292 90.2092C220.573 90.3624 220.819 90.5754 221.015 90.8343C222.159 92.4242 221.07 95.8194 220.085 97.27C219.999 97.3904 218.448 99.1703 218.43 99.1703V99.1323C218.259 99.6707 218.077 100.247 217.858 100.868C217.456 102.014 216.982 103.313 216.385 104.669C215.75 106.154 215.033 107.601 214.238 109.001C213.352 110.57 212.334 112.054 211.195 113.435L211.153 113.486C211.627 113.176 212.978 112.371 213.094 112.32C214.663 111.624 218.083 111.225 219.336 112.726C219.537 112.981 219.684 113.276 219.768 113.594C219.853 113.912 219.872 114.244 219.825 114.57C219.778 114.896 219.666 115.208 219.495 115.486C219.325 115.764 219.101 116.002 218.837 116.184C217.736 116.995 216.081 116.818 214.87 116.431C213.501 115.982 211.22 113.809 211.007 113.638C209.82 115.016 208.546 116.309 207.192 117.508C206.401 118.218 205.592 118.902 204.758 119.573C205.178 119.326 205.555 119.104 205.61 119.079C207.174 118.382 210.593 117.983 211.846 119.484C212.048 119.739 212.196 120.035 212.281 120.353C212.366 120.67 212.385 121.003 212.338 121.33C212.291 121.656 212.178 121.968 212.008 122.246C211.837 122.524 211.612 122.762 211.348 122.943C210.252 123.754 208.597 123.576 207.387 123.19C206.176 122.804 204.15 120.979 203.627 120.492L202.671 121.258C201.138 122.481 199.629 123.69 198.139 124.926C197.621 125.363 197.129 125.812 196.63 126.256C197.007 126.034 197.317 125.85 197.372 125.831C198.936 125.128 202.355 124.736 203.608 126.231C203.811 126.485 203.96 126.78 204.045 127.098C204.13 127.416 204.15 127.75 204.103 128.076C204.056 128.403 203.943 128.715 203.772 128.993C203.6 129.271 203.375 129.508 203.109 129.689C202.008 130.5 200.359 130.323 199.149 129.942C197.938 129.562 196.106 127.903 195.498 127.326C195.005 127.801 194.506 128.27 194.05 128.758C193.74 129.094 193.441 129.391 193.137 129.752C192.833 130.113 192.529 130.437 192.261 130.779C191.732 131.45 191.178 132.147 190.673 132.818C190.32 133.281 189.992 133.73 189.663 134.18C190.168 133.743 191.19 132.913 191.282 132.844C192.724 131.906 196.046 130.975 197.506 132.254C197.742 132.475 197.93 132.746 198.059 133.047C198.188 133.349 198.255 133.676 198.255 134.006C198.255 134.336 198.188 134.663 198.059 134.965C197.93 135.266 197.742 135.536 197.506 135.757C196.538 136.727 194.883 136.834 193.63 136.632C192.243 136.403 189.736 134.731 189.426 134.491C188.878 135.238 188.355 135.973 187.868 136.676C186.183 139.102 184.869 141.186 183.968 142.662L183.877 142.807L182.709 142.218C182.77 142.123 182.83 142.035 182.891 141.933C183.834 140.464 185.209 138.386 186.962 135.973C187.515 135.213 188.118 134.408 188.744 133.585C188.092 132.846 187.483 132.068 186.919 131.254C185.575 131.798 182.782 131.824 182.423 131.824C182.368 132.761 182.319 133.673 182.283 134.535C182.161 137.531 182.173 140.027 182.204 141.769V141.978L180.92 141.344C180.92 139.615 180.987 137.265 181.157 134.497C181.212 133.54 181.291 132.521 181.382 131.482C181.023 131.387 178.121 130.608 177.026 129.695C176.034 128.872 174.988 127.529 175.024 126.129C175.021 125.799 175.085 125.472 175.211 125.169C175.338 124.866 175.524 124.595 175.759 124.372C175.993 124.15 176.27 123.981 176.571 123.878C176.872 123.775 177.191 123.739 177.507 123.773C179.399 124.026 180.981 127.206 181.297 128.948C181.297 129.049 181.395 130.215 181.431 130.912C181.474 130.481 181.504 130.069 181.547 129.645C181.632 128.777 181.741 127.909 181.857 126.978C181.924 126.535 181.997 126.085 182.064 125.629C182.131 125.173 182.246 124.704 182.338 124.235C182.569 123.158 182.849 122.075 183.159 120.992C182.429 120.91 179.843 120.593 178.73 119.934C177.616 119.275 176.399 118.11 176.235 116.723C176.183 116.397 176.198 116.063 176.279 115.743C176.36 115.424 176.505 115.125 176.704 114.868C176.904 114.611 177.153 114.4 177.436 114.251C177.719 114.101 178.029 114.015 178.346 113.999C180.251 113.948 182.283 116.843 182.843 118.515C182.879 118.623 183.153 119.871 183.287 120.561C183.482 119.928 183.664 119.256 183.895 118.61C184.504 116.71 185.191 114.848 185.86 112.966C186.067 112.39 186.262 111.814 186.469 111.244C186.207 111.244 183.123 110.908 181.881 110.167C180.78 109.533 179.551 108.342 179.381 106.955C179.331 106.629 179.347 106.296 179.429 105.977C179.51 105.659 179.655 105.361 179.854 105.104C180.053 104.848 180.302 104.637 180.584 104.487C180.866 104.337 181.176 104.249 181.492 104.231C183.402 104.181 185.435 107.076 185.994 108.748C186.037 108.874 186.426 110.648 186.505 111.136C186.943 109.869 187.375 108.602 187.722 107.335C188.237 105.625 188.643 103.881 188.939 102.116C188.817 102.116 185.593 101.799 184.327 101.039C183.22 100.405 181.991 99.2146 181.827 97.8274C181.777 97.5016 181.793 97.1685 181.875 96.8497C181.956 96.5309 182.101 96.2335 182.3 95.9767C182.499 95.7199 182.748 95.5096 183.03 95.3592C183.312 95.2088 183.621 95.1217 183.938 95.1037C185.842 95.0593 187.874 97.9478 188.434 99.62C188.471 99.7341 188.769 101.102 188.897 101.755H189.006C189.257 99.9705 189.355 98.1665 189.298 96.3642C189.298 95.3697 189.207 94.4259 189.116 93.5011C188.507 93.5011 185.745 93.5011 184.528 92.9563C183.311 92.4116 182.015 91.4108 181.699 90.0489C181.614 89.7299 181.596 89.3959 181.644 89.0688C181.692 88.7417 181.806 88.4289 181.978 88.1508C182.151 87.8728 182.377 87.6358 182.644 87.4553C182.91 87.2748 183.21 87.1549 183.524 87.1034C185.416 86.8374 187.741 89.4788 188.477 91.0814C188.513 91.17 188.83 92.1012 189.043 92.779C189 92.3672 188.957 91.9365 188.903 91.5438C188.714 90.0552 188.446 88.6997 188.203 87.5088C188.057 86.831 187.917 86.2419 187.777 85.6529C187.169 85.3361 184.784 84.0313 183.962 82.9734C183.141 81.9156 182.423 80.4017 182.745 79.0398C182.815 78.7152 182.95 78.4096 183.141 78.1433C183.332 77.877 183.576 77.656 183.855 77.4949C184.135 77.3339 184.444 77.2364 184.762 77.209C185.081 77.1816 185.401 77.2248 185.702 77.3359Z" fill="#FF9B5A"/>
<path d="M220.188 107.95C218.698 107.886 215.716 106.296 215.716 106.29C215.716 106.284 217.316 104.567 217.432 104.472C218.765 103.364 221.965 102.046 223.553 103.142C223.812 103.333 224.029 103.578 224.192 103.861C224.354 104.145 224.457 104.461 224.494 104.789C224.531 105.117 224.502 105.449 224.408 105.765C224.314 106.08 224.157 106.371 223.948 106.62C223.097 107.684 221.46 108 220.188 107.95Z" fill="#FF9B5A"/>
<g opacity="0.5">
<path d="M189.396 93.2414C189.359 93.2414 189.815 90.8787 189.864 90.7077C190.387 89.0228 192.359 86.0836 194.263 86.09C194.58 86.0994 194.891 86.1781 195.176 86.321C195.462 86.4638 195.715 86.6676 195.92 86.9192C196.125 87.1707 196.277 87.4643 196.366 87.7809C196.454 88.0975 196.478 88.43 196.435 88.7567C196.295 90.1566 195.091 91.3411 194.001 92.0316C192.724 92.8614 189.396 93.2414 189.396 93.2414Z" fill="white"/>
<path d="M185.702 77.3359C187.497 78.0073 188.392 81.4659 188.331 83.2395C188.331 83.3915 187.99 85.7732 187.96 85.7732H187.923C188.063 86.318 188.215 86.9071 188.367 87.5468C188.635 88.7377 188.927 90.0805 189.152 91.5754C189.413 93.1789 189.584 94.797 189.663 96.4212C189.76 98.2389 189.701 100.062 189.487 101.869C189.483 101.89 189.483 101.911 189.487 101.932C189.724 101.406 190.424 99.9494 190.491 99.8417C191.428 98.3595 194.068 96.0411 195.912 96.5986C196.214 96.6955 196.493 96.8575 196.731 97.074C196.969 97.2905 197.161 97.5566 197.294 97.8552C197.427 98.1538 197.499 98.4781 197.504 98.8073C197.509 99.1364 197.447 99.4629 197.323 99.7657C196.837 101.071 195.376 101.888 194.153 102.249C192.772 102.661 189.694 102.173 189.45 102.135C189.191 103.967 188.813 105.778 188.319 107.557C188.035 108.596 187.726 109.635 187.394 110.673C187.607 110.224 187.807 109.825 187.838 109.768C188.775 108.285 191.415 105.967 193.259 106.518C193.562 106.614 193.841 106.776 194.08 106.992C194.319 107.208 194.511 107.475 194.644 107.773C194.777 108.072 194.849 108.397 194.853 108.726C194.858 109.056 194.795 109.383 194.67 109.685C194.184 110.996 192.724 111.807 191.501 112.175C190.278 112.542 187.625 112.175 186.931 112.08C186.804 112.472 186.676 112.871 186.542 113.264C185.933 115.164 185.276 117.065 184.717 118.927C184.516 119.561 184.339 120.245 184.163 120.903C184.358 120.504 184.522 120.169 184.552 120.124C185.483 118.642 188.13 116.324 189.967 116.875C190.269 116.972 190.549 117.134 190.787 117.35C191.025 117.567 191.218 117.833 191.351 118.131C191.485 118.429 191.557 118.754 191.562 119.083C191.568 119.412 191.508 119.739 191.385 120.042C190.898 121.347 189.432 122.164 188.209 122.525C186.986 122.886 184.595 122.569 183.767 122.449C183.603 123.133 183.445 123.811 183.317 124.476C183.238 124.932 183.135 125.369 183.08 125.831C183.025 126.294 182.958 126.744 182.897 127.187C182.812 128.055 182.715 128.954 182.654 129.803C182.605 130.392 182.569 130.956 182.532 131.52C182.721 130.886 183.141 129.581 183.171 129.474C183.847 128.081 184.852 126.891 186.092 126.015C186.159 125.856 186.243 125.706 186.341 125.565C186.514 125.289 186.74 125.053 187.005 124.874C187.271 124.695 187.57 124.575 187.882 124.524C188.195 124.472 188.515 124.49 188.821 124.576C189.126 124.661 189.411 124.813 189.657 125.021C191.105 126.288 190.74 129.885 190.077 131.52C190.04 131.615 189.499 132.609 189.152 133.23C189.414 132.901 189.657 132.597 189.931 132.229C190.46 131.558 191.008 130.899 191.592 130.189L192.486 129.182C192.778 128.834 193.131 128.511 193.454 128.175C194.214 127.409 195.023 126.668 195.857 125.939C195.285 125.458 193.295 123.703 192.724 122.512C192.152 121.321 191.744 119.656 192.34 118.401C192.471 118.1 192.661 117.831 192.898 117.611C193.135 117.391 193.414 117.226 193.716 117.126C194.019 117.027 194.338 116.994 194.654 117.032C194.969 117.069 195.273 117.175 195.547 117.343C197.159 118.395 197.323 121.974 196.903 123.678C196.903 123.785 196.441 124.983 196.192 125.635C196.697 125.204 197.195 124.767 197.719 124.368C199.228 123.152 200.791 121.974 202.343 120.789L203.76 119.694C203.56 119.522 201.15 117.496 200.505 116.165C199.94 114.981 199.526 113.309 200.122 112.048C200.253 111.747 200.444 111.479 200.681 111.26C200.918 111.041 201.197 110.876 201.499 110.776C201.801 110.676 202.12 110.644 202.436 110.681C202.751 110.718 203.055 110.823 203.328 110.99C204.941 112.048 205.105 115.627 204.685 117.324C204.655 117.458 204.028 119.18 203.846 119.611C204.886 118.8 205.914 117.99 206.888 117.147C208.221 116.014 209.481 114.791 210.66 113.486C210.569 113.41 208.044 111.307 207.387 109.939C206.815 108.754 206.407 107.082 207.003 105.828C207.133 105.527 207.322 105.257 207.559 105.038C207.796 104.818 208.074 104.653 208.376 104.553C208.678 104.453 208.997 104.421 209.312 104.458C209.627 104.496 209.931 104.602 210.204 104.77C211.822 105.821 211.986 109.4 211.567 111.104C211.536 111.212 211.062 112.529 210.818 113.15L210.916 113.207C212.07 111.862 213.106 110.412 214.012 108.874C214.517 108.038 214.962 107.209 215.375 106.385C214.864 106.043 212.558 104.485 211.834 103.294C211.11 102.103 210.563 100.57 211.019 99.2527C211.117 98.9426 211.277 98.6573 211.487 98.4149C211.697 98.1725 211.953 97.9784 212.24 97.8449C212.526 97.7114 212.836 97.6414 213.149 97.6395C213.463 97.6376 213.773 97.7038 214.061 97.8338C215.783 98.6952 216.318 102.236 216.081 103.991C216.081 104.086 215.838 105.042 215.661 105.739C215.838 105.365 216.032 104.985 216.197 104.624C216.805 103.269 217.322 101.989 217.748 100.824C217.992 100.19 218.192 99.5567 218.357 99.0309C218.022 98.3975 216.72 95.9588 216.592 94.5969C216.464 93.235 216.671 91.5628 217.663 90.6126C217.889 90.3816 218.16 90.2028 218.457 90.0878C218.754 89.9728 219.07 89.9241 219.387 89.945C219.703 89.966 220.011 90.0559 220.292 90.2092C220.573 90.3624 220.819 90.5754 221.015 90.8343C222.159 92.4242 221.07 95.8194 220.085 97.27C219.999 97.3904 218.448 99.1703 218.43 99.1703V99.1323C218.259 99.6707 218.077 100.247 217.858 100.868C217.456 102.014 216.982 103.313 216.385 104.669C215.75 106.154 215.033 107.601 214.238 109.001C213.352 110.57 212.334 112.054 211.195 113.435L211.153 113.486C211.627 113.176 212.978 112.371 213.094 112.32C214.663 111.624 218.083 111.225 219.336 112.726C219.537 112.981 219.684 113.276 219.768 113.594C219.853 113.912 219.872 114.244 219.825 114.57C219.778 114.896 219.666 115.208 219.495 115.486C219.325 115.764 219.101 116.002 218.837 116.184C217.736 116.995 216.081 116.818 214.87 116.431C213.501 115.982 211.22 113.809 211.007 113.638C209.82 115.016 208.546 116.309 207.192 117.508C206.401 118.218 205.592 118.902 204.758 119.573C205.178 119.326 205.555 119.104 205.61 119.079C207.174 118.382 210.593 117.983 211.846 119.484C212.048 119.739 212.196 120.035 212.281 120.353C212.366 120.67 212.385 121.003 212.338 121.33C212.291 121.656 212.178 121.968 212.008 122.246C211.837 122.524 211.612 122.762 211.348 122.943C210.252 123.754 208.597 123.576 207.387 123.19C206.176 122.804 204.15 120.979 203.627 120.492L202.671 121.258C201.138 122.481 199.629 123.69 198.139 124.926C197.621 125.363 197.129 125.812 196.63 126.256C197.007 126.034 197.317 125.85 197.372 125.831C198.936 125.128 202.355 124.736 203.608 126.231C203.811 126.485 203.96 126.78 204.045 127.098C204.13 127.416 204.15 127.75 204.103 128.076C204.056 128.403 203.943 128.715 203.772 128.993C203.6 129.271 203.375 129.508 203.109 129.689C202.008 130.5 200.359 130.323 199.149 129.942C197.938 129.562 196.106 127.903 195.498 127.326C195.005 127.801 194.506 128.27 194.05 128.758C193.74 129.094 193.441 129.391 193.137 129.752C192.833 130.113 192.529 130.437 192.261 130.779C191.732 131.45 191.178 132.147 190.673 132.818C190.32 133.281 189.992 133.73 189.663 134.18C190.168 133.743 191.19 132.913 191.282 132.844C192.724 131.906 196.046 130.975 197.506 132.254C197.742 132.475 197.93 132.746 198.059 133.047C198.188 133.349 198.255 133.676 198.255 134.006C198.255 134.336 198.188 134.663 198.059 134.965C197.93 135.266 197.742 135.536 197.506 135.757C196.538 136.727 194.883 136.834 193.63 136.632C192.243 136.403 189.736 134.731 189.426 134.491C188.878 135.238 188.355 135.973 187.868 136.676C186.183 139.102 184.869 141.186 183.968 142.662L183.877 142.807L182.709 142.218C182.77 142.123 182.83 142.035 182.891 141.933C183.834 140.464 185.209 138.386 186.962 135.973C187.515 135.213 188.118 134.408 188.744 133.585C188.092 132.846 187.483 132.068 186.919 131.254C185.575 131.798 182.782 131.824 182.423 131.824C182.368 132.761 182.319 133.673 182.283 134.535C182.161 137.531 182.173 140.027 182.204 141.769V141.978L180.92 141.344C180.92 139.615 180.987 137.265 181.157 134.497C181.212 133.54 181.291 132.521 181.382 131.482C181.023 131.387 178.121 130.608 177.026 129.695C176.034 128.872 174.988 127.529 175.024 126.129C175.021 125.799 175.085 125.472 175.211 125.169C175.338 124.866 175.524 124.595 175.759 124.372C175.993 124.15 176.27 123.981 176.571 123.878C176.872 123.775 177.191 123.739 177.507 123.773C179.399 124.026 180.981 127.206 181.297 128.948C181.297 129.049 181.395 130.215 181.431 130.912C181.474 130.481 181.504 130.069 181.547 129.645C181.632 128.777 181.741 127.909 181.857 126.978C181.924 126.535 181.997 126.085 182.064 125.629C182.131 125.173 182.246 124.704 182.338 124.235C182.569 123.158 182.849 122.075 183.159 120.992C182.429 120.91 179.843 120.593 178.73 119.934C177.616 119.275 176.399 118.11 176.235 116.723C176.183 116.397 176.198 116.063 176.279 115.743C176.36 115.424 176.505 115.125 176.704 114.868C176.904 114.611 177.153 114.4 177.436 114.251C177.719 114.101 178.029 114.015 178.346 113.999C180.251 113.948 182.283 116.843 182.843 118.515C182.879 118.623 183.153 119.871 183.287 120.561C183.482 119.928 183.664 119.256 183.895 118.61C184.504 116.71 185.191 114.848 185.86 112.966C186.067 112.39 186.262 111.814 186.469 111.244C186.207 111.244 183.123 110.908 181.881 110.167C180.78 109.533 179.551 108.342 179.381 106.955C179.331 106.629 179.347 106.296 179.429 105.977C179.51 105.659 179.655 105.361 179.854 105.104C180.053 104.848 180.302 104.637 180.584 104.487C180.866 104.337 181.176 104.249 181.492 104.231C183.402 104.181 185.435 107.076 185.994 108.748C186.037 108.874 186.426 110.648 186.505 111.136C186.943 109.869 187.375 108.602 187.722 107.335C188.237 105.625 188.643 103.881 188.939 102.116C188.817 102.116 185.593 101.799 184.327 101.039C183.22 100.405 181.991 99.2146 181.827 97.8274C181.777 97.5016 181.793 97.1685 181.875 96.8497C181.956 96.5309 182.101 96.2335 182.3 95.9767C182.499 95.7199 182.748 95.5096 183.03 95.3592C183.312 95.2088 183.621 95.1217 183.938 95.1037C185.842 95.0593 187.874 97.9478 188.434 99.62C188.471 99.7341 188.769 101.102 188.897 101.755H189.006C189.257 99.9705 189.355 98.1665 189.298 96.3642C189.298 95.3697 189.207 94.4259 189.116 93.5011C188.507 93.5011 185.745 93.5011 184.528 92.9563C183.311 92.4116 182.015 91.4108 181.699 90.0489C181.614 89.7299 181.596 89.3959 181.644 89.0688C181.692 88.7417 181.806 88.4289 181.978 88.1508C182.151 87.8728 182.377 87.6358 182.644 87.4553C182.91 87.2748 183.21 87.1549 183.524 87.1034C185.416 86.8374 187.741 89.4788 188.477 91.0814C188.513 91.17 188.83 92.1012 189.043 92.779C189 92.3672 188.957 91.9365 188.903 91.5438C188.714 90.0552 188.446 88.6997 188.203 87.5088C188.057 86.831 187.917 86.2419 187.777 85.6529C187.169 85.3361 184.784 84.0313 183.962 82.9734C183.141 81.9156 182.423 80.4017 182.745 79.0398C182.815 78.7152 182.95 78.4096 183.141 78.1433C183.332 77.877 183.576 77.656 183.855 77.4949C184.135 77.3339 184.444 77.2364 184.762 77.209C185.081 77.1816 185.401 77.2248 185.702 77.3359Z" fill="white"/>
<path d="M220.188 107.95C218.698 107.886 215.716 106.296 215.716 106.29C215.716 106.284 217.316 104.567 217.432 104.472C218.765 103.364 221.965 102.046 223.553 103.142C223.812 103.333 224.029 103.578 224.192 103.861C224.354 104.145 224.457 104.461 224.494 104.789C224.531 105.117 224.502 105.449 224.408 105.765C224.314 106.08 224.157 106.371 223.948 106.62C223.097 107.684 221.46 108 220.188 107.95Z" fill="white"/>
</g>
<path d="M202.782 146.817C202.782 146.817 193.734 124.109 188.672 125.097C183.61 126.085 197.342 161.291 197.342 161.291C197.342 161.291 181.426 130.031 170.571 130.031C159.717 130.031 174.55 164.585 188.295 176.101C188.295 176.101 166.592 151.752 153.931 157.015C141.269 162.279 179.254 186.958 179.254 186.958C179.254 186.958 157.186 179.718 159.717 185.311C162.248 190.904 169.123 191.892 169.123 191.892L144.178 193.21H231L211.464 191.233C211.464 191.233 231.724 180.706 226.297 176.43C220.87 172.154 208.933 181.365 208.933 181.365C208.933 181.365 229.552 157.674 225.573 148.787C221.594 139.9 203.865 164.914 203.865 164.914C203.865 164.914 218.339 132.996 215.425 127.402C212.51 121.809 202.782 146.817 202.782 146.817Z" fill="#FF9B5A"/>
<path opacity="0.4" d="M202.782 146.817C202.782 146.817 193.734 124.109 188.672 125.097C183.61 126.085 197.342 161.291 197.342 161.291C197.342 161.291 181.426 130.031 170.571 130.031C159.717 130.031 174.55 164.585 188.295 176.101C188.295 176.101 166.592 151.752 153.931 157.015C141.269 162.279 179.254 186.958 179.254 186.958C179.254 186.958 157.186 179.718 159.717 185.311C162.248 190.904 169.123 191.892 169.123 191.892L144.178 193.21H231L211.464 191.233C211.464 191.233 231.724 180.706 226.297 176.43C220.87 172.154 208.933 181.365 208.933 181.365C208.933 181.365 229.552 157.674 225.573 148.787C221.594 139.9 203.865 164.914 203.865 164.914C203.865 164.914 218.339 132.996 215.425 127.402C212.51 121.809 202.782 146.817 202.782 146.817Z" fill="white"/>
<path d="M205.678 148.008C197.713 172.49 197.713 189.814 197.713 189.814C197.713 189.814 207.12 190.188 216.891 182.657" stroke="#263238" stroke-linecap="round" stroke-linejoin="round"/>
<path d="M201.698 161.196C200.056 153.876 197.877 146.697 195.182 139.723" stroke="#263238" stroke-linecap="round" stroke-linejoin="round"/>
<path d="M178.183 146.88L198.437 178.14C198.437 178.14 212.188 166.105 216.891 159.308" stroke="#263238" stroke-linecap="round" stroke-linejoin="round"/>
<path d="M198.078 185.678C198.078 185.678 176.735 175.132 168.052 169.127" stroke="#263238" stroke-linecap="round" stroke-linejoin="round"/>
<path d="M178.918 17.1027H113.914C111.253 17.1027 109.095 19.3488 109.095 22.1195V188.193C109.095 190.964 111.253 193.21 113.914 193.21H178.918C181.58 193.21 183.737 190.964 183.737 188.193V22.1195C183.737 19.3488 181.58 17.1027 178.918 17.1027Z" fill="white" stroke="#263238" stroke-linecap="round" stroke-linejoin="round"/>
<path d="M181.243 47.9319C180.98 47.9319 180.727 47.8231 180.541 47.6295C180.355 47.4359 180.251 47.1732 180.251 46.8994V33.0589C180.271 32.7982 180.384 32.5548 180.568 32.3773C180.753 32.1997 180.995 32.1011 181.246 32.1011C181.497 32.1011 181.739 32.1997 181.923 32.3773C182.108 32.5548 182.221 32.7982 182.241 33.0589V46.8741C182.243 47.0121 182.219 47.1492 182.17 47.2775C182.121 47.4057 182.048 47.5225 181.955 47.621C181.862 47.7194 181.751 47.7977 181.629 47.8511C181.507 47.9044 181.375 47.9319 181.243 47.9319Z" fill="#263238"/>
<path d="M181.243 60.7526C180.98 60.7526 180.727 60.6438 180.541 60.4501C180.355 60.2565 180.251 59.9939 180.251 59.7201V51.9859C180.271 51.7252 180.384 51.4818 180.568 51.3042C180.753 51.1267 180.995 51.0281 181.246 51.0281C181.497 51.0281 181.739 51.1267 181.923 51.3042C182.108 51.4818 182.221 51.7252 182.241 51.9859V59.7201C182.239 59.9945 182.133 60.2571 181.946 60.4505C181.759 60.644 181.506 60.7526 181.243 60.7526Z" fill="#263238"/>
<path d="M173.291 17.1027H108.286C105.625 17.1027 103.467 19.3488 103.467 22.1195V188.193C103.467 190.964 105.625 193.21 108.286 193.21H173.291C175.952 193.21 178.109 190.964 178.109 188.193V22.1195C178.109 19.3488 175.952 17.1027 173.291 17.1027Z" fill="#263238" stroke="#263238" stroke-linecap="round" stroke-linejoin="round"/>
<path d="M173.138 28.8275H108.438V179.876H173.138V28.8275Z" fill="#FF9B5A"/>
<path d="M131.181 24.0008H148.406" stroke="white" stroke-width="3" stroke-linecap="round" stroke-linejoin="round"/>
<path d="M138.47 185.222C138.47 186.457 137.728 187.458 136.809 187.458C135.89 187.458 135.154 186.457 135.154 185.222C135.154 183.987 135.897 182.98 136.809 182.98C137.722 182.98 138.47 183.981 138.47 185.222Z" fill="white"/>
<path d="M140.788 66.4155C146.985 66.4155 152.008 60.3181 152.008 52.7967C152.008 45.2752 146.985 39.1779 140.788 39.1779C134.592 39.1779 129.569 45.2752 129.569 52.7967C129.569 60.3181 134.592 66.4155 140.788 66.4155Z" fill="white"/>
<path d="M140.788 52.6256C143.14 52.6256 145.047 50.3086 145.047 47.4504C145.047 44.5923 143.14 42.2753 140.788 42.2753C138.436 42.2753 136.529 44.5923 136.529 47.4504C136.529 50.3086 138.436 52.6256 140.788 52.6256Z" fill="#263238" stroke="#263238" stroke-linecap="round" stroke-linejoin="round"/>
<path d="M140.788 54.0002C136.529 54.0002 133.042 57.4017 133.042 61.6014C133.046 61.9922 133.08 62.382 133.146 62.7669C134.091 63.9148 135.263 64.8363 136.582 65.4681C137.901 66.0998 139.336 66.4269 140.788 66.4269C142.24 66.4269 143.675 66.0998 144.994 65.4681C146.313 64.8363 147.485 63.9148 148.43 62.7669C148.49 62.3815 148.523 61.9919 148.527 61.6014C148.527 57.4017 145.059 54.0002 140.788 54.0002Z" fill="#263238" stroke="#263238" stroke-linecap="round" stroke-linejoin="round"/>
<path d="M154.429 112.118H127.147C126.425 112.088 125.744 111.761 125.253 111.209C124.763 110.656 124.503 109.924 124.531 109.172V91.6387C124.531 81.5355 131.832 73.3135 140.788 73.3135C149.744 73.3135 157.039 81.5482 157.039 91.6387V109.159C157.055 109.532 156.999 109.905 156.877 110.255C156.754 110.605 156.566 110.927 156.323 111.202C156.081 111.477 155.789 111.699 155.464 111.856C155.139 112.013 154.787 112.102 154.429 112.118ZM129.757 106.227H151.813V91.6577C151.813 84.804 146.866 79.2235 140.788 79.2235C134.71 79.2235 129.757 84.804 129.757 91.6577V106.227Z" fill="#263238"/>
<path d="M159.728 100.152H121.848V137.461H159.728V100.152Z" fill="white"/>
<path d="M146.307 125.838L143.496 118.8C144.118 118.311 144.62 117.677 144.964 116.948C145.307 116.22 145.482 115.418 145.473 114.607C145.473 111.801 143.459 109.539 140.971 109.539C138.482 109.539 136.475 111.807 136.475 114.607C136.465 115.418 136.639 116.22 136.981 116.948C137.323 117.676 137.825 118.311 138.446 118.8L135.641 125.838H146.307Z" fill="#263238" stroke="#263238" stroke-linecap="round" stroke-linejoin="round"/>
<path d="M129.246 170.989C129.304 171.033 129.375 171.058 129.447 171.058C129.499 171.058 129.549 171.045 129.595 171.02C129.641 170.994 129.68 170.958 129.708 170.913L173.138 109.413V108.247L129.197 170.507C129.17 170.542 129.15 170.582 129.138 170.626C129.125 170.669 129.121 170.714 129.126 170.759C129.13 170.803 129.143 170.847 129.164 170.886C129.185 170.926 129.212 170.961 129.246 170.989Z" fill="white"/>
<path d="M164.402 50.985C164.376 51.0215 164.357 51.063 164.347 51.107C164.336 51.1511 164.335 51.1968 164.341 51.2416C164.348 51.2864 164.363 51.3294 164.386 51.368C164.409 51.4065 164.439 51.44 164.475 51.4664C164.546 51.5192 164.634 51.5408 164.721 51.5266C164.807 51.5124 164.885 51.4635 164.937 51.3904L173.139 39.7796V38.6394L164.402 50.985Z" fill="white"/>
<path d="M108.438 131.412L162.052 55.5078C162.104 55.4339 162.125 55.3416 162.111 55.2513C162.098 55.161 162.05 55.0801 161.979 55.0264C161.908 54.9726 161.82 54.9504 161.733 54.9647C161.646 54.9789 161.568 55.0285 161.517 55.1024L108.462 130.246L108.438 131.412Z" fill="white"/>
<path d="M124.209 178.476C124.261 178.475 124.312 178.462 124.358 178.438C124.405 178.414 124.445 178.379 124.477 178.337L127.519 174.055C127.545 174.018 127.564 173.977 127.574 173.933C127.584 173.889 127.586 173.843 127.579 173.798C127.572 173.753 127.557 173.71 127.534 173.672C127.511 173.633 127.481 173.6 127.446 173.573C127.375 173.52 127.286 173.499 127.2 173.513C127.113 173.527 127.036 173.576 126.984 173.649L123.941 177.925C123.915 177.961 123.896 178.002 123.885 178.046C123.875 178.09 123.872 178.135 123.878 178.18C123.885 178.225 123.899 178.268 123.922 178.307C123.944 178.346 123.973 178.379 124.008 178.406C124.065 178.453 124.136 178.478 124.209 178.476Z" fill="white"/>
<path d="M173.139 121.727L137.485 172.218C137.449 172.269 137.427 172.33 137.422 172.393C137.417 172.456 137.429 172.52 137.457 172.576C137.485 172.633 137.527 172.68 137.579 172.713C137.632 172.746 137.691 172.763 137.753 172.762C137.805 172.763 137.856 172.751 137.903 172.727C137.949 172.703 137.99 172.667 138.02 172.623L173.139 122.886V121.727Z" fill="white"/>
<path d="M47.9178 50.7633C48.5211 49.3717 48.8124 47.8554 48.7696 46.3293C48.7696 43.4978 45.478 41.8572 41.6084 41.4075C37.7388 40.9578 36.0231 42.5983 36.595 43.6435C37.1893 44.5055 37.9148 45.2608 38.7427 45.8795C38.7427 45.8795 34.8731 43.6435 32.2934 45.4361C29.7137 47.2287 33.4433 46.4813 32.7254 48.2676C32.0074 50.0539 27.9979 49.3127 26.994 54.0825C25.9901 58.8522 28.8558 63.6283 26.276 65.7186C23.6963 67.809 15.9328 64.9712 13.6694 70.1907C11.406 75.4102 14.6185 77.7285 9.1792 81.0097C3.73985 84.2909 -0.227103 87.4961 1.34873 95.547C2.92456 103.598 8.08403 106.417 18.257 103.573C28.4299 100.728 27.7119 94.3245 31.0339 87.7368C34.356 81.1491 39.4911 82.5173 41.0669 78.7864C42.6427 75.0554 40.6349 70.5834 40.781 67.1502C40.927 63.717 44.2186 62.9759 45.5084 58.9156C46.7983 54.8553 47.9178 50.7633 47.9178 50.7633Z" fill="#263238" stroke="#263238" stroke-linecap="round" stroke-linejoin="round"/>
<path d="M2.53538 95.395C2.26855 95.9558 2.13303 96.5744 2.1399 97.2002" stroke="white" stroke-width="0.5" stroke-linecap="round" stroke-linejoin="round"/>
<path d="M42.4177 47.8051C42.4177 47.8051 40.6289 45.6515 44.0726 46.6523C48.4107 47.9191 43.3181 53.145 41.359 54.1965C37.4286 56.2931 32.2326 55.6217 29.1904 59.435C26.4282 62.8808 30.1578 66.4724 28.5029 69.2025C26.848 71.9326 20.2222 70.349 18.0197 73.6365C15.8172 76.924 22.0171 83.9805 15.6712 87.8571C11.0836 90.6632 6.058 91.74 3.63037 93.9634" stroke="white" stroke-width="0.5" stroke-linecap="round" stroke-linejoin="round"/>
<path d="M32.1291 60.5499C31.753 61.4659 31.639 62.4754 31.8005 63.4573C32.3481 65.896 35.5241 70.4948 32.628 73.0792C29.7319 75.6636 24.761 75.5179 23.9396 78.5457C23.1182 81.5735 24.7671 89.8905 22.0109 93.7481C19.2547 97.6057 13.8701 97.3396 10.974 99.924C8.07789 102.508 8.49162 103.946 8.49162 103.946" stroke="white" stroke-width="0.5" stroke-linecap="round" stroke-linejoin="round"/>
<path d="M33.5896 57.712C33.3389 58.081 33.1073 58.4637 32.896 58.8585" stroke="white" stroke-width="0.5" stroke-linecap="round" stroke-linejoin="round"/>
<path d="M49.7733 95.1669L50.473 100.868C50.473 100.868 54.1235 104.668 56.8067 107.018C59.4899 109.368 66.3651 114.341 66.3651 114.341L62.8788 115.373C62.8788 115.373 51.483 108.342 49.2318 107.772C46.9806 107.202 45.2952 103.82 44.5955 102.793C43.8959 101.767 47.9419 94.1408 49.7733 95.1669Z" fill="white" stroke="#263238" stroke-linecap="round" stroke-linejoin="round"/>
<path d="M56.7336 187.921C56.7336 187.921 60.1773 190.948 61.601 191.962C63.0248 192.975 64.6858 193.431 64.4241 193.982C64.1625 194.534 63.4507 195.085 60.0982 194.616C56.7458 194.147 55.7784 192.963 55.1578 192.779C54.5372 192.595 53.0405 193.058 51.8966 192.323C50.7528 191.588 52.5659 187.211 52.5659 187.211C53.0683 187.823 53.7624 188.229 54.5252 188.359C55.288 188.489 56.0703 188.334 56.7336 187.921Z" fill="white" stroke="#263238" stroke-linecap="round" stroke-linejoin="round"/>
<path d="M64.4119 193.982C64.4146 193.953 64.4146 193.923 64.4119 193.894C62.4763 194.079 60.5246 193.888 58.6561 193.33C56.4901 192.798 55.8513 191.601 53.7887 191.601C52.9793 191.608 52.1746 191.471 51.4097 191.195C51.3876 191.407 51.4154 191.62 51.4907 191.818C51.5659 192.016 51.6865 192.191 51.8417 192.329C52.9856 193.064 54.4884 192.602 55.1029 192.785C55.7174 192.969 56.6909 194.166 60.0433 194.622C63.3958 195.078 64.1442 194.533 64.4119 193.982Z" fill="white" stroke="#263238" stroke-linecap="round" stroke-linejoin="round"/>
<path d="M38.7062 65.497C38.7062 65.497 39.3694 70.1464 38.5176 72.0214C37.6658 73.8963 35.0009 74.099 32.7254 74.4981C30.4499 74.8972 25.2235 76.9685 25.7893 82.3083C26.3552 87.6482 32.914 99.2146 32.914 102.477C32.914 105.739 30.9184 107.418 28.7341 113.746C26.5498 120.074 26.8358 131.843 27.5172 139.457C28.0167 144.482 28.9701 149.447 30.3647 154.285C30.3647 154.285 24.8888 163.483 22.4551 167.435C20.0214 171.388 11.5034 188.598 11.5034 188.598C11.5034 188.598 11.5034 189.187 12.8298 189.586C13.763 189.823 14.7284 189.889 15.6833 189.783C15.6833 189.783 32.0135 169.317 35.0557 165.858C38.0978 162.4 40.9453 156.357 41.3225 153.595C41.6997 150.833 41.2312 133.92 41.2312 133.92C41.2312 133.92 44.6445 142.421 47.3155 146.773C48.9355 149.436 50.4221 152.184 51.7692 155.007C51.3952 158.586 51.3952 162.197 51.7692 165.776C52.4324 170.717 51.8726 186.59 52.5358 187.876C53.199 189.162 55.7727 188.624 56.3446 188.035C56.9165 187.445 57.1842 183.601 57.1842 183.601C57.1842 183.601 58.322 171.565 59.0095 165.902C59.697 160.24 60.8348 155.419 60.4393 154.133C60.0438 152.847 57.6831 139.102 55.8761 132.597C54.0691 126.091 48.575 113.91 47.3581 110.749C46.1412 107.589 45.4537 104.713 45.6484 103.725C45.8431 102.737 49.5423 96.8076 50.5158 95.224C51.0708 94.1505 51.3769 92.9567 51.4097 91.7381C51.4424 90.5194 51.2009 89.3097 50.7045 88.2056C49.5667 85.6338 50.7044 82.169 50.5158 80.0976C50.3272 78.0263 47.3824 77.1268 45.8614 76.3414C44.3403 75.5559 43.7684 73.7696 43.7684 72.2874C43.8613 71.0388 44.1511 69.8147 44.6263 68.6642C44.6263 68.6642 39.9414 65.497 38.7062 65.497Z" fill="white" stroke="#263238" stroke-linecap="round" stroke-linejoin="round"/>
<path d="M50.218 86.6473C49.7177 85.3236 49.301 83.9673 48.9707 82.587" stroke="#263238" stroke-linecap="round" stroke-linejoin="round"/>
<path d="M37.8848 97.6563C37.8848 97.6563 39.6005 98.049 43.0382 96.2628" stroke="#263238" stroke-linecap="round" stroke-linejoin="round"/>
<path d="M55.8943 132.533C54.1725 126.3 49.0678 114.917 47.5406 111.161C40.2395 114.012 33.4129 111.579 30.2065 110.008C29.7441 111.06 29.2452 112.276 28.7341 113.746C26.5498 120.08 26.8358 131.843 27.5172 139.457C28.0167 144.482 28.9701 149.446 30.3647 154.285C30.3647 154.285 24.8888 163.483 22.4551 167.435C20.0214 171.388 11.5034 188.598 11.5034 188.598C11.5034 188.598 11.5034 189.187 12.8298 189.586C13.763 189.823 14.7284 189.889 15.6833 189.783C15.6833 189.783 32.0135 169.317 35.0557 165.858C38.0978 162.4 40.9453 156.357 41.3225 153.595C41.6997 150.833 41.2312 133.92 41.2312 133.92C41.2312 133.92 44.6445 142.421 47.3155 146.773C48.9355 149.436 50.4221 152.184 51.7692 155.007C51.3952 158.586 51.3952 162.197 51.7692 165.776C52.4324 170.716 51.8726 186.59 52.5358 187.876C53.199 189.162 55.7727 188.624 56.3446 188.035C56.9165 187.445 57.1842 183.601 57.1842 183.601C57.1842 183.601 58.322 171.565 59.0095 165.902C59.697 160.24 60.8348 155.419 60.4393 154.133C60.0438 152.847 57.7014 139.058 55.8943 132.533Z" fill="#263238" stroke="#263238" stroke-linecap="round" stroke-linejoin="round"/>
<path d="M93.0936 126.256V124.964H94.134V114.816H93.0936H82.8234H81.7829V124.964H82.8234V126.256H81.7769V128.612H85.7864V127.82H90.1306V128.612H94.1401V126.256H93.0936Z" fill="#FF9B5A" stroke="#263238" stroke-linecap="round" stroke-linejoin="round"/>
<path d="M26.7139 111.782H98.3624C98.6496 111.782 98.9251 111.901 99.1282 112.112C99.3313 112.324 99.4454 112.61 99.4454 112.909V115.177C99.4454 115.476 99.3313 115.763 99.1282 115.974C98.9251 116.186 98.6496 116.305 98.3624 116.305H26.7139V111.776V111.782Z" fill="#FF9B5A" stroke="#263238" stroke-linecap="round" stroke-linejoin="round"/>
<path d="M78.1386 111.104H73.7762C73.4435 111.104 73.1738 111.385 73.1738 111.731V116.362C73.1738 116.708 73.4435 116.989 73.7762 116.989H78.1386C78.4713 116.989 78.741 116.708 78.741 116.362V111.731C78.741 111.385 78.4713 111.104 78.1386 111.104Z" fill="#FF9B5A" stroke="#263238" stroke-linecap="round" stroke-linejoin="round"/>
<path d="M28.9556 115.951C29.9651 109.533 25.786 103.478 19.6214 102.427C13.4568 101.376 7.64105 105.727 6.63156 112.145C5.62207 118.563 9.80112 124.618 15.9657 125.669C22.1303 126.72 27.9461 122.369 28.9556 115.951Z" fill="#FF9B5A" stroke="#263238" stroke-linecap="round" stroke-linejoin="round"/>
<path d="M20.1186 114.018C20.7743 113.691 21.3308 113.182 21.7269 112.547C22.1229 111.913 22.3433 111.177 22.3637 110.42C22.3637 108.108 20.3194 106.233 17.7944 106.233C15.2694 106.233 13.2251 108.133 13.2251 110.42C13.2441 111.177 13.4639 111.914 13.8602 112.549C14.2564 113.184 14.8136 113.692 15.4702 114.018C14.814 114.346 14.2573 114.856 13.8612 115.492C13.4652 116.127 13.2451 116.865 13.2251 117.622C13.2251 119.934 15.2694 121.809 17.7944 121.809C20.3194 121.809 22.3637 119.909 22.3637 117.622C22.3424 116.865 22.1217 116.128 21.7258 115.493C21.3299 114.857 20.7739 114.347 20.1186 114.018Z" fill="white" stroke="#263238" stroke-linecap="round" stroke-linejoin="round"/>
<path d="M64.1323 116.406C64.1323 116.406 67.6734 117.964 68.7685 117.964C69.8637 117.964 71.1292 116.818 71.7559 115.43C72.3826 114.043 72.3644 113.384 71.9932 113.714L71.2083 114.347C71.2083 114.347 71.8168 112.96 71.1292 113.125C70.6532 113.29 70.2579 113.642 70.028 114.107C70.028 114.107 69.9489 112.878 69.3222 113.473C68.9075 113.864 68.5379 114.304 68.221 114.784C68.221 114.784 68.1419 113.232 67.7464 113.638C67.3509 114.043 65.8663 116.254 65.8663 116.254L64.1323 116.406Z" fill="white" stroke="#263238" stroke-linecap="round" stroke-linejoin="round"/>
<path d="M68.2206 114.772C68.2206 114.772 67.9833 116.735 66.8091 117.065L68.2206 114.772Z" fill="white"/>
<path d="M68.2206 114.772C68.2206 114.772 67.9833 116.735 66.8091 117.065" stroke="#263238" stroke-linecap="round" stroke-linejoin="round"/>
<path d="M70.0278 114.119C70.0278 114.119 69.4193 117.223 68.458 117.717L70.0278 114.119Z" fill="white"/>
<path d="M70.0278 114.119C70.0278 114.119 69.4193 117.223 68.458 117.717" stroke="#263238" stroke-linecap="round" stroke-linejoin="round"/>
<path d="M71.2087 114.36C70.8949 115.493 70.473 116.59 69.9492 117.635L71.2087 114.36Z" fill="white"/>
<path d="M71.2087 114.36C70.8949 115.493 70.473 116.59 69.9492 117.635" stroke="#263238" stroke-linecap="round" stroke-linejoin="round"/>
<path d="M45.6361 76.1514C45.0233 75.7206 44.527 75.1333 44.1946 74.4457C43.8622 73.758 43.7049 72.9931 43.7378 72.2241C43.8469 70.9952 44.1469 69.7929 44.6261 68.6642C44.6261 68.6642 39.9716 65.497 38.7365 65.497C38.7365 65.497 39.3997 70.1464 38.5479 72.0214C38.2687 72.6046 37.8135 73.0763 37.252 73.3643C38.3768 76.5172 39.9012 79.4996 41.7847 82.2323C43.4944 84.4683 44.328 79.7556 45.6361 76.1514Z" fill="white" stroke="#263238" stroke-linecap="round" stroke-linejoin="round"/>
<path d="M31.2715 75.1378C30.1105 75.3442 29.0114 75.8288 28.0611 76.5532C27.1108 77.2776 26.3352 78.2221 25.7956 79.3121C23.9217 83.0747 15.7322 100.152 16.4319 101.172C20.4111 106.999 34.8856 111.193 36.358 112.726C37.8299 114.329 39.4455 115.782 41.1828 117.065C42.6552 118.04 45.5939 117.622 46.1293 117.343C46.6647 117.065 47.0663 115.811 46.1293 115.811C45.7713 115.815 45.4226 115.692 45.1413 115.462C44.86 115.231 44.6633 114.907 44.5839 114.544C44.45 113.986 46.0563 115.101 46.8594 114.683C47.6625 114.265 45.0646 112.738 44.2614 112.042C43.4583 111.345 42.789 110.376 41.7182 110.376C40.6474 110.376 38.6335 110.376 38.6335 110.376C38.6335 110.376 33.7052 106.657 30.7239 103.889C28.4041 101.71 25.8738 99.7868 23.1733 98.1504L32.2085 82.6757" fill="white"/>
<path d="M31.2715 75.1378C30.1105 75.3442 29.0114 75.8288 28.0611 76.5532C27.1108 77.2776 26.3352 78.2221 25.7956 79.3121C23.9217 83.0747 15.7322 100.152 16.4319 101.172C20.4111 106.999 34.8856 111.193 36.358 112.726C37.8299 114.329 39.4455 115.782 41.1828 117.065C42.6552 118.04 45.5939 117.622 46.1293 117.343C46.6647 117.065 47.0663 115.811 46.1293 115.811C45.7713 115.815 45.4226 115.692 45.1413 115.462C44.86 115.231 44.6633 114.907 44.5839 114.544C44.45 113.986 46.0563 115.101 46.8594 114.683C47.6626 114.265 45.0646 112.738 44.2614 112.042C43.4583 111.345 42.789 110.376 41.7182 110.376C40.6474 110.376 38.6335 110.376 38.6335 110.376C38.6335 110.376 33.7052 106.657 30.7239 103.889C28.4041 101.71 25.8738 99.7869 23.1733 98.1504L32.2085 82.6757" stroke="#263238" stroke-linecap="round" stroke-linejoin="round"/>
<path d="M44.2555 112.048C43.4524 111.351 42.7831 110.382 41.7123 110.382C40.6414 110.382 38.6275 110.382 38.6275 110.382C38.6275 110.382 33.6993 106.664 30.718 103.896C28.3982 101.716 25.8678 99.7932 23.1674 98.1568L26.7814 91.9618C24.9338 90.7975 22.8203 90.1698 20.6606 90.1439C18.2269 95.4267 16.0427 100.646 16.4016 101.197C20.3808 107.025 34.8553 111.218 36.3277 112.751C37.7996 114.354 39.4152 115.807 41.1525 117.09C42.6249 118.066 45.5636 117.648 46.099 117.369C46.6344 117.09 47.036 115.836 46.099 115.836C45.741 115.841 45.3923 115.718 45.111 115.487C44.8297 115.257 44.633 114.932 44.5536 114.569C44.4198 114.012 46.026 115.126 46.8291 114.708C47.6323 114.29 45.0586 112.751 44.2555 112.048Z" fill="white" stroke="#263238" stroke-linecap="round" stroke-linejoin="round"/>
<path d="M49.1527 58.6749C48.6781 57.6867 48.6781 56.8949 48.8667 55.5077C49.0553 54.1205 47.9176 50.757 47.9176 50.757C46.7555 52.8473 43.3969 54.0888 41.9124 54.5576C40.2757 55.077 42.6668 56.2552 42.4113 57.8324C42.1558 59.4096 38.8885 60.3218 38.8885 60.3218C38.8885 60.3218 37.9333 58.2758 36.6069 58.2758C35.2805 58.2758 34.3374 61.443 35.0919 63.1216C35.2885 63.5866 35.6309 63.9683 36.0631 64.2042C36.4953 64.4401 36.9917 64.5162 37.4709 64.4201C37.4709 64.4201 37.3796 67.3909 39.1805 68.2777C41.1022 69.2323 43.1069 69.9937 45.1675 70.5517C46.3052 70.7481 47.443 70.159 47.9176 68.3791C48.2887 66.5853 48.5428 64.7674 48.6781 62.9379C49.4748 62.3952 50.2078 61.7574 50.8624 61.0376C51.3187 60.3535 49.6273 59.663 49.1527 58.6749Z" fill="white" stroke="#263238" stroke-linecap="round" stroke-linejoin="round"/>
<path d="M47.3033 58.7192C47.3033 59.264 47.1329 59.7011 46.9261 59.7011C46.7192 59.7011 46.5488 59.264 46.5488 58.7192C46.5488 58.1745 46.7192 57.7374 46.9261 57.7374C47.1329 57.7374 47.3033 58.1745 47.3033 58.7192Z" fill="#263238"/>
<path d="M45.6665 57.085C45.6665 57.085 46.6765 55.9005 47.4309 56.1665" stroke="#263238" stroke-linecap="round" stroke-linejoin="round"/>
<path d="M47.4313 65.2055C46.9754 65.3487 46.4914 65.3656 46.0273 65.2545C45.5631 65.1434 45.1348 64.9082 44.7847 64.5721" stroke="#263238" stroke-linecap="round" stroke-linejoin="round"/>
<path d="M11.546 188.598C11.546 188.598 9.27653 193.336 9.36171 193.982C9.44689 194.629 13.9493 198.024 16.0544 199.215C18.1596 200.405 21.9683 200.595 21.7006 198.942C21.4329 197.289 17.8189 196.187 16.9366 193.704C16.4668 192.419 16.0607 191.111 15.7198 189.783C14.2491 189.806 12.8021 189.395 11.546 188.598Z" fill="white" stroke="#263238" stroke-linecap="round" stroke-linejoin="round"/>
<path d="M21.7126 198.968C20.0928 199.194 18.4444 198.95 16.9487 198.264C13.6814 196.789 10.5176 193.773 9.64752 192.918C9.49299 193.26 9.39428 193.626 9.35547 194.001C9.44673 194.635 13.943 198.043 16.0482 199.234C18.1533 200.424 21.9317 200.589 21.7126 198.968Z" fill="white" stroke="#263238" stroke-linecap="round" stroke-linejoin="round"/>
</svg>
