<svg width="305" height="324" viewBox="0 0 305 324" fill="none" xmlns="http://www.w3.org/2000/svg">
<path d="M305 218.199H187.993V144.855H305V218.199ZM188.707 217.426H304.286V145.629H188.707V217.426Z" fill="#E0E0E0"/>
<path d="M280.862 183.963H203.664V186.415H280.862V183.963Z" fill="#F0F0F0"/>
<path d="M286.181 193.104H203.664V195.78H286.181V193.104Z" fill="#F0F0F0"/>
<path d="M286.181 202.354H203.664V205.029H286.181V202.354Z" fill="#F0F0F0"/>
<path d="M230.644 170.685H203.664V177.05H230.644V170.685Z" fill="#F0F0F0"/>
<path d="M304.643 145.242H188.372V156.919H304.643V145.242Z" fill="#E0E0E0"/>
<path d="M295.697 155.172C295.547 155.017 297.047 153.06 299.039 150.802C301.03 148.544 302.78 146.835 302.922 146.982C303.065 147.129 301.573 149.093 299.581 151.359C297.589 153.625 295.84 155.326 295.697 155.172Z" fill="white"/>
<path d="M302.937 155.172C302.794 155.326 301.052 153.625 299.053 151.359C297.054 149.093 295.562 147.137 295.712 146.982C295.862 146.827 297.597 148.529 299.596 150.802C301.595 153.076 303.072 155.017 302.937 155.172Z" fill="white"/>
<path d="M161.021 0H44.7493V72.5784H161.021V0Z" fill="#E6E6E6"/>
<path d="M137.247 38.7291H60.0491V41.1806H137.247V38.7291Z" fill="#F0F0F0"/>
<path d="M142.566 47.8701H60.0491V50.5458H142.566V47.8701Z" fill="#F0F0F0"/>
<path d="M142.566 57.1193H60.0491V59.795H142.566V57.1193Z" fill="#F0F0F0"/>
<path d="M87.0287 25.4508H60.0491V31.8154H87.0287V25.4508Z" fill="#F0F0F0"/>
<path d="M161.021 0H44.7493V11.6775H161.021V0Z" fill="#E0E0E0"/>
<path d="M151.682 9.87561C151.533 9.72868 153.032 7.76438 155.024 5.50621C157.016 3.24804 158.765 1.53895 158.907 1.69362C159.05 1.84829 157.558 3.80485 155.566 6.06302C153.574 8.32119 151.825 10.0148 151.682 9.87561Z" fill="white"/>
<path d="M158.908 9.87565C158.765 10.0303 157.023 8.32896 155.024 6.06306C153.025 3.79716 151.533 1.84833 151.682 1.69366C151.832 1.53899 153.567 3.24035 155.566 5.50625C157.565 7.77215 159.057 9.72872 158.908 9.87565Z" fill="white"/>
<path d="M116.985 134.825H0V61.4732H116.985V134.825ZM0.713935 134.052H116.271V62.2466H0.713935V134.052Z" fill="#E0E0E0"/>
<path d="M92.8542 100.589H15.6565V103.04H92.8542V100.589Z" fill="#F0F0F0"/>
<path d="M98.173 109.73H15.6565V112.406H98.173V109.73Z" fill="#F0F0F0"/>
<path d="M98.173 118.979H15.6565V121.655H98.173V118.979Z" fill="#F0F0F0"/>
<path d="M42.6361 87.3107H15.6565V93.6753H42.6361V87.3107Z" fill="#F0F0F0"/>
<path d="M116.628 61.8599H0.356689V73.5374H116.628V61.8599Z" fill="#E0E0E0"/>
<path d="M251.997 151.63H114.708V284.769H251.997V151.63Z" fill="#E6E6E6"/>
<path d="M121.611 109.691H14.0642V230.728H121.611V109.691Z" fill="#F0F0F0"/>
<path d="M121.611 109.691H14.0642V122.877H121.611V109.691Z" fill="#E0E0E0"/>
<path d="M22.9459 116.149C22.9263 116.627 22.7775 117.088 22.5181 117.476C22.2586 117.863 21.8998 118.159 21.4862 118.328C21.0726 118.496 20.6225 118.53 20.1916 118.423C19.7608 118.317 19.3682 118.076 19.0626 117.731C18.757 117.385 18.5519 116.95 18.4726 116.479C18.3934 116.008 18.4435 115.522 18.6168 115.082C18.7901 114.642 19.0789 114.266 19.4475 114.002C19.816 113.738 20.248 113.597 20.6899 113.597C21.3009 113.613 21.8811 113.89 22.3038 114.369C22.7266 114.847 22.9574 115.487 22.9459 116.149Z" fill="white"/>
<path d="M32.1057 116.149C32.0875 116.629 31.9393 117.093 31.6795 117.483C31.4197 117.873 31.0598 118.171 30.6446 118.341C30.2294 118.511 29.7772 118.545 29.3443 118.439C28.9114 118.333 28.5169 118.091 28.2099 117.744C27.9029 117.396 27.6969 116.959 27.6177 116.486C27.5384 116.013 27.5893 115.525 27.7641 115.083C27.9389 114.641 28.2298 114.264 28.6006 114C28.9714 113.736 29.4058 113.596 29.8497 113.597C30.4607 113.613 31.041 113.89 31.4637 114.369C31.8864 114.847 32.1172 115.487 32.1057 116.149Z" fill="white"/>
<path d="M41.2654 116.149C41.2472 116.629 41.099 117.093 40.8392 117.483C40.5794 117.873 40.2195 118.171 39.8043 118.341C39.389 118.511 38.9368 118.545 38.5039 118.439C38.071 118.333 37.6765 118.091 37.3695 117.744C37.0625 117.396 36.8566 116.959 36.7773 116.486C36.6981 116.013 36.749 115.525 36.9238 115.083C37.0985 114.641 37.3894 114.264 37.7603 114C38.1311 113.736 38.5655 113.596 39.0094 113.597C39.6204 113.613 40.2006 113.89 40.6234 114.369C41.0461 114.847 41.2769 115.487 41.2654 116.149Z" fill="white"/>
<path d="M289.643 26.4716H152.354V174.691H289.643V26.4716Z" fill="#F0F0F0"/>
<path d="M289.643 26.4716H152.354V43.8332H289.643V26.4716Z" fill="#E0E0E0"/>
<path d="M164.048 34.9784C164.023 35.6096 163.827 36.2189 163.485 36.7306C163.143 37.2423 162.67 37.6339 162.124 37.8567C161.578 38.0796 160.984 38.1239 160.415 37.9842C159.847 37.8445 159.328 37.5269 158.925 37.0709C158.521 36.6148 158.25 36.0404 158.145 35.4189C158.04 34.7975 158.106 34.1563 158.335 33.5751C158.564 32.9939 158.945 32.4983 159.431 32.1497C159.918 31.8011 160.488 31.615 161.071 31.6144C161.877 31.6347 162.643 32 163.201 32.6305C163.759 33.261 164.063 34.1052 164.048 34.9784Z" fill="white"/>
<path d="M175.235 32.7047C175.631 33.1703 175.891 33.7517 175.984 34.3766C176.077 35.0015 175.998 35.6421 175.757 36.2187C175.516 36.7954 175.124 37.2825 174.63 37.6193C174.135 37.9562 173.56 38.1279 172.976 38.1132C172.391 38.0984 171.824 37.8978 171.345 37.5363C170.865 37.1748 170.494 36.6684 170.278 36.0803C170.063 35.4921 170.011 34.8482 170.131 34.2287C170.251 33.6092 170.536 33.0415 170.951 32.5964C171.533 31.9967 172.311 31.6713 173.114 31.6916C173.917 31.7119 174.68 32.0762 175.235 32.7047Z" fill="white"/>
<path d="M188.165 34.9784C188.139 35.6096 187.944 36.2189 187.602 36.7306C187.26 37.2423 186.786 37.6339 186.241 37.8567C185.695 38.0796 185.101 38.1239 184.532 37.9842C183.963 37.8445 183.445 37.5269 183.041 37.0709C182.638 36.6148 182.366 36.0404 182.262 35.4189C182.157 34.7975 182.223 34.1563 182.451 33.5751C182.68 32.9939 183.061 32.4983 183.548 32.1497C184.034 31.8011 184.604 31.615 185.187 31.6144C185.994 31.6347 186.759 32 187.317 32.6305C187.875 33.261 188.18 34.1052 188.165 34.9784Z" fill="white"/>
<path d="M211.681 229.421C200.651 221.076 198.152 205.586 198.588 191.658C198.659 189.338 198.424 186.879 199.445 184.845C200.466 182.811 202.85 181.411 204.771 182.386C206.363 183.198 207.055 185.208 207.948 186.871C209.138 189.086 210.883 190.89 212.981 192.076C214.344 192.849 216.036 193.313 217.386 192.509C219.242 191.403 219.456 188.642 219.442 186.322C219.442 182.007 219.418 177.697 219.371 173.392C219.242 171.08 219.459 168.761 220.013 166.524C220.677 164.328 222.155 162.294 224.175 161.676C226.196 161.057 228.716 162.333 229.173 164.591C229.252 165.548 229.273 166.508 229.237 167.468C229.294 168.435 229.708 169.494 230.544 169.788C231.379 170.082 232.25 169.409 232.892 168.728C235.091 166.408 236.591 163.385 237.983 160.4C239.375 157.414 240.739 154.344 242.738 151.8C244.737 149.256 247.5 147.237 250.591 147.044C253.682 146.851 256.902 148.908 257.673 152.156C258.444 155.404 256.695 158.721 254.817 161.358C251.984 165.273 248.644 168.724 244.901 171.605C244.17 172.037 243.587 172.713 243.237 173.531C242.773 175.078 244.123 176.624 245.529 177.112C247.121 177.684 248.849 177.506 250.527 177.722C252.204 177.939 253.989 178.728 254.625 180.429C255.496 182.796 253.668 185.27 251.876 186.894C248.278 190.142 244.192 192.698 239.796 194.45C238.226 195.069 236.576 195.618 235.306 196.809C234.035 198 233.278 200.08 234.042 201.712C234.806 203.343 236.769 203.862 238.418 203.529C240.068 203.196 241.531 202.238 243.102 201.596C246.036 200.397 249.82 200.613 251.669 203.359C252.242 204.305 252.604 205.381 252.728 206.504C252.852 207.628 252.734 208.766 252.383 209.832C251.668 211.952 250.569 213.895 249.149 215.547C244.473 221.598 238.397 226.197 231.543 228.872C224.739 231.424 218.435 232.12 211.674 229.436" fill="#FF9B5A"/>
<path d="M254.532 148.954C254.532 148.954 254.468 149.031 254.325 149.171L253.689 149.782C253.133 150.323 252.312 151.112 251.276 152.156C248.341 155.108 245.616 158.295 243.123 161.691C241.531 163.833 239.882 166.261 238.126 168.899C236.369 171.536 234.556 174.382 232.757 177.405C230.839 180.594 229.082 183.893 227.495 187.289C226.667 189.06 225.939 190.908 225.189 192.795L222.976 198.556C220.059 205.813 217.518 213.241 215.365 220.806C213.632 226.994 212.436 233.345 211.796 239.776C211.38 244.115 211.314 248.485 211.596 252.837C211.71 254.384 211.817 255.567 211.917 256.372C211.96 256.758 211.988 257.068 212.017 257.292V257.609C211.986 257.508 211.965 257.405 211.953 257.3C211.917 257.075 211.874 256.774 211.817 256.387C211.689 255.614 211.553 254.392 211.424 252.845C211.08 248.485 211.104 244.1 211.496 239.745C212.097 233.287 213.266 226.906 214.987 220.69C217.121 213.104 219.655 205.658 222.576 198.386L224.846 192.648C225.596 190.769 226.331 188.905 227.167 187.126C228.765 183.721 230.536 180.413 232.471 177.22C234.299 174.126 236.141 171.327 237.876 168.713C239.611 166.099 241.288 163.655 242.873 161.521C245.391 158.134 248.153 154.969 251.134 152.055C252.19 151.027 253.033 150.253 253.604 149.735L254.268 149.155C254.349 149.078 254.438 149.011 254.532 148.954Z" fill="#263238"/>
<path d="M227.259 187.111C227.159 186.792 227.089 186.463 227.052 186.129C226.938 185.487 226.81 184.582 226.66 183.407C226.353 181.086 226.039 177.908 225.703 174.389C225.368 170.871 224.989 167.684 224.675 165.388C224.511 164.243 224.368 163.323 224.268 162.681C224.19 162.352 224.149 162.015 224.147 161.676C224.27 161.985 224.358 162.31 224.411 162.642C224.568 163.276 224.746 164.189 224.946 165.341C225.353 167.661 225.753 170.816 226.089 174.343C226.424 177.869 226.71 180.963 226.931 183.368C227.038 184.451 227.131 185.371 227.202 186.106C227.258 186.437 227.277 186.774 227.259 187.111Z" fill="#263238"/>
<path d="M254.732 181.558C254.384 181.64 254.03 181.687 253.675 181.697C252.961 181.767 251.947 181.86 250.691 182.015C248.178 182.308 244.722 182.85 240.931 183.623C237.14 184.396 233.735 185.27 231.286 185.943C230.065 186.283 229.08 186.593 228.43 186.802C228.083 186.935 227.724 187.028 227.359 187.08C227.689 186.9 228.033 186.753 228.387 186.639C229.059 186.384 230.029 186.028 231.243 185.649C233.678 184.876 237.083 183.956 240.888 183.167C244.112 182.499 247.364 182.009 250.634 181.697C251.897 181.581 252.918 181.535 253.632 181.52C253.999 181.493 254.367 181.506 254.732 181.558Z" fill="#263238"/>
<path d="M215.337 220.148C215.261 220.036 215.199 219.914 215.151 219.785L214.68 218.71C214.273 217.774 213.724 216.39 213.067 214.696C211.739 211.293 210.047 206.53 208.248 201.24C206.449 195.95 204.792 191.186 203.536 187.745C202.922 186.075 202.415 184.706 202.036 183.685L201.637 182.579C201.581 182.452 201.543 182.316 201.522 182.177C201.599 182.289 201.661 182.411 201.708 182.54L202.179 183.615C202.579 184.551 203.136 185.935 203.793 187.629C205.121 191.032 206.813 195.796 208.612 201.085C210.411 206.375 212.067 211.139 213.324 214.58C213.938 216.251 214.445 217.619 214.816 218.64C214.98 219.081 215.116 219.414 215.223 219.746C215.278 219.874 215.317 220.009 215.337 220.148Z" fill="#263238"/>
<path d="M251.805 207.411C251.69 207.482 251.568 207.537 251.441 207.574L250.384 207.96L246.479 209.329C243.18 210.489 238.626 212.144 233.628 213.969C228.63 215.794 224.054 217.418 220.734 218.501C219.078 219.05 217.729 219.468 216.793 219.746L215.715 220.048C215.59 220.091 215.461 220.119 215.33 220.133C215.444 220.062 215.567 220.007 215.694 219.97L216.751 219.584L220.656 218.215C223.954 217.055 228.509 215.4 233.507 213.575C238.504 211.75 243.073 210.126 246.393 209.043C248.057 208.494 249.399 208.076 250.341 207.798L251.419 207.496C251.545 207.453 251.674 207.425 251.805 207.411Z" fill="#263238"/>
<path d="M236.926 19.8208L233.249 21.2438L231.672 16.0391C228.773 6.44194 219.535 1.34559 211.046 4.58591C202.557 7.82622 198.038 18.3515 200.937 27.9487L202.515 33.1533L198.824 34.584C197.416 35.1753 196.273 36.3314 195.632 37.812C194.991 39.2926 194.902 40.9837 195.382 42.534L205.613 76.3987C205.825 77.1661 206.178 77.8795 206.65 78.4964C207.122 79.1133 207.703 79.6211 208.36 79.9897C209.017 80.3584 209.735 80.5803 210.472 80.6422C211.21 80.7042 211.951 80.605 212.652 80.3505L250.755 65.5874C252.181 64.9971 253.34 63.8307 253.989 62.3336C254.637 60.8365 254.724 59.1254 254.232 57.5601L243.994 23.6953C243.776 22.93 243.418 22.2201 242.942 21.608C242.465 20.9959 241.879 20.494 241.22 20.1324C240.56 19.7708 239.84 19.5569 239.102 19.5033C238.365 19.4498 237.624 19.5578 236.926 19.8208ZM207.883 25.2342C207.102 22.7388 207.242 20.0126 208.275 17.6267C209.308 15.2408 211.153 13.3805 213.423 12.4354C214.545 12.0198 215.732 11.8531 216.914 11.9454C218.096 12.0376 219.249 12.3868 220.304 12.9721C221.358 13.5575 222.293 14.3669 223.053 15.3523C223.813 16.3376 224.381 17.4786 224.725 18.7072L226.296 23.9118L209.454 30.4388L207.883 25.2342ZM229.301 55.2864L231.914 63.9324C231.962 64.1058 231.947 64.2925 231.871 64.4538C231.795 64.6151 231.665 64.7386 231.507 64.7986L227.845 66.2138C227.699 66.2576 227.543 66.2385 227.41 66.1607C227.277 66.0828 227.177 65.9522 227.131 65.7962L224.497 57.1888C223.044 57.1031 221.65 56.5387 220.502 55.5713C219.354 54.6038 218.505 53.2794 218.071 51.7754C217.45 49.7871 217.564 47.6157 218.387 45.7158C219.211 43.8159 220.681 42.3348 222.49 41.5827C223.384 41.2522 224.329 41.1198 225.271 41.1934C226.212 41.2671 227.13 41.5453 227.97 42.0115C228.81 42.4777 229.555 43.1223 230.161 43.9069C230.766 44.6916 231.219 45.6002 231.493 46.5785C231.952 48.1063 231.99 49.7461 231.602 51.2969C231.214 52.8477 230.417 54.2422 229.309 55.3096L229.301 55.2864Z" fill="#FF9B5A"/>
<path d="M233.085 21.151C233.085 21.2593 226.267 24.0356 217.786 27.3378C209.304 30.64 202.386 33.2925 202.35 33.2152C202.315 33.1379 209.169 30.3383 217.657 27.0284C226.146 23.7185 233.05 21.0505 233.085 21.151Z" fill="#263238"/>
<path d="M241.182 22.5739C241.213 22.641 241.239 22.7109 241.26 22.7827C241.317 22.9374 241.381 23.1385 241.467 23.3859C241.653 23.9505 241.91 24.7315 242.231 25.706L244.973 34.352C246.115 38.0176 247.478 42.3638 248.992 47.1895C249.706 49.6101 250.548 52.1312 251.334 54.7837C251.754 56.1507 251.936 57.5904 251.869 59.0294C251.809 59.7778 251.612 60.5058 251.291 61.1716C250.948 61.8351 250.49 62.4207 249.941 62.8961C248.838 63.7683 247.614 64.4444 246.315 64.8991L242.638 66.3298L235.677 69.0288L223.89 73.576L215.93 76.6075L213.788 77.3809L213.217 77.5819C213.156 77.6114 213.09 77.6297 213.024 77.6361C213.024 77.6361 213.081 77.6361 213.202 77.5433L213.759 77.3035L215.901 76.4297L223.819 73.2744L235.584 68.6344L242.531 65.9122L246.208 64.4738C247.47 64.0376 248.659 63.382 249.727 62.5327C250.237 62.0915 250.664 61.548 250.984 60.9318C251.286 60.3161 251.468 59.6396 251.519 58.9443C251.585 57.5579 251.411 56.1703 251.005 54.8533C250.234 52.224 249.42 49.6797 248.685 47.2591C247.2 42.4257 245.829 38.064 244.744 34.3984C243.659 30.7327 242.745 27.7863 242.117 25.7137C241.817 24.7006 241.588 23.9118 241.403 23.3395L241.231 22.7208C241.21 22.674 241.193 22.6247 241.182 22.5739Z" fill="#263238"/>
<path d="M221.077 11.9095C221.077 11.9095 220.699 11.7084 219.999 11.3991C219.002 10.984 217.947 10.7539 216.879 10.7185C215.296 10.6598 213.721 10.982 212.267 11.662C210.499 12.5088 208.987 13.8785 207.905 15.6138C206.816 17.3442 206.231 19.3891 206.227 21.4835C206.242 23.2001 206.483 24.9057 206.941 26.5489C207.312 27.9564 207.698 29.0778 207.955 29.8588C208.107 30.2556 208.231 30.664 208.326 31.0807C208.123 30.7098 207.954 30.3188 207.819 29.913C207.527 29.1396 207.105 28.0415 206.691 26.6263C206.183 24.9658 205.906 23.2325 205.87 21.4835C205.851 19.31 206.449 17.1826 207.584 15.3895C208.704 13.5908 210.277 12.1788 212.117 11.3218C213.617 10.638 215.241 10.3364 216.865 10.4401C217.956 10.5004 219.028 10.7755 220.028 11.2522C220.295 11.3858 220.553 11.5409 220.799 11.7162C220.9 11.7645 220.994 11.8297 221.077 11.9095Z" fill="#263238"/>
<path d="M221.405 42.1705C221.519 42.0957 221.639 42.031 221.762 41.9771C222.12 41.8024 222.49 41.6602 222.869 41.5518C223.471 41.3594 224.091 41.2452 224.718 41.2115C225.57 41.1619 226.423 41.3014 227.224 41.6214C229.052 42.3174 230.729 44.3358 231.557 47.0348C231.955 48.4832 231.955 50.0254 231.557 51.4738C231.117 53.0458 230.328 54.477 229.259 55.6421L229.301 55.4333C230.251 58.256 231.286 61.3185 232.357 64.5124L232.421 64.7057L232.243 64.7753L230.608 65.3631L227.038 66.6546L226.86 66.7164L226.803 66.5231C225.825 63.3214 224.754 60.3363 223.947 57.4054L224.104 57.5368C222.708 57.4112 221.378 56.8438 220.277 55.9051C219.282 55.0746 218.466 54.0189 217.886 52.8117C217.362 51.7411 217.102 50.5427 217.129 49.3316C217.162 48.0938 217.447 46.8793 217.964 45.775C218.482 44.6706 219.218 43.7038 220.12 42.9438C220.492 42.6171 220.909 42.3561 221.355 42.1705C220.952 42.4296 220.561 42.711 220.185 43.0134C219.193 43.922 218.434 45.0909 217.978 46.4084C217.588 47.4019 217.405 48.4767 217.443 49.5557C217.482 50.6347 217.74 51.6912 218.2 52.6493C218.77 53.8107 219.567 54.8239 220.534 55.6189C221.584 56.5112 222.853 57.0491 224.183 57.1656H224.304L224.34 57.2816C225.125 60.1585 226.203 63.1668 227.195 66.3839L226.96 66.2602L230.529 64.9687L232.157 64.3732L232.043 64.6361C230.979 61.4422 229.951 58.372 229.009 55.5493V55.4333L229.094 55.3405C230.132 54.2237 230.906 52.8522 231.35 51.3423C231.729 49.9568 231.729 48.4822 231.35 47.0967C230.572 44.4982 228.966 42.5262 227.224 41.8302C226.453 41.5081 225.63 41.3582 224.804 41.3894C224.187 41.4047 223.574 41.4955 222.976 41.66C221.912 41.9462 221.412 42.2091 221.405 42.1705Z" fill="#263238"/>
<path d="M199.338 265.466L128.023 265.11C123.905 265.086 119.964 263.292 117.065 260.122C114.167 256.952 112.549 252.666 112.566 248.205L113.323 54.5516C113.331 52.3415 113.742 50.1548 114.531 48.1165C115.32 46.0783 116.472 44.2284 117.922 42.6728C119.371 41.1171 121.089 39.8862 122.978 39.0502C124.867 38.2143 126.889 37.7898 128.93 37.801L200.237 38.1567C204.356 38.1792 208.298 39.9714 211.197 43.1397C214.096 46.3079 215.716 50.5932 215.701 55.0543L214.945 248.7C214.936 250.911 214.526 253.098 213.737 255.137C212.948 257.177 211.796 259.027 210.347 260.584C208.898 262.141 207.18 263.374 205.291 264.211C203.402 265.049 201.379 265.475 199.338 265.466Z" fill="#455A64"/>
<path d="M200.13 44.8153H186.308C185.857 44.8244 185.412 44.9296 184.999 45.1249C184.585 45.3203 184.212 45.602 183.899 45.9539C183.586 46.3058 183.34 46.721 183.175 47.1758C183.01 47.6307 182.93 48.1162 182.938 48.6047V51.3192C182.947 51.8073 182.867 52.2925 182.702 52.7469C182.537 53.2013 182.291 53.616 181.978 53.9673C181.665 54.3185 181.291 54.5995 180.877 54.794C180.464 54.9885 180.019 55.0928 179.569 55.1008L152.625 54.9693C151.713 54.943 150.849 54.5259 150.221 53.8096C149.593 53.0933 149.253 52.1364 149.276 51.149V48.4346C149.299 47.4485 148.961 46.4927 148.335 45.7767C147.708 45.0606 146.845 44.6426 145.935 44.6143H141.073L128.972 44.5524C126.094 44.5338 123.326 45.7515 121.275 47.9387C119.223 50.1259 118.056 53.1044 118.028 56.2222L117.314 245.243C117.307 246.79 117.582 248.323 118.122 249.755C118.662 251.186 119.458 252.489 120.463 253.587C121.468 254.686 122.663 255.56 123.98 256.158C125.296 256.757 126.709 257.068 128.137 257.075L199.302 257.431C200.731 257.438 202.147 257.14 203.469 256.555C204.792 255.969 205.995 255.107 207.01 254.017C208.025 252.928 208.832 251.633 209.385 250.206C209.938 248.778 210.226 247.247 210.232 245.699L210.946 56.6784C210.963 53.5519 209.833 50.546 207.805 48.3214C205.777 46.0969 203.016 44.8358 200.13 44.8153Z" fill="white"/>
<path d="M190.556 232.212L137.639 231.965C137.09 231.965 136.647 231.315 136.654 230.526L136.711 215.531C136.711 214.758 137.161 214.093 137.711 214.093L190.628 214.356C190.932 214.413 191.205 214.595 191.388 214.865C191.572 215.134 191.652 215.47 191.613 215.802L191.563 230.782C191.563 231.578 191.106 232.22 190.556 232.212Z" fill="#FF9B5A"/>
<path d="M155.954 222.113C155.919 221.82 155.779 221.593 155.532 221.431C155.286 221.27 154.984 221.189 154.626 221.189C154.364 221.189 154.135 221.231 153.939 221.316C153.744 221.401 153.592 221.517 153.482 221.665C153.375 221.814 153.321 221.982 153.321 222.171C153.321 222.328 153.358 222.464 153.433 222.578C153.51 222.689 153.608 222.783 153.728 222.858C153.847 222.931 153.972 222.992 154.103 223.04C154.234 223.086 154.354 223.123 154.464 223.152L155.065 223.314C155.219 223.354 155.39 223.41 155.579 223.482C155.769 223.553 155.951 223.65 156.124 223.773C156.3 223.894 156.444 224.05 156.558 224.241C156.671 224.432 156.728 224.665 156.728 224.943C156.728 225.262 156.644 225.551 156.477 225.809C156.311 226.067 156.069 226.272 155.749 226.424C155.431 226.576 155.045 226.652 154.591 226.652C154.168 226.652 153.801 226.584 153.491 226.447C153.183 226.31 152.94 226.12 152.763 225.875C152.588 225.631 152.489 225.347 152.466 225.023H153.205C153.224 225.247 153.299 225.432 153.43 225.578C153.563 225.722 153.731 225.83 153.933 225.901C154.137 225.971 154.356 226.005 154.591 226.005C154.864 226.005 155.11 225.961 155.327 225.872C155.545 225.782 155.717 225.657 155.844 225.497C155.971 225.335 156.035 225.147 156.035 224.931C156.035 224.735 155.98 224.575 155.87 224.452C155.761 224.329 155.616 224.228 155.437 224.151C155.258 224.074 155.065 224.007 154.857 223.949L154.129 223.741C153.667 223.609 153.301 223.419 153.032 223.173C152.762 222.926 152.628 222.604 152.628 222.205C152.628 221.874 152.717 221.585 152.896 221.339C153.077 221.091 153.32 220.898 153.624 220.761C153.93 220.623 154.272 220.554 154.649 220.554C155.03 220.554 155.369 220.622 155.665 220.759C155.962 220.893 156.197 221.078 156.37 221.313C156.545 221.548 156.637 221.814 156.647 222.113H155.954ZM158.621 220.634V226.548H157.905V220.634H158.621ZM164.747 220.634V226.548H164.054L160.831 221.905H160.773V226.548H160.057V220.634H160.75L163.984 225.289H164.042V220.634H164.747ZM170.222 222.482C170.159 222.288 170.075 222.114 169.971 221.96C169.869 221.804 169.747 221.671 169.604 221.561C169.464 221.452 169.304 221.368 169.125 221.31C168.946 221.252 168.749 221.223 168.536 221.223C168.185 221.223 167.867 221.314 167.58 221.495C167.293 221.676 167.065 221.942 166.896 222.295C166.726 222.647 166.642 223.079 166.642 223.591C166.642 224.103 166.727 224.535 166.899 224.888C167.07 225.24 167.302 225.507 167.594 225.688C167.887 225.869 168.216 225.959 168.582 225.959C168.921 225.959 169.219 225.887 169.477 225.742C169.737 225.596 169.939 225.39 170.083 225.125C170.23 224.857 170.303 224.542 170.303 224.18L170.522 224.227H168.744V223.591H170.996V224.227C170.996 224.714 170.892 225.137 170.684 225.497C170.478 225.857 170.193 226.136 169.829 226.334C169.467 226.531 169.052 226.629 168.582 226.629C168.058 226.629 167.598 226.506 167.202 226.259C166.807 226.013 166.499 225.663 166.278 225.208C166.058 224.754 165.949 224.215 165.949 223.591C165.949 223.123 166.011 222.703 166.136 222.329C166.263 221.954 166.442 221.634 166.673 221.371C166.904 221.107 167.178 220.905 167.493 220.764C167.809 220.624 168.157 220.554 168.536 220.554C168.848 220.554 169.138 220.601 169.408 220.695C169.679 220.787 169.921 220.919 170.133 221.091C170.346 221.26 170.524 221.463 170.667 221.7C170.809 221.935 170.907 222.196 170.961 222.482H170.222ZM156.601 230.634H157.317V234.55C157.317 234.954 157.222 235.315 157.031 235.633C156.842 235.948 156.576 236.198 156.231 236.381C155.887 236.562 155.482 236.652 155.018 236.652C154.555 236.652 154.15 236.562 153.806 236.381C153.461 236.198 153.194 235.948 153.003 235.633C152.814 235.315 152.72 234.954 152.72 234.55V230.634H153.436V234.492C153.436 234.781 153.5 235.038 153.627 235.263C153.754 235.486 153.935 235.663 154.17 235.792C154.406 235.919 154.689 235.982 155.018 235.982C155.348 235.982 155.631 235.919 155.867 235.792C156.104 235.663 156.285 235.486 156.41 235.263C156.537 235.038 156.601 234.781 156.601 234.492V230.634ZM158.747 236.548V230.634H160.745C161.209 230.634 161.588 230.718 161.883 230.886C162.179 231.051 162.399 231.275 162.541 231.558C162.684 231.841 162.755 232.157 162.755 232.506C162.755 232.854 162.684 233.171 162.541 233.456C162.401 233.74 162.183 233.968 161.889 234.137C161.594 234.304 161.217 234.388 160.757 234.388H159.325V233.753H160.734C161.051 233.753 161.306 233.698 161.499 233.588C161.691 233.479 161.831 233.33 161.918 233.144C162.006 232.955 162.05 232.742 162.05 232.506C162.05 232.269 162.006 232.057 161.918 231.87C161.831 231.684 161.69 231.537 161.496 231.431C161.302 231.324 161.044 231.27 160.722 231.27H159.463V236.548H158.747Z" fill="#E8E8E3"/>
<path d="M148.194 100.38L129.832 100.29L129.817 103.94L148.179 104.03L148.194 100.38Z" fill="#FF9B5A"/>
<path opacity="0.1" d="M148.194 100.38L129.832 100.29L129.817 103.94L148.179 104.03L148.194 100.38Z" fill="black"/>
<path d="M202.022 122.792C202.166 122.776 202.308 122.739 202.443 122.683C202.641 122.6 202.813 122.457 202.939 122.273C203.065 122.088 203.141 121.869 203.157 121.639C203.157 120.41 203.157 118.616 203.157 116.311C203.157 115.159 203.157 113.867 203.157 112.444C203.157 112.096 203.157 111.733 203.157 111.369C203.204 111.017 203.133 110.658 202.957 110.356C202.859 110.212 202.731 110.094 202.584 110.012C202.436 109.93 202.273 109.887 202.108 109.885H200.994H190.678L130.964 109.645C130.811 109.642 130.66 109.679 130.523 109.753C130.387 109.827 130.269 109.936 130.179 110.07C130.006 110.373 129.941 110.732 129.993 111.083C129.993 111.857 129.993 112.63 129.993 113.403C129.993 114.95 129.993 116.497 129.993 118.043C129.993 118.817 129.993 119.59 129.993 120.363C129.964 120.724 129.964 121.086 129.993 121.446C130.031 121.6 130.1 121.744 130.197 121.864C130.294 121.985 130.414 122.08 130.55 122.142C130.691 122.203 130.841 122.232 130.993 122.227H134.627L150.483 122.32L177.327 122.498L195.425 122.652L200.344 122.714H201.622C201.915 122.714 202.058 122.714 202.058 122.714H201.622H200.344H195.425H177.327L150.483 122.622L134.627 122.552H130.993C130.793 122.561 130.593 122.524 130.407 122.444C130.219 122.357 130.052 122.225 129.919 122.057C129.785 121.889 129.688 121.691 129.636 121.477C129.595 121.274 129.581 121.066 129.593 120.858V120.286C129.593 119.513 129.593 118.739 129.593 117.966C129.593 116.419 129.593 114.873 129.593 113.326C129.593 112.553 129.593 111.779 129.593 111.006C129.58 110.8 129.58 110.593 129.593 110.387C129.62 110.16 129.701 109.944 129.829 109.761C129.952 109.574 130.115 109.422 130.304 109.319C130.493 109.215 130.702 109.162 130.914 109.165L190.628 109.521L200.944 109.598H202.058C202.254 109.599 202.447 109.65 202.621 109.748C202.795 109.847 202.945 109.989 203.057 110.163C203.259 110.499 203.34 110.903 203.286 111.3C203.286 111.663 203.286 112.027 203.286 112.375C203.286 113.782 203.286 115.074 203.286 116.241C203.286 118.561 203.236 120.34 203.222 121.578C203.204 121.815 203.124 122.043 202.991 122.233C202.859 122.424 202.678 122.569 202.472 122.652C202.337 122.743 202.181 122.791 202.022 122.792Z" fill="#E0E0E0"/>
<path d="M168.931 113.527H135.348V116.937H168.931V113.527Z" fill="#FF9B5A"/>
<path opacity="0.2" d="M168.931 113.527H135.348V116.937H168.931V113.527Z" fill="white"/>
<path d="M148.069 133.679L129.707 133.589L129.692 137.239L148.054 137.33L148.069 133.679Z" fill="#FF9B5A"/>
<path opacity="0.1" d="M148.069 133.679L129.707 133.589L129.692 137.239L148.054 137.33L148.069 133.679Z" fill="black"/>
<path d="M201.558 156.092C201.702 156.073 201.845 156.044 201.986 156.007C202.186 155.938 202.369 155.824 202.524 155.672C202.68 155.52 202.803 155.333 202.886 155.125C202.998 154.813 203.042 154.477 203.014 154.143C203.014 153.772 203.014 153.37 203.014 152.921C203.014 152.024 203.014 151.003 203.014 149.828V144.917C203.049 144.561 202.976 144.204 202.807 143.896C202.631 143.581 202.354 143.347 202.029 143.239C201.674 143.17 201.312 143.149 200.951 143.177H190.678L131.171 142.937C130.851 142.938 130.542 143.065 130.302 143.294C130.062 143.523 129.906 143.839 129.865 144.182C129.865 144.917 129.865 145.729 129.865 146.502C129.865 148.049 129.865 149.596 129.865 151.142C129.865 151.916 129.865 152.689 129.865 153.462C129.838 153.824 129.853 154.188 129.908 154.545C129.997 154.859 130.18 155.131 130.429 155.319C130.692 155.5 131.002 155.586 131.314 155.566H132.306H134.37L150.169 155.651L176.92 155.829L194.954 155.984L199.859 156.045H201.137H201.565H201.137H199.859H194.954H176.92L150.155 156.015L134.355 155.953H131.25C130.864 155.977 130.48 155.866 130.157 155.636C129.833 155.392 129.596 155.034 129.486 154.623C129.422 154.23 129.403 153.83 129.429 153.432C129.429 152.658 129.429 151.885 129.429 151.112C129.429 149.565 129.429 148.018 129.429 146.471C129.429 145.698 129.429 144.925 129.429 144.151C129.481 143.709 129.68 143.303 129.989 143.008C130.298 142.713 130.695 142.551 131.107 142.551L190.613 142.906L200.887 142.991C201.27 142.966 201.653 142.995 202.029 143.076C202.4 143.208 202.713 143.483 202.907 143.85C203.092 144.19 203.172 144.586 203.136 144.979C203.136 145.342 203.136 145.698 203.136 146.054C203.136 147.454 203.136 148.737 203.136 149.921C203.136 151.104 203.136 152.101 203.136 153.014C203.136 153.455 203.136 153.865 203.136 154.244C203.162 154.589 203.11 154.937 202.986 155.257C202.893 155.47 202.759 155.659 202.593 155.811C202.427 155.964 202.232 156.075 202.022 156.138C201.866 156.152 201.709 156.137 201.558 156.092Z" fill="#E0E0E0"/>
<path d="M147.931 168.425L129.569 168.335L129.553 171.985L147.916 172.075L147.931 168.425Z" fill="#FF9B5A"/>
<path opacity="0.1" d="M147.931 168.425L129.569 168.335L129.553 171.985L147.916 172.075L147.931 168.425Z" fill="black"/>
<path d="M201.415 190.823C201.559 190.804 201.703 190.776 201.844 190.738C202.042 190.669 202.225 190.556 202.38 190.406C202.535 190.255 202.659 190.07 202.743 189.864C202.855 189.552 202.899 189.216 202.872 188.882C202.872 188.503 202.872 188.108 202.872 187.652C202.872 186.763 202.872 185.734 202.872 184.559V179.648C202.906 179.293 202.833 178.935 202.665 178.627C202.484 178.318 202.209 178.088 201.886 177.978C201.531 177.906 201.169 177.883 200.808 177.908H190.535L131.028 177.668C130.708 177.669 130.399 177.796 130.159 178.025C129.919 178.254 129.763 178.57 129.722 178.913C129.722 179.687 129.722 180.46 129.722 181.233C129.722 182.78 129.722 184.327 129.722 185.873C129.722 186.647 129.722 187.42 129.722 188.194C129.695 188.552 129.71 188.913 129.765 189.268C129.85 189.584 130.034 189.857 130.286 190.042C130.548 190.227 130.859 190.314 131.171 190.289H134.277L150.076 190.382L176.827 190.56L194.861 190.715L199.766 190.776H201.044C201.33 190.776 201.472 190.776 201.472 190.776C201.472 190.776 201.33 190.776 201.044 190.776H199.766H194.861H176.827L150.076 190.691L134.277 190.622H131.171C130.785 190.65 130.4 190.539 130.079 190.305C129.754 190.061 129.517 189.703 129.408 189.292C129.344 188.899 129.325 188.499 129.351 188.101C129.351 187.327 129.351 186.554 129.351 185.781C129.351 184.234 129.351 182.687 129.351 181.141C129.351 180.367 129.351 179.594 129.351 178.782C129.401 178.34 129.599 177.934 129.906 177.639C130.214 177.344 130.61 177.181 131.021 177.181L190.528 177.537L200.801 177.622C201.184 177.596 201.568 177.625 201.943 177.707C202.314 177.838 202.627 178.114 202.822 178.48C203.006 178.821 203.086 179.216 203.05 179.609C203.05 179.973 203.05 180.336 203.05 180.684C203.05 182.084 203.05 183.368 203.05 184.551C203.05 185.734 203.05 186.732 203.05 187.644C203.05 188.085 203.05 188.495 203.05 188.874C203.077 189.22 203.026 189.568 202.9 189.887C202.807 190.101 202.673 190.29 202.507 190.442C202.341 190.594 202.146 190.706 201.936 190.769C201.769 190.831 201.59 190.849 201.415 190.823Z" fill="#E0E0E0"/>
<path d="M168.214 147.791L134.631 147.626L134.617 151.037L168.2 151.202L168.214 147.791Z" fill="#FF9B5A"/>
<path opacity="0.2" d="M168.214 147.791L134.631 147.626L134.617 151.037L168.2 151.202L168.214 147.791Z" fill="white"/>
<path d="M137.668 184.512C137.647 184.823 137.542 185.121 137.366 185.368C137.19 185.615 136.952 185.801 136.679 185.902C136.407 186.004 136.113 186.016 135.834 185.939C135.556 185.861 135.304 185.696 135.111 185.465C134.917 185.233 134.791 184.946 134.748 184.638C134.704 184.329 134.745 184.014 134.865 183.73C134.985 183.447 135.18 183.208 135.424 183.043C135.668 182.878 135.952 182.795 136.24 182.803C136.638 182.827 137.011 183.02 137.278 183.34C137.545 183.66 137.685 184.081 137.668 184.512Z" fill="#FF9B5A"/>
<path d="M142.216 184.536C142.23 184.754 142.203 184.972 142.135 185.178C142.068 185.384 141.962 185.573 141.825 185.733C141.687 185.893 141.52 186.02 141.335 186.107C141.15 186.195 140.951 186.24 140.749 186.24C140.547 186.24 140.348 186.195 140.163 186.107C139.978 186.02 139.811 185.893 139.673 185.733C139.536 185.573 139.43 185.384 139.363 185.178C139.295 184.972 139.268 184.754 139.282 184.536C139.268 184.318 139.295 184.099 139.363 183.893C139.43 183.687 139.536 183.498 139.673 183.338C139.811 183.178 139.978 183.051 140.163 182.964C140.348 182.877 140.547 182.832 140.749 182.832C140.951 182.832 141.15 182.877 141.335 182.964C141.52 183.051 141.687 183.178 141.825 183.338C141.962 183.498 142.068 183.687 142.135 183.893C142.203 184.099 142.23 184.318 142.216 184.536Z" fill="#FF9B5A"/>
<path d="M146.77 184.559C146.749 184.87 146.645 185.167 146.469 185.414C146.293 185.662 146.054 185.847 145.782 185.949C145.51 186.05 145.216 186.063 144.937 185.985C144.658 185.907 144.406 185.742 144.213 185.511C144.02 185.28 143.894 184.992 143.85 184.684C143.806 184.376 143.847 184.06 143.967 183.777C144.088 183.493 144.282 183.255 144.527 183.09C144.771 182.925 145.055 182.841 145.343 182.85C145.74 182.876 146.112 183.069 146.378 183.389C146.645 183.708 146.786 184.128 146.77 184.559Z" fill="#FF9B5A"/>
<path d="M151.319 184.582C151.298 184.893 151.193 185.191 151.017 185.438C150.841 185.685 150.602 185.87 150.33 185.972C150.058 186.073 149.764 186.086 149.485 186.008C149.206 185.93 148.955 185.766 148.761 185.534C148.568 185.303 148.442 185.015 148.398 184.707C148.354 184.399 148.395 184.083 148.516 183.8C148.636 183.517 148.83 183.278 149.075 183.113C149.319 182.948 149.603 182.865 149.891 182.873C150.288 182.899 150.66 183.092 150.927 183.412C151.194 183.731 151.334 184.151 151.319 184.582Z" fill="#FF9B5A"/>
<path d="M155.866 184.597C155.847 184.909 155.743 185.207 155.568 185.456C155.393 185.704 155.155 185.891 154.882 185.993C154.61 186.096 154.316 186.109 154.037 186.033C153.757 185.956 153.505 185.791 153.311 185.56C153.117 185.329 152.99 185.041 152.946 184.733C152.902 184.424 152.942 184.109 153.062 183.825C153.182 183.541 153.377 183.301 153.622 183.136C153.866 182.971 154.15 182.888 154.439 182.896C154.834 182.922 155.205 183.114 155.472 183.432C155.739 183.75 155.88 184.168 155.866 184.597Z" fill="#FF9B5A"/>
<path d="M160.421 184.621C160.402 184.931 160.299 185.228 160.126 185.475C159.952 185.723 159.716 185.91 159.446 186.014C159.176 186.118 158.883 186.134 158.605 186.06C158.326 185.986 158.073 185.826 157.878 185.598C157.682 185.371 157.552 185.087 157.504 184.781C157.456 184.475 157.491 184.16 157.606 183.875C157.721 183.59 157.91 183.348 158.15 183.178C158.39 183.009 158.671 182.918 158.958 182.919C159.36 182.935 159.74 183.124 160.014 183.442C160.288 183.761 160.435 184.185 160.421 184.621Z" fill="#FF9B5A"/>
<path d="M164.969 184.644C164.983 184.862 164.955 185.081 164.888 185.287C164.821 185.493 164.715 185.681 164.577 185.841C164.44 186.001 164.273 186.129 164.088 186.216C163.903 186.303 163.703 186.348 163.502 186.348C163.3 186.348 163.1 186.303 162.915 186.216C162.73 186.129 162.564 186.001 162.426 185.841C162.289 185.681 162.183 185.493 162.115 185.287C162.048 185.081 162.021 184.862 162.035 184.644C162.021 184.426 162.048 184.207 162.115 184.001C162.183 183.795 162.289 183.606 162.426 183.446C162.564 183.287 162.73 183.159 162.915 183.072C163.1 182.985 163.3 182.94 163.502 182.94C163.703 182.94 163.903 182.985 164.088 183.072C164.273 183.159 164.44 183.287 164.577 183.446C164.715 183.606 164.821 183.795 164.888 184.001C164.955 184.207 164.983 184.426 164.969 184.644Z" fill="#FF9B5A"/>
<path d="M169.517 184.667C169.497 184.977 169.395 185.274 169.221 185.521C169.048 185.769 168.812 185.956 168.541 186.06C168.271 186.164 167.979 186.18 167.7 186.106C167.422 186.033 167.169 185.872 166.974 185.645C166.778 185.418 166.648 185.133 166.6 184.827C166.552 184.521 166.587 184.206 166.702 183.921C166.816 183.637 167.005 183.395 167.246 183.225C167.486 183.055 167.767 182.965 168.053 182.966C168.455 182.982 168.835 183.17 169.11 183.489C169.384 183.808 169.53 184.231 169.517 184.667Z" fill="#FF9B5A"/>
<path d="M174.064 184.69C174.044 185.002 173.941 185.3 173.766 185.548C173.591 185.797 173.352 185.984 173.08 186.086C172.808 186.189 172.514 186.202 172.234 186.125C171.955 186.048 171.703 185.884 171.509 185.653C171.315 185.422 171.188 185.134 171.144 184.826C171.099 184.517 171.14 184.201 171.26 183.917C171.38 183.634 171.575 183.394 171.819 183.229C172.064 183.064 172.348 182.981 172.636 182.989C173.032 183.015 173.403 183.207 173.67 183.525C173.936 183.843 174.078 184.261 174.064 184.69Z" fill="#FF9B5A"/>
<g opacity="0.2">
<path d="M137.668 184.512C137.647 184.823 137.542 185.121 137.366 185.368C137.19 185.615 136.952 185.801 136.679 185.902C136.407 186.004 136.113 186.016 135.834 185.939C135.556 185.861 135.304 185.696 135.111 185.465C134.917 185.233 134.791 184.946 134.748 184.638C134.704 184.329 134.745 184.014 134.865 183.73C134.985 183.447 135.18 183.208 135.424 183.043C135.668 182.878 135.952 182.795 136.24 182.803C136.638 182.827 137.011 183.02 137.278 183.34C137.545 183.66 137.685 184.081 137.668 184.512Z" fill="white"/>
<path d="M142.216 184.536C142.23 184.754 142.202 184.972 142.135 185.178C142.068 185.384 141.962 185.573 141.824 185.733C141.687 185.893 141.52 186.02 141.335 186.107C141.15 186.195 140.951 186.24 140.749 186.24C140.547 186.24 140.347 186.195 140.162 186.107C139.977 186.02 139.811 185.893 139.673 185.733C139.536 185.573 139.43 185.384 139.362 185.178C139.295 184.972 139.268 184.754 139.282 184.536C139.268 184.318 139.295 184.099 139.362 183.893C139.43 183.687 139.536 183.498 139.673 183.338C139.811 183.178 139.977 183.051 140.162 182.964C140.347 182.877 140.547 182.832 140.749 182.832C140.951 182.832 141.15 182.877 141.335 182.964C141.52 183.051 141.687 183.178 141.824 183.338C141.962 183.498 142.068 183.687 142.135 183.893C142.202 184.099 142.23 184.318 142.216 184.536Z" fill="white"/>
<path d="M146.77 184.559C146.749 184.87 146.645 185.167 146.469 185.414C146.293 185.662 146.054 185.847 145.782 185.949C145.51 186.05 145.216 186.063 144.937 185.985C144.658 185.907 144.406 185.742 144.213 185.511C144.02 185.28 143.894 184.992 143.85 184.684C143.806 184.376 143.847 184.06 143.967 183.777C144.088 183.493 144.282 183.255 144.527 183.09C144.771 182.925 145.055 182.841 145.343 182.85C145.74 182.876 146.112 183.069 146.378 183.389C146.645 183.708 146.786 184.128 146.77 184.559Z" fill="white"/>
<path d="M151.318 184.582C151.297 184.893 151.192 185.191 151.017 185.438C150.841 185.685 150.602 185.87 150.33 185.972C150.057 186.073 149.764 186.086 149.485 186.008C149.206 185.93 148.954 185.766 148.761 185.534C148.568 185.303 148.442 185.015 148.398 184.707C148.354 184.399 148.395 184.083 148.515 183.8C148.636 183.517 148.83 183.278 149.074 183.113C149.319 182.948 149.603 182.865 149.89 182.873C150.288 182.899 150.659 183.092 150.926 183.412C151.193 183.731 151.334 184.151 151.318 184.582Z" fill="white"/>
<path d="M155.866 184.597C155.847 184.909 155.743 185.207 155.568 185.456C155.393 185.704 155.155 185.891 154.882 185.993C154.61 186.096 154.316 186.109 154.037 186.032C153.757 185.955 153.505 185.791 153.311 185.56C153.117 185.329 152.99 185.041 152.946 184.733C152.902 184.424 152.942 184.108 153.062 183.825C153.182 183.541 153.377 183.301 153.622 183.136C153.866 182.971 154.15 182.888 154.439 182.896C154.834 182.922 155.205 183.114 155.472 183.432C155.739 183.75 155.88 184.168 155.866 184.597Z" fill="white"/>
<path d="M160.421 184.621C160.402 184.931 160.299 185.228 160.126 185.475C159.952 185.723 159.716 185.91 159.446 186.014C159.176 186.118 158.883 186.134 158.605 186.06C158.326 185.986 158.073 185.826 157.878 185.598C157.682 185.371 157.552 185.087 157.504 184.781C157.456 184.475 157.491 184.16 157.606 183.875C157.721 183.59 157.91 183.348 158.15 183.178C158.39 183.009 158.671 182.918 158.958 182.919C159.36 182.935 159.74 183.124 160.014 183.442C160.288 183.761 160.435 184.185 160.421 184.621Z" fill="white"/>
<path d="M164.969 184.644C164.983 184.862 164.955 185.081 164.888 185.287C164.821 185.493 164.715 185.681 164.577 185.841C164.44 186.001 164.273 186.129 164.088 186.216C163.903 186.303 163.703 186.348 163.502 186.348C163.3 186.348 163.1 186.303 162.915 186.216C162.73 186.129 162.564 186.001 162.426 185.841C162.289 185.681 162.183 185.493 162.115 185.287C162.048 185.081 162.021 184.862 162.035 184.644C162.021 184.426 162.048 184.207 162.115 184.001C162.183 183.795 162.289 183.606 162.426 183.446C162.564 183.287 162.73 183.159 162.915 183.072C163.1 182.985 163.3 182.94 163.502 182.94C163.703 182.94 163.903 182.985 164.088 183.072C164.273 183.159 164.44 183.287 164.577 183.446C164.715 183.606 164.821 183.795 164.888 184.001C164.955 184.207 164.983 184.426 164.969 184.644Z" fill="white"/>
<path d="M169.516 184.667C169.497 184.977 169.394 185.274 169.221 185.521C169.048 185.769 168.811 185.956 168.541 186.06C168.271 186.164 167.978 186.18 167.7 186.106C167.421 186.033 167.169 185.872 166.973 185.645C166.778 185.418 166.648 185.133 166.599 184.827C166.551 184.521 166.586 184.206 166.701 183.921C166.816 183.637 167.005 183.395 167.245 183.225C167.485 183.055 167.766 182.965 168.053 182.966C168.455 182.982 168.835 183.17 169.109 183.489C169.383 183.808 169.53 184.231 169.516 184.667Z" fill="white"/>
<path d="M174.064 184.69C174.044 185.002 173.941 185.3 173.766 185.548C173.591 185.797 173.352 185.984 173.08 186.086C172.808 186.189 172.514 186.202 172.234 186.125C171.955 186.048 171.703 185.884 171.509 185.653C171.315 185.422 171.188 185.134 171.144 184.826C171.099 184.517 171.14 184.201 171.26 183.917C171.38 183.634 171.575 183.394 171.819 183.229C172.064 183.064 172.348 182.981 172.636 182.989C173.032 183.015 173.403 183.207 173.67 183.525C173.936 183.843 174.078 184.261 174.064 184.69Z" fill="white"/>
</g>
<path d="M167.603 73.0501C168.099 72.8135 168.52 72.4242 168.813 71.9306C169.107 71.4369 169.259 70.8608 169.253 70.2738C169.271 69.8922 169.218 69.5106 169.096 69.1521C168.974 68.7936 168.785 68.4658 168.543 68.1887C168.3 67.9115 168.007 67.6908 167.683 67.54C167.359 67.3891 167.01 67.3113 166.658 67.3113C166.305 67.3113 165.956 67.3891 165.632 67.54C165.308 67.6908 165.015 67.9115 164.772 68.1887C164.53 68.4658 164.341 68.7936 164.219 69.1521C164.097 69.5106 164.044 69.8922 164.062 70.2738C164.051 70.8666 164.203 71.4497 164.498 71.9493C164.793 72.4489 165.217 72.8428 165.719 73.0811C161.721 73.7307 161.899 78.4326 161.899 78.4326L171.352 78.479C171.352 78.479 171.573 73.692 167.603 73.0501Z" fill="#FF9B5A"/>
<path opacity="0.1" d="M167.603 73.0501C168.099 72.8135 168.52 72.4242 168.813 71.9306C169.107 71.4369 169.259 70.8608 169.253 70.2738C169.271 69.8922 169.218 69.5106 169.096 69.1521C168.974 68.7936 168.785 68.4658 168.543 68.1887C168.3 67.9115 168.007 67.6908 167.683 67.54C167.359 67.3891 167.01 67.3113 166.658 67.3113C166.305 67.3113 165.956 67.3891 165.632 67.54C165.308 67.6908 165.015 67.9115 164.772 68.1887C164.53 68.4658 164.341 68.7936 164.219 69.1521C164.097 69.5106 164.044 69.8922 164.062 70.2738C164.051 70.8666 164.203 71.4497 164.498 71.9493C164.793 72.4489 165.217 72.8428 165.719 73.0811C161.721 73.7307 161.899 78.4326 161.899 78.4326L171.352 78.479C171.352 78.479 171.573 73.692 167.603 73.0501Z" fill="black"/>
<path d="M182.963 81.5117L149.273 81.3461L149.255 85.7077L182.945 85.8733L182.963 81.5117Z" fill="#FF9B5A"/>
<path opacity="0.2" d="M182.963 81.5117L149.273 81.3461L149.255 85.7077L182.945 85.8733L182.963 81.5117Z" fill="white"/>
<path d="M59.1065 104.115H58.771L57.8 104.193C57.2746 104.227 56.7521 104.302 56.2365 104.417C55.9026 104.468 55.5713 104.538 55.2441 104.626L54.1375 104.958C52.2541 105.584 50.477 106.538 48.8758 107.781C46.7604 109.444 44.9939 111.574 43.6927 114.03C42.9279 115.445 42.3192 116.953 41.8793 118.523C41.417 120.229 41.1508 121.99 41.0868 123.766C41.0443 124.699 41.0586 125.634 41.1297 126.566C41.1297 127.037 41.251 127.509 41.3081 127.989C41.3562 128.472 41.4397 128.95 41.558 129.419C42.2 132.523 43.5026 135.42 45.3619 137.881C47.2213 140.343 49.5858 142.299 52.267 143.595C54.2076 144.502 56.2875 145.008 58.3997 145.087C60.5813 145.217 62.7651 144.878 64.8251 144.09L65.4534 143.834H65.5391L65.6105 143.881L74.6132 148.83L74.349 149.078C73.3852 145.845 72.4571 142.713 71.5575 139.705V139.589L71.6361 139.504C73.82 137.121 75.4412 134.203 76.3623 130.997C77.1966 128.066 77.44 124.975 77.0763 121.933C76.7527 119.23 75.9503 116.62 74.7131 114.246C73.6467 112.207 72.271 110.377 70.6437 108.833C69.3011 107.61 67.8152 106.586 66.2245 105.786C65.0208 105.224 63.7673 104.796 62.4834 104.51L61.0556 104.255L60.0204 104.17L59.3921 104.123H59.1779C59.2491 104.115 59.3209 104.115 59.3921 104.123H60.0275L61.0627 104.17L62.4906 104.394C63.7904 104.659 65.0611 105.071 66.2816 105.623C67.8996 106.414 69.4124 107.436 70.7794 108.663C72.4366 110.2 73.8415 112.03 74.9345 114.076C76.2067 116.475 77.0337 119.121 77.369 121.864C77.7629 124.952 77.5365 128.097 76.705 131.082C75.7779 134.355 74.1316 137.335 71.9074 139.767L71.9502 139.566C72.8498 142.574 73.785 145.706 74.756 148.931L74.8916 149.403L74.4847 149.178L65.482 144.237H65.639L64.9965 144.492C62.8968 145.292 60.6726 145.639 58.4497 145.513C56.292 145.424 54.1685 144.899 52.1885 143.966C48.4116 142.214 45.2692 139.168 43.2429 135.297C42.3104 133.509 41.6295 131.58 41.2225 129.574C41.111 129.093 41.0276 128.605 40.9726 128.112C40.9155 127.625 40.8227 127.146 40.8012 126.666C40.608 123.914 40.8765 121.148 41.5937 118.5C42.0446 116.909 42.6702 115.382 43.4571 113.952C44.7894 111.474 46.5926 109.331 48.7473 107.665C50.3748 106.418 52.1818 105.472 54.0947 104.866L55.2156 104.556C55.5455 104.473 55.8791 104.409 56.2151 104.363C56.736 104.258 57.2634 104.196 57.7929 104.177L58.771 104.139C58.8822 104.122 58.9943 104.115 59.1065 104.115Z" fill="#FF9B5A"/>
<path d="M63.1761 122.15H61.8554L58.9996 117.804V114.95C58.9996 114.95 56.9578 114.811 57.2005 118.546C57.4432 122.281 57.2005 121.33 57.2005 121.33C57.2005 121.33 52.8669 121.33 52.51 121.755C52.153 122.181 52.1316 126.713 52.0816 129.241C52.0542 129.851 52.2157 130.453 52.5404 130.952C52.8651 131.451 53.3343 131.818 53.8736 131.995C54.0247 132.04 54.1808 132.063 54.3376 132.064C55.4228 132.064 60.9415 131.113 60.9415 131.113H63.219L63.1761 122.15Z" fill="#FF9B5A"/>
<path d="M66.9527 121.384L66.1388 131.159H63.8828V121.585L66.9527 121.384Z" fill="#FF9B5A"/>
<path d="M93.8609 320.389V313.777L82.9163 313.692L82.8235 323.691L83.5017 323.746C86.5217 323.954 98.8656 324.264 100.893 323.583C103.149 322.825 93.8609 320.389 93.8609 320.389Z" fill="#FF9B5A"/>
<path d="M101.15 322.964C101.15 323.073 97.0524 323.165 92.0049 323.165C86.9574 323.165 82.8594 323.073 82.8594 322.964C82.8594 322.856 86.9574 322.763 92.0049 322.763C97.0524 322.763 101.15 322.856 101.15 322.964Z" fill="#263238"/>
<path d="M94.0538 321.743C93.961 321.688 94.0538 321.34 94.2751 320.969C94.4965 320.598 94.7963 320.443 94.8677 320.521C94.9391 320.598 94.7892 320.892 94.575 321.209C94.3608 321.526 94.1466 321.797 94.0538 321.743Z" fill="#263238"/>
<path d="M94.7531 322.176C94.6531 322.176 94.7031 321.742 94.9173 321.333C95.1315 320.923 95.417 320.675 95.4956 320.737C95.5741 320.799 95.4456 321.147 95.2457 321.511C95.0458 321.874 94.8459 322.214 94.7531 322.176Z" fill="#263238"/>
<path d="M86.1576 322.933C86.1148 322.933 85.9506 322.794 85.715 322.5C85.4274 322.123 85.107 321.776 84.7583 321.464C84.4154 321.167 84.0068 320.973 83.5731 320.9C83.2376 320.853 83.0234 320.9 83.002 320.853C82.9806 320.807 83.1876 320.644 83.5803 320.613C84.0985 320.602 84.604 320.788 85.0082 321.139C85.3868 321.474 85.7061 321.88 85.9506 322.338C86.1148 322.678 86.2004 322.903 86.1576 322.933Z" fill="#263238"/>
<path d="M94.0893 320.498C94.1392 320.59 93.9536 320.822 93.6395 320.946C93.3253 321.07 93.0469 321.023 93.0326 320.946C93.0184 320.869 93.2397 320.706 93.511 320.598C93.7823 320.49 94.0321 320.405 94.0893 320.498Z" fill="#263238"/>
<path d="M93.9183 319.856C93.9183 319.972 93.6327 320.064 93.2614 320.072C92.8902 320.08 92.5975 319.987 92.6046 319.879C92.6118 319.77 92.9045 319.67 93.2614 319.662C93.6184 319.654 93.904 319.747 93.9183 319.856Z" fill="#263238"/>
<path d="M120.812 320.389V313.777L109.867 313.692L109.775 323.591L110.453 323.645C113.473 323.854 125.824 324.264 127.844 323.583C130.1 322.825 120.812 320.389 120.812 320.389Z" fill="#FF9B5A"/>
<path d="M128.101 322.98C128.101 323.088 124.01 323.181 118.956 323.181C113.901 323.181 109.817 323.088 109.817 322.98C109.817 322.872 113.908 322.779 118.956 322.779C124.003 322.779 128.101 322.872 128.101 322.98Z" fill="#263238"/>
<path d="M121.005 321.743C120.919 321.688 121.005 321.34 121.226 320.969C121.448 320.598 121.747 320.443 121.819 320.521C121.89 320.598 121.74 320.892 121.526 321.209C121.312 321.526 121.098 321.797 121.005 321.743Z" fill="#263238"/>
<path d="M121.704 322.176C121.612 322.176 121.655 321.742 121.876 321.333C122.097 320.923 122.376 320.675 122.454 320.737C122.533 320.799 122.397 321.147 122.197 321.511C121.997 321.874 121.804 322.214 121.704 322.176Z" fill="#263238"/>
<path d="M113.109 322.933C113.066 322.933 112.909 322.794 112.666 322.5C112.378 322.123 112.058 321.776 111.709 321.464C111.366 321.167 110.958 320.973 110.524 320.9C110.196 320.853 109.974 320.9 109.953 320.853C109.932 320.807 110.139 320.644 110.531 320.613C111.049 320.602 111.555 320.788 111.959 321.139C112.34 321.471 112.659 321.878 112.901 322.338C113.066 322.678 113.151 322.903 113.109 322.933Z" fill="#263238"/>
<path d="M121.04 320.498C121.09 320.59 120.905 320.822 120.591 320.946C120.277 321.07 119.998 321.023 119.984 320.946C119.97 320.869 120.191 320.706 120.462 320.598C120.733 320.49 120.983 320.405 121.04 320.498Z" fill="#263238"/>
<path d="M120.884 319.856C120.884 319.972 120.598 320.064 120.227 320.072C119.855 320.08 119.57 319.987 119.577 319.879C119.584 319.77 119.87 319.67 120.227 319.662C120.584 319.654 120.884 319.747 120.884 319.856Z" fill="#263238"/>
<path d="M161.135 124.037C160.849 123.72 160.143 123.874 160.143 123.874C160.213 123.429 160.213 122.974 160.143 122.529C160.014 122.096 159.114 122.181 159.114 122.181C159.073 121.816 159.073 121.447 159.114 121.083C159.122 121.002 159.106 120.921 159.069 120.85C159.031 120.779 158.975 120.723 158.907 120.688C158.482 120.5 158.025 120.411 157.565 120.425C157.015 120 159.243 116.62 160.071 115.538C160.899 114.455 160.749 113.612 160.014 113.612C159.507 113.612 156.908 116.86 156.109 117.951C155.309 119.041 153.189 122.073 153.117 119.652C153.046 117.231 152.146 115.406 151.582 115.097C151.018 114.788 150.419 115.515 150.726 116.187C150.995 116.952 151.164 117.754 151.225 118.569C151.303 119.219 151.276 119.878 151.147 120.518C150.91 121.709 150.588 122.877 150.183 124.014H150.126C150.126 124.014 134.548 140.2 133.42 141.352C132.413 142.388 112.166 140.122 108.104 139.658C106.723 139.44 105.33 139.336 103.934 139.349C102.171 139.434 101.857 139.705 100.101 139.728C95.6653 139.781 91.2402 140.203 86.8643 140.989C84.8829 141.353 83.032 142.301 81.5137 143.727C79.9953 145.154 78.8678 147.005 78.2542 149.078C74.1634 162.921 64.8965 195.687 63.2616 214.093C62.0262 216.52 60.9109 219.016 59.9204 221.571C58.7709 224.958 59.0494 225.074 59.4349 225.152C60.4773 225.361 61.6624 219.282 62.105 220.751C62.5477 222.221 59.8561 227.998 60.9485 228.168C62.3763 228.384 63.5115 221.981 63.6471 221.471C63.7828 220.96 64.4896 221.123 64.3611 221.602C64.154 222.283 62.1479 229.498 63.5472 229.73C64.3182 229.854 64.4039 228.33 64.4039 228.33C64.4039 228.33 65.8318 221.424 66.4814 221.563C67.1311 221.703 66.4386 225.778 66.1102 227.139C65.7818 228.5 66.2387 229.189 66.9098 228.856C67.3667 228.624 68.459 224.487 68.7589 223.141C69.0588 221.795 69.8084 218.068 70.815 220.226C71.8217 222.383 73.3495 223.636 73.9778 223.667C74.1193 223.649 74.2528 223.586 74.3609 223.486C74.4691 223.385 74.547 223.252 74.5846 223.103C74.6222 222.954 74.6178 222.796 74.572 222.65C74.5262 222.504 74.4411 222.376 74.3276 222.283C73.7872 221.711 73.3234 221.06 72.9497 220.349C72.6166 219.795 72.3751 219.183 72.2358 218.54C71.9481 217.257 71.7806 215.946 71.736 214.626L71.6218 213.853C73.221 205.277 77.8259 180.104 84.4726 164.027L87.1998 170.105L88.385 174.606L81.1171 194.04L112.116 193.599L107.49 174.312L113.109 154.205C119.184 154.352 134.784 154.599 137.382 153.323C140.652 151.777 157.565 128.638 157.565 128.638C158.668 127.71 159.723 126.719 160.728 125.669C160.728 125.669 161.756 124.733 161.135 124.037Z" fill="#FFBE9D"/>
<path d="M79.7535 179.679C80.653 176.354 85.2722 159.912 85.2722 159.912C85.2722 159.912 87.5425 173.314 86.9428 174.931C86.3912 176.314 85.7394 177.649 84.9938 178.921C79.7535 187.559 80.4389 191.882 80.4389 191.882L112.102 190.838C112.173 186.044 109.553 174.892 109.011 173.113C108.468 171.335 110.274 165.511 110.274 165.511C110.274 165.511 113.844 161.575 113.715 159.549C113.648 157.729 113.44 155.918 113.094 154.135L132.37 154.909L131.764 140.757L104.077 137.756C103.113 140.702 94.3963 139.256 94.3963 139.256C84.9866 139.597 84.4012 141.468 80.4888 144.762C76.5765 148.057 70.1011 176.33 70.1011 176.33L79.7535 179.679Z" fill="#FF9B5A"/>
<path d="M98.4731 176.33C97.9244 176.437 97.3655 176.468 96.8096 176.423C95.7744 176.423 94.3537 176.346 92.7902 176.176C91.2267 176.006 89.8131 175.766 88.8064 175.549C88.2514 175.472 87.7071 175.321 87.1858 175.101C87.744 175.101 88.3009 175.158 88.8493 175.271C89.863 175.41 91.2695 175.603 92.8259 175.774C94.3822 175.944 95.7958 176.06 96.8168 176.137C97.3733 176.145 97.9279 176.209 98.4731 176.33Z" fill="#263238"/>
<path d="M100.643 173.415C100.094 173.706 99.5138 173.922 98.9154 174.057C96.0671 174.868 93.1284 175.245 90.184 175.178C89.5747 175.2 88.9654 175.137 88.3706 174.993C88.9719 174.91 89.5781 174.877 90.184 174.892C91.3049 174.853 92.847 174.768 94.5461 174.552C96.2453 174.335 97.7588 174.026 98.8297 173.778C99.4246 173.606 100.031 173.485 100.643 173.415Z" fill="#263238"/>
<path d="M111.295 160.407C111.281 160.997 111.207 161.583 111.074 162.155C110.888 163.23 110.603 164.699 110.239 166.308C109.875 167.916 109.525 169.401 109.211 170.407C109.084 170.982 108.898 171.54 108.654 172.069C108.694 171.481 108.794 170.9 108.954 170.337C109.225 169.131 109.532 167.739 109.875 166.215C110.217 164.692 110.546 163.3 110.817 162.093C110.914 161.512 111.074 160.946 111.295 160.407Z" fill="#263238"/>
<path d="M80.089 177.707C78.4373 177.431 76.8073 177.02 75.2128 176.477C73.5835 176.065 71.9847 175.522 70.4294 174.853C72.0803 175.134 73.71 175.545 75.3056 176.083C76.9353 176.494 78.5342 177.037 80.089 177.707Z" fill="#263238"/>
<path d="M113.437 153.965C113.168 154.015 112.893 154.015 112.623 153.965C111.878 153.882 111.145 153.693 110.446 153.401C109.278 152.925 108.215 152.191 107.324 151.244C106.434 150.297 105.737 149.159 105.277 147.902C104.768 146.52 104.551 145.033 104.641 143.548C104.673 142.324 105.011 141.132 105.62 140.099C106.047 139.404 106.686 138.892 107.426 138.653C107.623 138.594 107.828 138.565 108.033 138.568C108.175 138.568 108.247 138.568 108.247 138.568C108.247 138.568 107.947 138.568 107.469 138.777C106.79 139.048 106.215 139.557 105.834 140.223C104.863 141.878 104.591 144.902 105.627 147.724C106.108 149.055 106.863 150.25 107.833 151.22C108.628 152.013 109.543 152.652 110.539 153.107C111.473 153.507 112.445 153.795 113.437 153.965Z" fill="#263238"/>
<path d="M130.079 154.63C129.9 152.259 129.843 149.879 129.908 147.5C129.852 145.124 129.919 142.746 130.108 140.378C130.286 142.747 130.344 145.124 130.279 147.5C130.339 149.879 130.272 152.26 130.079 154.63Z" fill="#263238"/>
<path d="M103.892 138.622C103.97 136.898 104.135 134.949 104.135 134.949C104.135 134.949 108.075 134.477 108.311 130.069C108.547 125.661 108.311 115.491 108.311 115.491L101.172 111.532L93.2471 118.283L94.4679 140.323L101.736 140.826C102.291 140.843 102.83 140.62 103.234 140.207C103.639 139.794 103.875 139.224 103.892 138.622Z" fill="#FFBE9D"/>
<path d="M104.599 126.581C104.599 126.581 104.599 126.666 104.534 126.767C104.481 126.84 104.412 126.897 104.334 126.935C104.256 126.973 104.17 126.989 104.085 126.983C103.628 126.983 103.185 126.411 103.028 125.746C102.953 125.424 102.953 125.086 103.028 124.764C103.043 124.623 103.089 124.489 103.164 124.372C103.239 124.256 103.339 124.162 103.456 124.099C103.552 124.056 103.66 124.056 103.756 124.099C103.827 124.137 103.885 124.199 103.92 124.277C103.97 124.408 103.92 124.493 103.92 124.485C103.92 124.478 103.92 124.408 103.849 124.331C103.812 124.275 103.757 124.237 103.695 124.223C103.633 124.208 103.568 124.219 103.513 124.253C103.426 124.311 103.353 124.391 103.302 124.487C103.251 124.583 103.223 124.692 103.221 124.802C103.161 125.09 103.161 125.389 103.221 125.676C103.363 126.28 103.749 126.767 104.092 126.813C104.159 126.823 104.227 126.818 104.292 126.798C104.357 126.778 104.418 126.744 104.47 126.697C104.556 126.635 104.584 126.573 104.599 126.581Z" fill="#EB996E"/>
<path d="M110.76 113.11C110.21 111.083 108.218 110.078 106.405 109.521C103.642 108.671 100.658 108.299 97.9591 109.374C95.2605 110.449 92.0192 112.336 92.0192 115.561C90.4271 115.422 89.5133 116.93 88.885 118.801C88.4833 119.942 88.2427 121.141 88.1711 122.359C87.9712 126.581 86.8789 132.412 84.3515 135.506C82.9237 137.23 80.9461 138.421 80.1322 140.571C79.4182 142.435 79.7895 144.647 79.1255 146.534C78.533 148.196 77.2265 149.379 76.2698 150.826C75.2951 152.466 74.7216 154.348 74.6029 156.295C74.4843 158.242 74.8245 160.189 75.5916 161.954C76.3641 163.674 77.4519 165.205 78.7886 166.455C80.1252 167.705 81.6827 168.647 83.3663 169.223C86.7011 170.322 90.2573 170.36 93.6113 169.332C96.1284 168.68 98.4765 167.419 100.479 165.643C102.529 163.83 103.936 161.306 104.463 158.497C104.97 155.342 104.156 152.133 103.549 148.993C101.65 139.071 102.193 138.553 104.592 129.342C104.649 129.18 104.677 129.01 104.72 128.847C104.763 128.685 104.784 128.607 104.813 128.484C104.881 128.12 104.917 127.749 104.92 127.378C104.57 127.519 104.189 127.549 103.824 127.464C103.458 127.379 103.123 127.183 102.857 126.898C102.59 126.595 102.404 126.219 102.319 125.811C102.233 125.402 102.251 124.976 102.371 124.578C102.54 124.143 102.791 123.75 103.108 123.427C103.425 123.103 103.802 122.855 104.213 122.699C105.006 122.343 105.855 122.158 106.633 121.763C108.283 120.913 109.425 119.149 110.203 117.301C110.843 116.02 111.04 114.534 110.76 113.11Z" fill="#263238"/>
<path d="M104.884 126.79C105.035 127.031 105.16 127.291 105.256 127.563C105.47 128.05 105.755 128.739 106.069 129.535L106.127 129.682H105.977L105.263 129.752C104.77 129.752 104.356 129.852 103.871 129.845C103.828 129.834 103.789 129.813 103.757 129.782C103.724 129.75 103.699 129.711 103.685 129.667C103.664 129.596 103.664 129.521 103.685 129.45C103.701 129.346 103.723 129.243 103.749 129.141L103.878 128.592C103.942 128.226 104.043 127.868 104.178 127.525C104.164 127.898 104.114 128.269 104.028 128.63L103.928 129.18C103.892 129.365 103.828 129.651 103.928 129.628C104.285 129.628 104.791 129.543 105.263 129.512L105.977 129.442L105.884 129.613C105.577 128.839 105.32 128.112 105.17 127.61C105.038 127.353 104.942 127.077 104.884 126.79Z" fill="#FF9B5A"/>
<path d="M80.4391 191.882L112.102 190.838L125.881 249.102L123.347 315.935H106.605L108.654 250.525L96.4098 209.963L98.2946 318.525L81.3744 318.796L79.5967 216.753C79.5181 213.915 78.6614 207.519 78.9827 204.704L80.4391 191.882Z" fill="#263238"/>
<path d="M100.622 210.791C100.104 210.826 99.5835 210.792 99.0728 210.69C98.1162 210.566 96.8097 210.35 95.3747 210.041C93.9397 209.731 92.6546 209.375 91.7265 209.089C91.2303 208.971 90.7504 208.784 90.2986 208.533C90.2986 208.417 92.626 209.02 95.4817 209.646C98.3375 210.273 100.636 210.675 100.622 210.791Z" fill="#455A64"/>
<path d="M123.175 312.269C123.175 312.377 119.384 312.47 114.708 312.47C110.032 312.47 106.234 312.377 106.234 312.269C106.234 312.161 110.025 312.068 114.708 312.068C119.391 312.068 123.175 312.153 123.175 312.269Z" fill="#455A64"/>
<path d="M98.1445 315.703C98.1445 315.819 94.4607 315.904 89.92 315.904C85.3794 315.904 81.7026 315.819 81.7026 315.703C81.7026 315.587 85.3865 315.502 89.92 315.502C94.4535 315.502 98.1445 315.594 98.1445 315.703Z" fill="#455A64"/>
<path d="M95.9599 315.424C95.8599 315.424 95.4173 291.706 94.9675 262.45C94.5177 233.194 94.2536 209.461 94.3464 209.461C94.4392 209.461 94.8961 233.171 95.3387 262.442C95.7814 291.714 96.067 315.424 95.9599 315.424Z" fill="#455A64"/>
<path d="M120.927 312.269C120.919 312.163 120.919 312.057 120.927 311.952V311.024C120.927 310.189 120.984 308.99 121.026 307.467C121.126 304.373 121.269 299.88 121.448 294.374C121.833 283.3 122.376 268.034 122.968 251.182C122.968 251.02 122.968 250.865 122.968 250.726V250.78C119.22 234.54 115.829 219.8 113.366 209.136L110.51 196.522C110.182 195.045 109.932 193.893 109.753 193.089C109.668 192.71 109.611 192.416 109.561 192.192C109.533 192.091 109.516 191.987 109.511 191.882C109.548 191.98 109.577 192.081 109.596 192.184C109.654 192.401 109.725 192.694 109.825 193.066C110.018 193.839 110.296 195.014 110.653 196.484C111.367 199.469 112.374 203.769 113.63 209.066C116.115 219.723 119.542 234.424 123.34 250.688V250.742C123.34 250.881 123.34 251.043 123.34 251.198C122.704 268.049 122.126 283.307 121.705 294.382C121.483 299.895 121.298 304.358 121.169 307.467C121.098 309.013 121.041 310.189 121.005 311.024C121.005 311.418 120.962 311.728 120.955 311.952C120.956 312.058 120.947 312.165 120.927 312.269Z" fill="#455A64"/>
<path d="M115.465 249.365C114.262 249.793 113.024 250.091 111.767 250.255C110.225 250.541 108.911 250.742 108.318 250.773V250.618C108.511 250.68 108.611 250.719 108.611 250.749C108.611 250.78 108.49 250.749 108.29 250.749H107.862L108.29 250.61C108.847 250.432 110.16 250.139 111.703 249.837C112.939 249.546 114.2 249.388 115.465 249.365Z" fill="#455A64"/>
<path d="M115.172 251.585C114.058 251.64 112.942 251.586 111.838 251.422C110.723 251.398 109.612 251.266 108.518 251.028C110.749 250.831 112.995 251.019 115.172 251.585Z" fill="#455A64"/>
<path opacity="0.2" d="M80.3035 193.112C80.6785 193.634 81.1508 194.064 81.6896 194.374C82.2284 194.685 82.8216 194.869 83.4305 194.914C84.7057 195.078 85.9956 195.052 87.2643 194.837C95.4389 193.854 104.099 192.95 112.102 190.838C101.743 191.465 90.7983 191.256 80.4391 191.882L80.332 192.841" fill="black"/>
<g opacity="0.2">
<path d="M90.9768 208.927L96.8168 233.473L96.4098 209.963L90.9768 208.927Z" fill="black"/>
</g>
</svg>
