<svg width="141" height="136" viewBox="0 0 141 136" fill="none" xmlns="http://www.w3.org/2000/svg">
<path d="M126.597 21.161C117.953 1.45237 97.2058 -5.96834 80.8357 7.26457C74.4433 12.4271 70.4551 20.6434 62.6279 23.9403C55.2836 27.0323 45.9799 26.1221 38.0381 27.7966C21.1261 31.3402 -1.64332 44.785 0.0937426 65.5012C0.854574 74.5756 6.97597 84.654 10.0019 93.1448C13.476 102.914 15.5605 115.136 24.7565 120.976C40.522 131.002 59.5394 122.807 73.7416 114.723C81.3846 110.376 85.5918 107.705 93.822 109.195C101.441 110.585 108.302 115.449 115.747 109.678C121.337 105.346 121.799 96.5668 126.493 91.4112C131.78 85.6024 137.141 85.1821 139.889 76.4516C143.22 65.859 138.312 59.2408 134.994 49.7773C131.676 40.3139 130.668 30.4335 126.597 21.161Z" fill="#FF9B5A"/>
<g opacity="0.7">
<path d="M126.597 21.161C117.953 1.45237 97.2058 -5.96834 80.8357 7.26457C74.4433 12.4271 70.4551 20.6434 62.6279 23.9403C55.2836 27.0323 45.9799 26.1221 38.0381 27.7966C21.1261 31.3402 -1.64332 44.785 0.0937426 65.5012C0.854574 74.5756 6.97597 84.654 10.0019 93.1448C13.476 102.914 15.5605 115.136 24.7565 120.976C40.522 131.002 59.5394 122.807 73.7416 114.723C81.3846 110.376 85.5918 107.705 93.822 109.195C101.441 110.585 108.302 115.449 115.747 109.678C121.337 105.346 121.799 96.5668 126.493 91.4112C131.78 85.6024 137.141 85.1821 139.889 76.4516C143.22 65.859 138.312 59.2408 134.994 49.7773C131.676 40.3139 130.668 30.4335 126.597 21.161Z" fill="white"/>
</g>
<path d="M101.18 6.86853H47.1818C43.4538 6.86853 40.4316 9.8907 40.4316 13.6187V127.618C40.4316 131.346 43.4538 134.369 47.1818 134.369H101.18C104.908 134.369 107.93 131.346 107.93 127.618V13.6187C107.93 9.8907 104.908 6.86853 101.18 6.86853Z" fill="#263238"/>
<path d="M104.929 20.8693H43.4299V120.368H104.929V20.8693Z" fill="white" stroke="#263238" stroke-width="1.33739" stroke-miterlimit="10"/>
<path d="M83.6067 61.1591C88.8125 55.9534 88.8125 47.5132 83.6067 42.3074C78.4009 37.1016 69.9607 37.1016 64.755 42.3074C59.5492 47.5132 59.5492 55.9534 64.755 61.1591C69.9607 66.3649 78.4009 66.3649 83.6067 61.1591Z" fill="#FF9B5A"/>
<path d="M91.6818 114.111H56.6836C56.6048 114.112 56.5267 114.096 56.4538 114.067C56.3809 114.037 56.3146 113.993 56.2588 113.937C56.2029 113.882 56.1586 113.816 56.1283 113.743C56.0981 113.67 56.0825 113.592 56.0825 113.514C56.0821 113.434 56.0973 113.356 56.1273 113.283C56.1574 113.21 56.2016 113.143 56.2575 113.087C56.3134 113.032 56.3799 112.987 56.453 112.957C56.5261 112.927 56.6045 112.912 56.6836 112.912H91.6818C91.7606 112.912 91.8386 112.928 91.9113 112.958C91.984 112.989 92.05 113.033 92.1056 113.089C92.1611 113.145 92.2051 113.211 92.2349 113.284C92.2647 113.357 92.2798 113.435 92.2794 113.514C92.2794 113.672 92.2164 113.824 92.1043 113.936C91.9923 114.048 91.8403 114.111 91.6818 114.111Z" fill="#FF9B5A"/>
<path d="M92.8213 72.5571H55.5406C54.7712 72.5571 54.1475 73.1808 54.1475 73.9502V78.345C54.1475 79.1144 54.7712 79.7381 55.5406 79.7381H92.8213C93.5907 79.7381 94.2145 79.1144 94.2145 78.345V73.9502C94.2145 73.1808 93.5907 72.5571 92.8213 72.5571Z" fill="#FF9B5A"/>
<path d="M92.8213 85.9881H55.5406C54.7712 85.9881 54.1475 86.6118 54.1475 87.3812V91.776C54.1475 92.5454 54.7712 93.1691 55.5406 93.1691H92.8213C93.5907 93.1691 94.2145 92.5454 94.2145 91.776V87.3812C94.2145 86.6118 93.5907 85.9881 92.8213 85.9881Z" fill="#FF9B5A"/>
<path d="M80.8183 58.3827L76.896 56.1245V54.2589C77.4639 53.5718 77.8753 52.7692 78.1015 51.9069C78.2365 51.9549 78.3786 51.9796 78.5219 51.9799C79.0082 51.9799 79.3174 50.4721 79.3696 49.3952C79.9358 48.1966 79.1646 47.4948 79.1646 47.4948C79.1646 47.4948 79.4842 47.1752 79.6961 45.8933C79.908 44.6113 78.9492 45.1463 78.2022 43.9721C77.4553 42.7978 76.9203 41.5193 74.4676 41.5193C73.7917 41.4971 73.1248 41.6787 72.5536 42.0406C71.9823 42.4024 71.5332 42.9277 71.2644 43.5482C70.6539 43.5504 70.0455 43.6215 69.4509 43.7601C68.7005 43.9721 68.4886 46.4283 69.1279 47.3906C69.414 47.9165 69.5667 48.5046 69.5725 49.1033C69.4023 48.8949 69.2251 48.8393 69.1279 49.3118C68.9159 50.3783 69.7706 51.8722 69.7706 51.8722L70.2118 51.7471C70.4341 52.6686 70.8629 53.5275 71.4659 54.2589V56.1245L67.5437 58.3827C67.0856 58.6472 66.7052 59.0274 66.4405 59.4854C66.1759 59.9433 66.0363 60.4628 66.0359 60.9918V62.2841C68.3687 64.0862 71.2332 65.0638 74.181 65.0638C77.1287 65.0638 79.9933 64.0862 82.326 62.2841V60.9918C82.3263 60.4627 82.1871 59.9429 81.9223 59.4849C81.6576 59.0268 81.2768 58.6466 80.8183 58.3827Z" fill="#263238"/>
<path d="M59.2231 91.3834C59.1331 91.3821 59.0472 91.346 58.9834 91.2826C58.9492 91.2521 58.9219 91.2146 58.9033 91.1727C58.8848 91.1307 58.8753 91.0853 58.8757 91.0395C58.8767 90.9768 58.8947 90.9156 58.9278 90.8623L59.5531 89.8617L58.3337 89.8999C58.2877 89.9028 58.2417 89.896 58.1986 89.8798C58.1555 89.8636 58.1163 89.8385 58.0836 89.8061C58.0269 89.7425 57.9956 89.6603 57.9956 89.5751C57.9956 89.4899 58.0269 89.4077 58.0836 89.3441C58.1156 89.3105 58.1546 89.2844 58.1978 89.2676C58.241 89.2508 58.2874 89.2437 58.3337 89.2468L59.5357 89.292L58.9173 88.2949C58.8837 88.2406 58.8657 88.1781 58.8652 88.1143C58.8649 88.0684 58.8743 88.023 58.8929 87.9811C58.9115 87.9391 58.9387 87.9016 58.9729 87.8711C59.0368 87.8077 59.1227 87.7716 59.2126 87.7703C59.2718 87.7707 59.3297 87.7879 59.3795 87.8199C59.4293 87.8518 59.4691 87.8973 59.494 87.951L60.0881 89.0245L60.6753 87.9579C60.7031 87.901 60.746 87.8528 60.7993 87.8185C60.8525 87.7842 60.9142 87.7652 60.9775 87.7634C61.0214 87.7636 61.0648 87.773 61.1049 87.791C61.1449 87.8089 61.1808 87.835 61.2103 87.8676C61.274 87.9337 61.309 88.0224 61.3075 88.1143C61.3074 88.1739 61.2918 88.2326 61.2624 88.2845L60.6336 89.292L61.853 89.2468C61.8993 89.2437 61.9457 89.2508 61.9889 89.2676C62.0321 89.2844 62.0711 89.3105 62.1031 89.3441C62.1623 89.4056 62.1948 89.488 62.1934 89.5734C62.1932 89.6595 62.161 89.7424 62.1031 89.8061C62.0704 89.8385 62.0312 89.8636 61.9881 89.8798C61.945 89.896 61.8989 89.9028 61.853 89.8999L60.6266 89.8617L61.2381 90.8519C61.2723 90.9071 61.2904 90.9709 61.2902 91.036C61.2902 91.1281 61.2536 91.2165 61.1884 91.2816C61.1233 91.3468 61.0349 91.3834 60.9428 91.3834C60.8832 91.3826 60.8252 91.3644 60.7758 91.3311C60.7264 91.2978 60.6878 91.2507 60.6648 91.1958L60.0846 90.1536L59.5079 91.1958C59.4824 91.2503 59.4422 91.2966 59.3919 91.3297C59.3417 91.3629 59.2832 91.3814 59.2231 91.3834Z" fill="#263238"/>
<path d="M64.8583 91.3834C64.7684 91.3821 64.6824 91.346 64.6186 91.2827C64.5844 91.2521 64.5571 91.2146 64.5386 91.1727C64.52 91.1307 64.5106 91.0853 64.5109 91.0395C64.512 90.9768 64.53 90.9156 64.563 90.8623L65.1883 89.8617L63.9724 89.8999C63.926 89.9021 63.8797 89.8949 63.8361 89.8787C63.7925 89.8626 63.7527 89.8379 63.7188 89.8062C63.6727 89.7586 63.6419 89.6982 63.6306 89.633C63.6193 89.5677 63.6278 89.5005 63.6552 89.4402C63.6826 89.3798 63.7274 89.3291 63.784 89.2946C63.8406 89.2601 63.9062 89.2435 63.9724 89.2468L65.171 89.292L64.5526 88.2949C64.5189 88.2406 64.5009 88.1781 64.5005 88.1143C64.5001 88.0684 64.5096 88.023 64.5281 87.9811C64.5467 87.9391 64.574 87.9016 64.6082 87.8711C64.672 87.8077 64.7579 87.7716 64.8479 87.7703C64.9071 87.7707 64.965 87.7879 65.0148 87.8199C65.0646 87.8518 65.1043 87.8973 65.1293 87.951L65.7234 89.0245L66.3105 87.9579C66.3383 87.901 66.3812 87.8528 66.4345 87.8185C66.4878 87.7842 66.5494 87.7652 66.6127 87.7634C66.6567 87.7632 66.7002 87.7724 66.7404 87.7904C66.7805 87.8083 66.8163 87.8347 66.8455 87.8676C66.8777 87.9001 66.9032 87.9386 66.9205 87.9809C66.9378 88.0232 66.9465 88.0685 66.9462 88.1143C66.945 88.1743 66.9283 88.2329 66.8976 88.2845L66.2688 89.292L67.4917 89.2538C67.5374 89.2507 67.5833 89.2578 67.626 89.2746C67.6686 89.2914 67.707 89.3176 67.7384 89.351C67.7976 89.4125 67.83 89.495 67.8287 89.5803C67.8285 89.6664 67.7963 89.7494 67.7384 89.8131C67.7063 89.8454 67.6677 89.8705 67.6252 89.8866C67.5826 89.9028 67.5371 89.9097 67.4917 89.9069L66.2619 89.8687L66.8733 90.8588C66.9076 90.9141 66.9256 90.9779 66.9254 91.0429C66.9254 91.1351 66.8888 91.2234 66.8236 91.2886C66.7585 91.3538 66.6701 91.3903 66.578 91.3903C66.5184 91.3896 66.4604 91.3714 66.411 91.338C66.3616 91.3047 66.3231 91.2577 66.3001 91.2027L65.7199 90.1605L65.1432 91.2027C65.1166 91.2559 65.0761 91.3009 65.0259 91.3327C64.9757 91.3645 64.9177 91.3821 64.8583 91.3834Z" fill="#263238"/>
<path d="M70.4967 91.3834C70.4056 91.383 70.3183 91.3468 70.2535 91.2827C70.2194 91.2521 70.1921 91.2146 70.1735 91.1727C70.155 91.1307 70.1455 91.0853 70.1459 91.0395C70.1469 90.9768 70.1649 90.9156 70.198 90.8623L70.8233 89.8617L69.6074 89.8999C69.5419 89.9026 69.4771 89.8856 69.4213 89.8513C69.3655 89.817 69.3211 89.7668 69.2939 89.7072C69.2667 89.6476 69.2579 89.5812 69.2686 89.5165C69.2792 89.4519 69.3089 89.3918 69.3538 89.3441C69.3866 89.3106 69.4262 89.2846 69.47 89.2678C69.5137 89.2511 69.5606 89.2439 69.6074 89.2468L70.8059 89.292L70.1875 88.2949C70.1539 88.2406 70.1359 88.1781 70.1354 88.1143C70.1365 88.0686 70.1466 88.0237 70.1651 87.982C70.1836 87.9402 70.2101 87.9025 70.2431 87.8711C70.3078 87.8069 70.3952 87.7707 70.4863 87.7703C70.5449 87.7714 70.602 87.7888 70.6512 87.8208C70.7003 87.8527 70.7395 87.8978 70.7642 87.951L71.3583 89.0245L71.9454 87.9579C71.9733 87.901 72.0162 87.8528 72.0695 87.8185C72.1227 87.7842 72.1844 87.7652 72.2477 87.7634C72.2917 87.7632 72.3352 87.7724 72.3753 87.7904C72.4155 87.8083 72.4513 87.8347 72.4805 87.8676C72.5127 87.9001 72.5381 87.9386 72.5554 87.9809C72.5727 88.0232 72.5815 88.0685 72.5812 88.1143C72.58 88.1743 72.5632 88.2329 72.5326 88.2845L71.9038 89.292L73.1266 89.2468C73.1716 89.2423 73.217 89.2475 73.2598 89.262C73.3026 89.2766 73.3418 89.3001 73.3747 89.331C73.4076 89.362 73.4335 89.3996 73.4506 89.4414C73.4678 89.4832 73.4758 89.5282 73.4741 89.5734C73.4748 89.659 73.4439 89.7419 73.3872 89.8062C73.3545 89.8385 73.3153 89.8636 73.2722 89.8798C73.2291 89.896 73.183 89.9028 73.1371 89.8999L71.9107 89.8617L72.5187 90.8519C72.5529 90.9072 72.571 90.9709 72.5708 91.036C72.5697 91.0816 72.5596 91.1266 72.5411 91.1683C72.5227 91.21 72.4961 91.2477 72.4631 91.2792C72.4329 91.3117 72.3963 91.3377 72.3557 91.3556C72.3151 91.3735 72.2712 91.383 72.2269 91.3834C72.1678 91.3824 72.1103 91.3641 72.0615 91.3307C72.0127 91.2974 71.9748 91.2505 71.9524 91.1958L71.3687 90.1536L70.792 91.1958C70.766 91.2521 70.7243 91.2998 70.672 91.333C70.6196 91.3663 70.5588 91.3838 70.4967 91.3834Z" fill="#263238"/>
<path d="M76.1318 91.3834C76.0407 91.383 75.9533 91.3468 75.8886 91.2827C75.8232 91.2185 75.7857 91.1311 75.7844 91.0395C75.7833 90.977 75.8002 90.9155 75.833 90.8623L76.4584 89.8617L75.2424 89.8999C75.196 89.9021 75.1497 89.8949 75.1061 89.8787C75.0626 89.8626 75.0227 89.8379 74.9888 89.8062C74.9322 89.7425 74.9009 89.6603 74.9009 89.5751C74.9009 89.4899 74.9322 89.4077 74.9888 89.3441C75.0224 89.3117 75.0622 89.2864 75.1057 89.2696C75.1493 89.2529 75.1958 89.2452 75.2424 89.2468L76.4445 89.292L75.8296 88.2949C75.7959 88.2406 75.7779 88.1781 75.7775 88.1143C75.7786 88.0686 75.7886 88.0237 75.8071 87.982C75.8256 87.9402 75.8521 87.9025 75.8852 87.8711C75.9499 87.8069 76.0372 87.7707 76.1283 87.7703C76.1875 87.7707 76.2454 87.7879 76.2952 87.8199C76.345 87.8518 76.3848 87.8973 76.4097 87.951L77.0003 89.0245L77.5875 87.9579C77.6153 87.901 77.6582 87.8528 77.7115 87.8185C77.7648 87.7842 77.8264 87.7652 77.8897 87.7634C77.9337 87.7632 77.9772 87.7724 78.0173 87.7904C78.0575 87.8083 78.0933 87.8347 78.1225 87.8676C78.1547 87.9001 78.1802 87.9386 78.1974 87.9809C78.2147 88.0232 78.2235 88.0685 78.2232 88.1143C78.222 88.1743 78.2052 88.2329 78.1746 88.2845L77.5458 89.292L78.7687 89.2468C78.8136 89.2423 78.859 89.2475 78.9018 89.262C78.9446 89.2766 78.9838 89.3001 79.0167 89.331C79.0496 89.362 79.0755 89.3996 79.0927 89.4414C79.1098 89.4832 79.1178 89.5282 79.1161 89.5734C79.1168 89.659 79.0859 89.7419 79.0292 89.8062C78.9965 89.8385 78.9573 89.8636 78.9142 89.8798C78.8711 89.896 78.825 89.9028 78.7791 89.8999L77.5527 89.8617L78.1607 90.8519C78.195 90.9072 78.213 90.9709 78.2128 91.036C78.2131 91.0818 78.2037 91.1272 78.1851 91.1692C78.1666 91.2111 78.1393 91.2486 78.1051 91.2792C78.0749 91.3117 78.0383 91.3377 77.9977 91.3556C77.9571 91.3735 77.9133 91.383 77.8689 91.3834C77.8098 91.3824 77.7523 91.3641 77.7035 91.3307C77.6548 91.2974 77.6168 91.2505 77.5944 91.1958L77.0108 90.1536L76.4341 91.1958C76.4076 91.2532 76.3648 91.3016 76.3111 91.3349C76.2574 91.3683 76.195 91.3851 76.1318 91.3834Z" fill="#263238"/>
<path d="M81.7668 91.3834C81.6757 91.383 81.5883 91.3468 81.5236 91.2827C81.4698 91.2281 81.4355 91.1574 81.4261 91.0813C81.4167 91.0053 81.4326 90.9283 81.4715 90.8623L82.0934 89.8617L80.8774 89.9C80.8311 89.9021 80.7847 89.8949 80.7411 89.8787C80.6976 89.8626 80.6577 89.8379 80.6238 89.8062C80.5672 89.7425 80.5359 89.6603 80.5359 89.5751C80.5359 89.4899 80.5672 89.4077 80.6238 89.3441C80.6574 89.3117 80.6972 89.2864 80.7407 89.2696C80.7843 89.2529 80.8308 89.2452 80.8774 89.2468L82.0795 89.292L81.4611 88.2949C81.4275 88.2406 81.4094 88.1781 81.409 88.1143C81.4103 88.0226 81.4477 87.9352 81.5132 87.8711C81.5779 87.8069 81.6653 87.7707 81.7564 87.7703C81.8156 87.7707 81.8735 87.7879 81.9233 87.8199C81.9731 87.8519 82.0128 87.8973 82.0378 87.951L82.6284 89.0245L83.2155 87.9579C83.2434 87.901 83.2863 87.8528 83.3395 87.8185C83.3928 87.7842 83.4544 87.7652 83.5178 87.7634C83.5623 87.7631 83.6063 87.7723 83.647 87.7903C83.6877 87.8082 83.7242 87.8346 83.754 87.8676C83.8178 87.9337 83.8528 88.0224 83.8513 88.1143C83.8501 88.1743 83.8333 88.2329 83.8027 88.2845L83.1738 89.292L84.3967 89.2468C84.4417 89.2423 84.4871 89.2475 84.5299 89.262C84.5727 89.2766 84.6118 89.3001 84.6448 89.331C84.6777 89.362 84.7036 89.3996 84.7207 89.4414C84.7379 89.4832 84.7459 89.5282 84.7441 89.5734C84.7449 89.659 84.7139 89.7419 84.6573 89.8062C84.6246 89.8385 84.5854 89.8636 84.5422 89.8798C84.4991 89.896 84.4531 89.9028 84.4072 89.9L83.1808 89.8617L83.7888 90.8519C83.823 90.9072 83.8411 90.971 83.8409 91.036C83.8412 91.0819 83.8318 91.1272 83.8132 91.1692C83.7946 91.2111 83.7674 91.2486 83.7332 91.2792C83.7029 91.3117 83.6664 91.3377 83.6258 91.3556C83.5852 91.3735 83.5413 91.383 83.4969 91.3834C83.4379 91.3824 83.3804 91.3641 83.3316 91.3307C83.2828 91.2974 83.2449 91.2505 83.2225 91.1958L82.6388 90.1536L82.0621 91.1958C82.0361 91.2521 81.9944 91.2998 81.9421 91.333C81.8897 91.3663 81.8289 91.3838 81.7668 91.3834Z" fill="#263238"/>
<path d="M87.4016 91.3834C87.3117 91.3821 87.2257 91.346 87.1619 91.2827C87.1277 91.2521 87.1004 91.2146 87.0819 91.1727C87.0633 91.1307 87.0539 91.0853 87.0542 91.0395C87.0553 90.9768 87.0733 90.9156 87.1063 90.8623L87.7282 89.8617L86.5122 89.9C86.4675 89.9033 86.4226 89.8974 86.3803 89.8824C86.338 89.8675 86.2993 89.8439 86.2666 89.8132C86.2339 89.7825 86.208 89.7453 86.1905 89.704C86.1729 89.6627 86.1642 89.6182 86.1648 89.5734C86.1646 89.5309 86.1728 89.4887 86.1889 89.4494C86.205 89.41 86.2287 89.3743 86.2586 89.3441C86.2906 89.3105 86.3296 89.2844 86.3729 89.2676C86.4161 89.2508 86.4625 89.2437 86.5088 89.2468L87.7108 89.292L87.0924 88.2949C87.0588 88.2406 87.0407 88.1781 87.0403 88.1143C87.0416 88.0226 87.0791 87.9352 87.1445 87.8711C87.2092 87.8069 87.2966 87.7707 87.3877 87.7703C87.4469 87.7707 87.5048 87.7879 87.5546 87.8199C87.6044 87.8519 87.6441 87.8973 87.6691 87.951L88.2597 89.0245L88.8503 87.9579C88.8779 87.9015 88.9202 87.8537 88.9728 87.8194C89.0254 87.7851 89.0864 87.7658 89.1491 87.7634C89.1936 87.7631 89.2376 87.7723 89.2783 87.7903C89.3191 87.8082 89.3555 87.8346 89.3853 87.8676C89.4491 87.9337 89.4841 88.0224 89.4826 88.1143C89.4824 88.1739 89.4669 88.2326 89.4374 88.2845L88.8086 89.292L90.028 89.2468C90.0743 89.2437 90.1207 89.2508 90.164 89.2676C90.2072 89.2844 90.2462 89.3105 90.2782 89.3441C90.3374 89.4056 90.3699 89.488 90.3685 89.5734C90.3683 89.6595 90.3361 89.7424 90.2782 89.8062C90.2455 89.8385 90.2063 89.8636 90.1631 89.8798C90.12 89.896 90.074 89.9028 90.028 89.9L88.8017 89.8617L89.4096 90.8519C89.4439 90.9072 89.462 90.971 89.4618 91.036C89.4605 91.1276 89.423 91.215 89.3575 91.2792C89.2943 91.3438 89.2083 91.3812 89.1178 91.3834C89.0587 91.3824 89.0013 91.3641 88.9525 91.3307C88.9037 91.2974 88.8658 91.2505 88.8434 91.1958L88.2597 90.1536L87.683 91.1958C87.658 91.25 87.6185 91.2963 87.5688 91.3294C87.5191 91.3625 87.4613 91.3812 87.4016 91.3834Z" fill="#263238"/>
<g style="mix-blend-mode:multiply">
<path d="M104.929 21.0013H43.4299V24.8541H104.929V21.0013Z" fill="#FF9B5A"/>
</g>
<path d="M80.8669 13.9036H67.4915C67.2501 13.9036 67.0186 13.8077 66.8479 13.637C66.6772 13.4663 66.5813 13.2348 66.5813 12.9934C66.5813 12.752 66.6772 12.5205 66.8479 12.3498C67.0186 12.1791 67.2501 12.0832 67.4915 12.0832H80.8669C81.1083 12.0832 81.3398 12.1791 81.5105 12.3498C81.6812 12.5205 81.7771 12.752 81.7771 12.9934C81.7771 13.2348 81.6812 13.4663 81.5105 13.637C81.3398 13.8077 81.1083 13.9036 80.8669 13.9036Z" fill="#FF9B5A" stroke="#263238" stroke-width="1.33739" stroke-linecap="round" stroke-linejoin="round"/>
<path d="M77.8269 125.989C77.8276 125.267 77.6141 124.562 77.2136 123.961C76.813 123.361 76.2433 122.893 75.5766 122.616C74.9099 122.34 74.1762 122.267 73.4683 122.408C72.7603 122.548 72.11 122.896 71.5997 123.406C71.0893 123.917 70.7418 124.567 70.6012 125.275C70.4605 125.983 70.5331 126.716 70.8096 127.383C71.0861 128.05 71.5542 128.62 72.1546 129.02C72.755 129.421 73.4608 129.634 74.1825 129.633C75.1488 129.632 76.0752 129.248 76.7585 128.565C77.4417 127.882 77.826 126.955 77.8269 125.989Z" fill="#FF9B5A"/>
<path d="M76.0309 124.141H72.3345V127.837H76.0309V124.141Z" fill="#FF9B5A" stroke="#263238" stroke-width="1.33739" stroke-linecap="round" stroke-linejoin="round"/>
<path d="M118.214 84.0426C118.214 84.0426 113.371 71.7373 117.682 70.2747C122.171 68.7495 121.973 76.8755 121.799 80.836C121.435 89.2989 120.5 90.8727 119.802 88.8056L118.214 84.0426ZM116.758 93.6416C118.089 95.3786 118.464 93.579 116.064 85.4531C114.938 81.6315 112.492 73.9016 108.74 76.8025C105.137 79.5818 113.712 89.6568 113.712 89.6568L116.758 93.6416ZM114.188 100.694C115.456 101.82 115.48 100.399 112.468 94.5309C111.054 91.7829 108.063 86.2209 105.613 88.9724C103.261 91.6266 111.276 98.078 111.276 98.078L114.188 100.694ZM111.408 109.081C112.676 110.21 112.701 108.785 109.689 102.921C108.275 100.173 105.283 94.6074 102.834 97.3624C100.496 100.024 108.486 106.475 108.486 106.475L111.408 109.081ZM119.433 92.0087C117.405 92.8008 119.017 93.6624 127.49 93.6381C131.464 93.6381 139.58 93.4575 137.85 89.0418C136.193 84.7999 124.123 90.2022 124.123 90.2022L119.433 92.0087ZM117.123 97.6507C114.976 98.0224 116.387 99.1897 124.697 100.85C128.591 101.632 136.578 103.074 135.762 98.4185C134.98 93.9299 122.077 96.8273 122.077 96.8273L117.123 97.6507ZM114.538 104.54C112.711 104.804 113.878 105.822 120.865 107.42C124.141 108.17 130.863 109.577 130.28 105.606C129.724 101.785 118.746 103.946 118.746 103.946L114.538 104.54ZM112.576 110.922C110.786 111.377 112.054 112.266 119.176 113.114C122.511 113.51 129.345 114.198 128.348 110.31C127.386 106.579 116.699 109.883 116.699 109.883L112.576 110.922ZM123.047 85.0848C122.004 87.4194 124.169 87.0651 131.527 80.6449C134.973 77.6328 141.887 71.3308 136.411 68.1937C131.155 65.1781 125.503 79.7277 125.503 79.7277L123.047 85.0848ZM112.846 119.235C111.745 119.878 112.826 120.128 117.877 119.121C120.246 118.652 125.065 117.61 123.436 115.553C121.858 113.573 115.397 117.742 115.397 117.742L112.846 119.235Z" fill="#FF9B5A"/>
<path opacity="0.3" d="M118.214 84.0426C118.214 84.0426 113.371 71.7373 117.682 70.2747C122.171 68.7495 121.973 76.8755 121.799 80.836C121.435 89.2989 120.5 90.8727 119.802 88.8056L118.214 84.0426ZM116.758 93.6416C118.089 95.3786 118.464 93.579 116.064 85.4531C114.938 81.6315 112.492 73.9016 108.74 76.8025C105.137 79.5818 113.712 89.6568 113.712 89.6568L116.758 93.6416ZM114.188 100.694C115.456 101.82 115.48 100.399 112.468 94.5309C111.054 91.7829 108.063 86.2209 105.613 88.9724C103.261 91.6266 111.276 98.078 111.276 98.078L114.188 100.694ZM111.408 109.081C112.676 110.21 112.701 108.785 109.689 102.921C108.275 100.173 105.283 94.6074 102.834 97.3624C100.496 100.024 108.486 106.475 108.486 106.475L111.408 109.081ZM119.433 92.0087C117.405 92.8008 119.017 93.6624 127.49 93.6381C131.464 93.6381 139.58 93.4575 137.85 89.0418C136.193 84.7999 124.123 90.2022 124.123 90.2022L119.433 92.0087ZM117.123 97.6507C114.976 98.0224 116.387 99.1897 124.697 100.85C128.591 101.632 136.578 103.074 135.762 98.4185C134.98 93.9299 122.077 96.8273 122.077 96.8273L117.123 97.6507ZM114.538 104.54C112.711 104.804 113.878 105.822 120.865 107.42C124.141 108.17 130.863 109.577 130.28 105.606C129.724 101.785 118.746 103.946 118.746 103.946L114.538 104.54ZM112.576 110.922C110.786 111.377 112.054 112.266 119.176 113.114C122.511 113.51 129.345 114.198 128.348 110.31C127.386 106.579 116.699 109.883 116.699 109.883L112.576 110.922ZM123.047 85.0848C122.004 87.4194 124.169 87.0651 131.527 80.6449C134.973 77.6328 141.887 71.3308 136.411 68.1937C131.155 65.1781 125.503 79.7277 125.503 79.7277L123.047 85.0848ZM112.846 119.235C111.745 119.878 112.826 120.128 117.877 119.121C120.246 118.652 125.065 117.61 123.436 115.553C121.858 113.573 115.397 117.742 115.397 117.742L112.846 119.235Z" fill="white"/>
<path d="M120.351 89.7714L119.506 75.7255L120.351 89.7714ZM117.679 94.4059L112.343 82.3263L117.679 94.4059ZM131.451 90.8935L118.662 92.7279L131.451 90.8935ZM114.914 100.916L107.99 92.033L114.914 100.916ZM116.13 98.1926L125.67 98.6721L116.13 98.1926ZM113.871 105.005L121.167 105.728L113.871 105.005ZM112.11 109.334L108.487 103.883L112.11 109.334ZM111.693 111.259L120.271 111.339L111.693 111.259ZM109.956 127.351C110.014 127.346 110.067 127.32 110.105 127.276C110.142 127.232 110.161 127.176 110.158 127.118C109.612 118.926 112.781 105.509 117.863 94.4962C121.112 87.4576 133.844 73.6237 133.98 73.4847C134.021 73.4437 134.044 73.3881 134.044 73.3301C134.044 73.2722 134.021 73.2166 133.98 73.1755C133.96 73.1554 133.936 73.1393 133.91 73.1284C133.883 73.1175 133.855 73.1119 133.827 73.1119C133.798 73.1119 133.77 73.1175 133.744 73.1284C133.718 73.1393 133.694 73.1554 133.674 73.1755C133.545 73.3145 120.761 87.2005 117.485 94.3016C112.308 105.582 109.181 118.756 109.737 127.146C109.742 127.201 109.766 127.253 109.807 127.291C109.847 127.329 109.901 127.35 109.956 127.351ZM120.347 89.9868C120.405 89.9832 120.458 89.9571 120.497 89.9142C120.535 89.8713 120.555 89.815 120.552 89.7575L119.722 75.7047C119.721 75.6761 119.714 75.648 119.701 75.6222C119.689 75.5963 119.672 75.5731 119.65 75.5541C119.629 75.535 119.604 75.5203 119.577 75.511C119.55 75.5017 119.521 75.4978 119.493 75.4997C119.435 75.5033 119.381 75.5294 119.343 75.5723C119.305 75.6152 119.285 75.6715 119.288 75.729L120.132 89.7749C120.135 89.8302 120.158 89.8823 120.198 89.9205C120.239 89.9586 120.292 89.9799 120.347 89.9798V89.9868ZM117.756 94.6039C117.808 94.5803 117.848 94.5373 117.869 94.4841C117.89 94.4308 117.889 94.3716 117.867 94.319L112.527 82.2395C112.504 82.187 112.461 82.1458 112.408 82.1249C112.354 82.1041 112.295 82.1053 112.242 82.1283C112.19 82.1514 112.148 82.1943 112.128 82.2477C112.107 82.3012 112.108 82.3607 112.131 82.4132L117.467 94.4927C117.484 94.5315 117.512 94.5646 117.547 94.588C117.582 94.6114 117.623 94.6242 117.665 94.6247C117.701 94.6266 117.737 94.6194 117.769 94.6039H117.756ZM118.68 92.9363L131.461 91.1089C131.492 91.1083 131.522 91.1011 131.55 91.0879C131.578 91.0747 131.603 91.0557 131.623 91.0323C131.643 91.0088 131.658 90.9813 131.666 90.9517C131.675 90.9221 131.677 90.891 131.673 90.8604C131.669 90.8298 131.658 90.8004 131.642 90.7742C131.626 90.748 131.604 90.7256 131.578 90.7084C131.553 90.6912 131.524 90.6796 131.493 90.6744C131.463 90.6692 131.432 90.6704 131.402 90.6781L118.621 92.5055C118.563 92.5092 118.51 92.5354 118.472 92.5784C118.435 92.6214 118.415 92.6777 118.419 92.7348C118.423 92.7919 118.449 92.8453 118.492 92.883C118.535 92.9208 118.591 92.94 118.648 92.9363H118.68ZM115.035 101.09C115.081 101.054 115.11 101.002 115.117 100.945C115.124 100.888 115.109 100.83 115.074 100.784L108.146 91.8836C108.111 91.8376 108.058 91.8075 108.001 91.8C107.943 91.7925 107.885 91.8082 107.839 91.8437C107.793 91.8792 107.762 91.9315 107.755 91.9892C107.748 92.0468 107.763 92.1051 107.799 92.1512L114.74 101.066C114.76 101.092 114.786 101.113 114.815 101.127C114.845 101.142 114.877 101.149 114.91 101.149C114.962 101.147 115.011 101.126 115.049 101.09H115.035ZM125.861 98.6825C125.863 98.625 125.842 98.5691 125.803 98.5268C125.764 98.4846 125.71 98.4594 125.652 98.4567L116.13 97.9738C116.076 97.9775 116.026 98.0007 115.988 98.039C115.951 98.0773 115.929 98.1281 115.926 98.1816C115.923 98.2352 115.941 98.2879 115.974 98.3296C116.008 98.3713 116.056 98.3993 116.109 98.408L125.649 98.8909C125.706 98.8928 125.762 98.872 125.804 98.833C125.847 98.794 125.872 98.7399 125.875 98.6825H125.861ZM121.369 105.749C121.372 105.72 121.37 105.691 121.362 105.664C121.354 105.636 121.34 105.61 121.322 105.588C121.304 105.566 121.281 105.547 121.256 105.534C121.231 105.52 121.203 105.512 121.174 105.509L113.878 104.79C113.85 104.787 113.822 104.79 113.794 104.798C113.767 104.806 113.742 104.82 113.72 104.838C113.698 104.856 113.68 104.878 113.666 104.904C113.653 104.929 113.645 104.956 113.642 104.985C113.637 105.042 113.655 105.098 113.691 105.142C113.728 105.186 113.78 105.215 113.837 105.221L121.132 105.943H121.153C121.209 105.947 121.265 105.929 121.307 105.893C121.35 105.856 121.377 105.805 121.383 105.749H121.369ZM112.214 109.515C112.263 109.483 112.296 109.433 112.308 109.377C112.32 109.32 112.308 109.261 112.277 109.213L108.671 103.762C108.638 103.715 108.588 103.682 108.531 103.671C108.475 103.66 108.417 103.672 108.368 103.703C108.32 103.734 108.287 103.784 108.275 103.841C108.263 103.897 108.274 103.956 108.306 104.005L111.912 109.456C111.933 109.486 111.96 109.51 111.992 109.527C112.024 109.544 112.06 109.553 112.096 109.553C112.143 109.556 112.19 109.542 112.228 109.515H112.214ZM120.49 111.339C120.489 111.282 120.466 111.227 120.426 111.186C120.386 111.145 120.331 111.122 120.274 111.12L111.697 111.04C111.64 111.04 111.585 111.063 111.544 111.103C111.504 111.143 111.481 111.198 111.481 111.255C111.48 111.284 111.485 111.313 111.496 111.339C111.506 111.366 111.522 111.39 111.542 111.411C111.562 111.431 111.586 111.448 111.613 111.458C111.639 111.469 111.668 111.475 111.697 111.474L120.274 111.554C120.304 111.556 120.333 111.551 120.36 111.541C120.388 111.531 120.413 111.515 120.435 111.495C120.456 111.475 120.473 111.451 120.485 111.424C120.497 111.397 120.503 111.368 120.504 111.339H120.49ZM108.98 124.165C108.997 124.127 110.46 120.097 114.858 119.135C114.915 119.122 114.964 119.088 114.995 119.039C115.027 118.99 115.037 118.931 115.025 118.874C115.011 118.819 114.976 118.771 114.927 118.74C114.879 118.71 114.82 118.699 114.764 118.711C110.126 119.725 108.587 123.981 108.57 124.023C108.552 124.078 108.556 124.137 108.581 124.189C108.607 124.241 108.651 124.281 108.705 124.301H108.775C108.821 124.305 108.867 124.294 108.907 124.269C108.946 124.245 108.977 124.208 108.994 124.165H108.98ZM109.956 127.351C110.014 127.346 110.067 127.32 110.105 127.276C110.142 127.232 110.161 127.176 110.158 127.118C109.612 118.926 112.781 105.509 117.863 94.4962C121.112 87.4576 133.844 73.6237 133.98 73.4847C134.021 73.4437 134.044 73.3881 134.044 73.3301C134.044 73.2722 134.021 73.2166 133.98 73.1755C133.96 73.1554 133.936 73.1393 133.91 73.1284C133.883 73.1175 133.855 73.1119 133.827 73.1119C133.798 73.1119 133.77 73.1175 133.744 73.1284C133.718 73.1393 133.694 73.1554 133.674 73.1755C133.545 73.3145 120.761 87.2005 117.485 94.3016C112.308 105.582 109.181 118.756 109.737 127.146C109.742 127.201 109.766 127.253 109.807 127.291C109.847 127.329 109.901 127.35 109.956 127.351ZM120.347 89.9868C120.405 89.9832 120.458 89.9571 120.497 89.9142C120.535 89.8713 120.555 89.815 120.552 89.7575L119.722 75.7047C119.721 75.6761 119.714 75.648 119.701 75.6222C119.689 75.5963 119.672 75.5731 119.65 75.5541C119.629 75.535 119.604 75.5203 119.577 75.511C119.55 75.5017 119.521 75.4978 119.493 75.4997C119.435 75.5033 119.381 75.5294 119.343 75.5723C119.305 75.6152 119.285 75.6715 119.288 75.729L120.132 89.7749C120.135 89.8302 120.158 89.8823 120.198 89.9205C120.239 89.9586 120.292 89.9799 120.347 89.9798V89.9868ZM117.756 94.6039C117.808 94.5803 117.848 94.5373 117.869 94.4841C117.89 94.4308 117.889 94.3716 117.867 94.319L112.527 82.2395C112.504 82.187 112.461 82.1458 112.408 82.1249C112.354 82.1041 112.295 82.1053 112.242 82.1283C112.19 82.1514 112.148 82.1943 112.128 82.2477C112.107 82.3012 112.108 82.3607 112.131 82.4132L117.467 94.4927C117.484 94.5315 117.512 94.5646 117.547 94.588C117.582 94.6114 117.623 94.6242 117.665 94.6247C117.701 94.6266 117.737 94.6194 117.769 94.6039H117.756ZM118.68 92.9363L131.461 91.1089C131.492 91.1083 131.522 91.1011 131.55 91.0879C131.578 91.0747 131.603 91.0557 131.623 91.0323C131.643 91.0088 131.658 90.9813 131.666 90.9517C131.675 90.9221 131.677 90.891 131.673 90.8604C131.669 90.8298 131.658 90.8004 131.642 90.7742C131.626 90.748 131.604 90.7256 131.578 90.7084C131.553 90.6912 131.524 90.6796 131.493 90.6744C131.463 90.6692 131.432 90.6704 131.402 90.6781L118.621 92.5055C118.563 92.5092 118.51 92.5354 118.472 92.5784C118.435 92.6214 118.415 92.6777 118.419 92.7348C118.423 92.7919 118.449 92.8453 118.492 92.883C118.535 92.9208 118.591 92.94 118.648 92.9363H118.68ZM115.035 101.09C115.081 101.054 115.11 101.002 115.117 100.945C115.124 100.888 115.109 100.83 115.074 100.784L108.146 91.8836C108.129 91.8608 108.107 91.8417 108.082 91.8274C108.057 91.813 108.029 91.8037 108.001 91.8C107.972 91.7963 107.943 91.7982 107.915 91.8057C107.888 91.8132 107.861 91.8261 107.839 91.8437C107.816 91.8613 107.797 91.8831 107.782 91.9081C107.768 91.9331 107.759 91.9606 107.755 91.9892C107.751 92.0177 107.753 92.0467 107.761 92.0745C107.768 92.1023 107.781 92.1283 107.799 92.1512L114.74 101.066C114.76 101.092 114.786 101.113 114.815 101.127C114.845 101.142 114.877 101.149 114.91 101.149C114.962 101.147 115.011 101.126 115.049 101.09H115.035ZM125.861 98.6825C125.863 98.625 125.842 98.5691 125.803 98.5268C125.764 98.4846 125.71 98.4594 125.652 98.4567L116.13 97.9738C116.076 97.9775 116.026 98.0007 115.988 98.039C115.951 98.0773 115.929 98.1281 115.926 98.1816C115.923 98.2352 115.941 98.2879 115.974 98.3296C116.008 98.3713 116.056 98.3993 116.109 98.408L125.649 98.8909C125.706 98.8928 125.762 98.872 125.804 98.833C125.847 98.794 125.872 98.7399 125.875 98.6825H125.861ZM121.369 105.749C121.372 105.72 121.37 105.691 121.362 105.664C121.354 105.636 121.34 105.61 121.322 105.588C121.304 105.566 121.281 105.547 121.256 105.534C121.231 105.52 121.203 105.512 121.174 105.509L113.878 104.79C113.85 104.787 113.822 104.79 113.794 104.798C113.767 104.806 113.742 104.82 113.72 104.838C113.698 104.856 113.68 104.878 113.666 104.904C113.653 104.929 113.645 104.956 113.642 104.985C113.637 105.042 113.655 105.098 113.691 105.142C113.728 105.186 113.78 105.215 113.837 105.221L121.132 105.943H121.153C121.209 105.947 121.265 105.929 121.307 105.893C121.35 105.856 121.377 105.805 121.383 105.749H121.369ZM112.214 109.515C112.263 109.483 112.296 109.433 112.308 109.377C112.32 109.32 112.308 109.261 112.277 109.213L108.671 103.762C108.638 103.715 108.588 103.682 108.531 103.671C108.475 103.66 108.417 103.672 108.368 103.703C108.32 103.734 108.287 103.784 108.275 103.841C108.263 103.897 108.274 103.956 108.306 104.005L111.912 109.456C111.933 109.486 111.96 109.51 111.992 109.527C112.024 109.544 112.06 109.553 112.096 109.553C112.143 109.556 112.19 109.542 112.228 109.515H112.214ZM120.49 111.339C120.489 111.282 120.466 111.227 120.426 111.186C120.386 111.145 120.331 111.122 120.274 111.12L111.697 111.04C111.64 111.04 111.585 111.063 111.544 111.103C111.504 111.143 111.481 111.198 111.481 111.255C111.48 111.284 111.485 111.313 111.496 111.339C111.506 111.366 111.522 111.39 111.542 111.411C111.562 111.431 111.586 111.448 111.613 111.458C111.639 111.469 111.668 111.475 111.697 111.474L120.274 111.554C120.304 111.556 120.333 111.551 120.36 111.541C120.388 111.531 120.413 111.515 120.435 111.495C120.456 111.475 120.473 111.451 120.485 111.424C120.497 111.397 120.503 111.368 120.504 111.339H120.49ZM108.98 124.165C108.997 124.127 110.46 120.097 114.858 119.135C114.915 119.122 114.964 119.088 114.995 119.039C115.027 118.99 115.037 118.931 115.025 118.874C115.011 118.819 114.976 118.771 114.927 118.74C114.879 118.71 114.82 118.699 114.764 118.711C110.126 119.725 108.587 123.981 108.57 124.023C108.552 124.078 108.556 124.137 108.581 124.189C108.607 124.241 108.651 124.281 108.705 124.301H108.775C108.821 124.305 108.867 124.294 108.907 124.269C108.946 124.245 108.977 124.208 108.994 124.165H108.98Z" fill="#FF9B5A"/>
<path opacity="0.2" d="M120.351 89.7714L119.506 75.7255L120.351 89.7714ZM117.679 94.4059L112.343 82.3263L117.679 94.4059ZM131.451 90.8935L118.662 92.7279L131.451 90.8935ZM114.914 100.916L107.99 92.033L114.914 100.916ZM116.13 98.1926L125.67 98.6721L116.13 98.1926ZM113.871 105.005L121.167 105.728L113.871 105.005ZM112.11 109.334L108.487 103.883L112.11 109.334ZM111.693 111.259L120.271 111.339L111.693 111.259ZM109.956 127.351C110.014 127.346 110.067 127.32 110.105 127.276C110.142 127.232 110.161 127.176 110.158 127.118C109.612 118.926 112.781 105.509 117.863 94.4962C121.112 87.4576 133.844 73.6237 133.98 73.4847C134.021 73.4437 134.044 73.3881 134.044 73.3301C134.044 73.2722 134.021 73.2166 133.98 73.1755C133.96 73.1554 133.936 73.1393 133.91 73.1284C133.883 73.1175 133.855 73.1119 133.827 73.1119C133.798 73.1119 133.77 73.1175 133.744 73.1284C133.718 73.1393 133.694 73.1554 133.674 73.1755C133.545 73.3145 120.761 87.2005 117.485 94.3016C112.308 105.582 109.181 118.756 109.737 127.146C109.742 127.201 109.766 127.253 109.807 127.291C109.847 127.329 109.901 127.35 109.956 127.351ZM120.347 89.9868C120.405 89.9832 120.458 89.9571 120.497 89.9142C120.535 89.8713 120.555 89.815 120.552 89.7575L119.722 75.7047C119.721 75.6761 119.714 75.648 119.701 75.6222C119.689 75.5963 119.672 75.5731 119.65 75.5541C119.629 75.535 119.604 75.5203 119.577 75.511C119.55 75.5017 119.521 75.4978 119.493 75.4997C119.435 75.5033 119.381 75.5294 119.343 75.5723C119.305 75.6152 119.285 75.6715 119.288 75.729L120.132 89.7749C120.135 89.8302 120.158 89.8823 120.198 89.9205C120.239 89.9586 120.292 89.9799 120.347 89.9798V89.9868ZM117.756 94.6039C117.808 94.5803 117.848 94.5373 117.869 94.4841C117.89 94.4308 117.889 94.3716 117.867 94.319L112.527 82.2395C112.504 82.187 112.461 82.1458 112.408 82.1249C112.354 82.1041 112.295 82.1053 112.242 82.1283C112.19 82.1514 112.148 82.1943 112.128 82.2477C112.107 82.3012 112.108 82.3607 112.131 82.4132L117.467 94.4927C117.484 94.5315 117.512 94.5646 117.547 94.588C117.582 94.6114 117.623 94.6242 117.665 94.6247C117.701 94.6266 117.737 94.6194 117.769 94.6039H117.756ZM118.68 92.9363L131.461 91.1089C131.492 91.1083 131.522 91.1011 131.55 91.0879C131.578 91.0747 131.603 91.0557 131.623 91.0323C131.643 91.0088 131.658 90.9813 131.666 90.9517C131.675 90.9221 131.677 90.891 131.673 90.8604C131.669 90.8298 131.658 90.8004 131.642 90.7742C131.626 90.748 131.604 90.7256 131.578 90.7084C131.553 90.6912 131.524 90.6796 131.493 90.6744C131.463 90.6692 131.432 90.6704 131.402 90.6781L118.621 92.5055C118.563 92.5092 118.51 92.5354 118.472 92.5784C118.435 92.6214 118.415 92.6777 118.419 92.7348C118.423 92.7919 118.449 92.8453 118.492 92.883C118.535 92.9208 118.591 92.94 118.648 92.9363H118.68ZM115.035 101.09C115.081 101.054 115.11 101.002 115.117 100.945C115.124 100.888 115.109 100.83 115.074 100.784L108.146 91.8836C108.111 91.8376 108.058 91.8075 108.001 91.8C107.943 91.7925 107.885 91.8082 107.839 91.8437C107.793 91.8792 107.762 91.9315 107.755 91.9892C107.748 92.0468 107.763 92.1051 107.799 92.1512L114.74 101.066C114.76 101.092 114.786 101.113 114.815 101.127C114.845 101.142 114.877 101.149 114.91 101.149C114.962 101.147 115.011 101.126 115.049 101.09H115.035ZM125.861 98.6825C125.863 98.625 125.842 98.5691 125.803 98.5268C125.764 98.4846 125.71 98.4594 125.652 98.4567L116.13 97.9738C116.076 97.9775 116.026 98.0007 115.988 98.039C115.951 98.0773 115.929 98.1281 115.926 98.1816C115.923 98.2352 115.941 98.2879 115.974 98.3296C116.008 98.3713 116.056 98.3993 116.109 98.408L125.649 98.8909C125.706 98.8928 125.762 98.872 125.804 98.833C125.847 98.794 125.872 98.7399 125.875 98.6825H125.861ZM121.369 105.749C121.372 105.72 121.37 105.691 121.362 105.664C121.354 105.636 121.34 105.61 121.322 105.588C121.304 105.566 121.281 105.547 121.256 105.534C121.231 105.52 121.203 105.512 121.174 105.509L113.878 104.79C113.85 104.787 113.822 104.79 113.794 104.798C113.767 104.806 113.742 104.82 113.72 104.838C113.698 104.856 113.68 104.878 113.666 104.904C113.653 104.929 113.645 104.956 113.642 104.985C113.637 105.042 113.655 105.098 113.691 105.142C113.728 105.186 113.78 105.215 113.837 105.221L121.132 105.943H121.153C121.209 105.947 121.265 105.929 121.307 105.893C121.35 105.856 121.377 105.805 121.383 105.749H121.369ZM112.214 109.515C112.263 109.483 112.296 109.433 112.308 109.377C112.32 109.32 112.308 109.261 112.277 109.213L108.671 103.762C108.638 103.715 108.588 103.682 108.531 103.671C108.475 103.66 108.417 103.672 108.368 103.703C108.32 103.734 108.287 103.784 108.275 103.841C108.263 103.897 108.274 103.956 108.306 104.005L111.912 109.456C111.933 109.486 111.96 109.51 111.992 109.527C112.024 109.544 112.06 109.553 112.096 109.553C112.143 109.556 112.19 109.542 112.228 109.515H112.214ZM120.49 111.339C120.489 111.282 120.466 111.227 120.426 111.186C120.386 111.145 120.331 111.122 120.274 111.12L111.697 111.04C111.64 111.04 111.585 111.063 111.544 111.103C111.504 111.143 111.481 111.198 111.481 111.255C111.48 111.284 111.485 111.313 111.496 111.339C111.506 111.366 111.522 111.39 111.542 111.411C111.562 111.431 111.586 111.448 111.613 111.458C111.639 111.469 111.668 111.475 111.697 111.474L120.274 111.554C120.304 111.556 120.333 111.551 120.36 111.541C120.388 111.531 120.413 111.515 120.435 111.495C120.456 111.475 120.473 111.451 120.485 111.424C120.497 111.397 120.503 111.368 120.504 111.339H120.49ZM108.98 124.165C108.997 124.127 110.46 120.097 114.858 119.135C114.915 119.122 114.964 119.088 114.995 119.039C115.027 118.99 115.037 118.931 115.025 118.874C115.011 118.819 114.976 118.771 114.927 118.74C114.879 118.71 114.82 118.699 114.764 118.711C110.126 119.725 108.587 123.981 108.57 124.023C108.552 124.078 108.556 124.137 108.581 124.189C108.607 124.241 108.651 124.281 108.705 124.301H108.775C108.821 124.305 108.867 124.294 108.907 124.269C108.946 124.245 108.977 124.208 108.994 124.165H108.98ZM109.956 127.351C110.014 127.346 110.067 127.32 110.105 127.276C110.142 127.232 110.161 127.176 110.158 127.118C109.612 118.926 112.781 105.509 117.863 94.4962C121.112 87.4576 133.844 73.6237 133.98 73.4847C134.021 73.4437 134.044 73.3881 134.044 73.3301C134.044 73.2722 134.021 73.2166 133.98 73.1755C133.96 73.1554 133.936 73.1393 133.91 73.1284C133.883 73.1175 133.855 73.1119 133.827 73.1119C133.798 73.1119 133.77 73.1175 133.744 73.1284C133.718 73.1393 133.694 73.1554 133.674 73.1755C133.545 73.3145 120.761 87.2005 117.485 94.3016C112.308 105.582 109.181 118.756 109.737 127.146C109.742 127.201 109.766 127.253 109.807 127.291C109.847 127.329 109.901 127.35 109.956 127.351ZM120.347 89.9868C120.405 89.9832 120.458 89.9571 120.497 89.9142C120.535 89.8713 120.555 89.815 120.552 89.7575L119.722 75.7047C119.721 75.6761 119.714 75.648 119.701 75.6222C119.689 75.5963 119.672 75.5731 119.65 75.5541C119.629 75.535 119.604 75.5203 119.577 75.511C119.55 75.5017 119.521 75.4978 119.493 75.4997C119.435 75.5033 119.381 75.5294 119.343 75.5723C119.305 75.6152 119.285 75.6715 119.288 75.729L120.132 89.7749C120.135 89.8302 120.158 89.8823 120.198 89.9205C120.239 89.9586 120.292 89.9799 120.347 89.9798V89.9868ZM117.756 94.6039C117.808 94.5803 117.848 94.5373 117.869 94.4841C117.89 94.4308 117.889 94.3716 117.867 94.319L112.527 82.2395C112.504 82.187 112.461 82.1458 112.408 82.1249C112.354 82.1041 112.295 82.1053 112.242 82.1283C112.19 82.1514 112.148 82.1943 112.128 82.2477C112.107 82.3012 112.108 82.3607 112.131 82.4132L117.467 94.4927C117.484 94.5315 117.512 94.5646 117.547 94.588C117.582 94.6114 117.623 94.6242 117.665 94.6247C117.701 94.6266 117.737 94.6194 117.769 94.6039H117.756ZM118.68 92.9363L131.461 91.1089C131.492 91.1083 131.522 91.1011 131.55 91.0879C131.578 91.0747 131.603 91.0557 131.623 91.0323C131.643 91.0088 131.658 90.9813 131.666 90.9517C131.675 90.9221 131.677 90.891 131.673 90.8604C131.669 90.8298 131.658 90.8004 131.642 90.7742C131.626 90.748 131.604 90.7256 131.578 90.7084C131.553 90.6912 131.524 90.6796 131.493 90.6744C131.463 90.6692 131.432 90.6704 131.402 90.6781L118.621 92.5055C118.563 92.5092 118.51 92.5354 118.472 92.5784C118.435 92.6214 118.415 92.6777 118.419 92.7348C118.423 92.7919 118.449 92.8453 118.492 92.883C118.535 92.9208 118.591 92.94 118.648 92.9363H118.68ZM115.035 101.09C115.081 101.054 115.11 101.002 115.117 100.945C115.124 100.888 115.109 100.83 115.074 100.784L108.146 91.8836C108.129 91.8608 108.107 91.8417 108.082 91.8274C108.057 91.813 108.029 91.8037 108.001 91.8C107.972 91.7963 107.943 91.7982 107.915 91.8057C107.888 91.8132 107.861 91.8261 107.839 91.8437C107.816 91.8613 107.797 91.8831 107.782 91.9081C107.768 91.9331 107.759 91.9606 107.755 91.9892C107.751 92.0177 107.753 92.0467 107.761 92.0745C107.768 92.1023 107.781 92.1283 107.799 92.1512L114.74 101.066C114.76 101.092 114.786 101.113 114.815 101.127C114.845 101.142 114.877 101.149 114.91 101.149C114.962 101.147 115.011 101.126 115.049 101.09H115.035ZM125.861 98.6825C125.863 98.625 125.842 98.5691 125.803 98.5268C125.764 98.4846 125.71 98.4594 125.652 98.4567L116.13 97.9738C116.076 97.9775 116.026 98.0007 115.988 98.039C115.951 98.0773 115.929 98.1281 115.926 98.1816C115.923 98.2352 115.941 98.2879 115.974 98.3296C116.008 98.3713 116.056 98.3993 116.109 98.408L125.649 98.8909C125.706 98.8928 125.762 98.872 125.804 98.833C125.847 98.794 125.872 98.7399 125.875 98.6825H125.861ZM121.369 105.749C121.372 105.72 121.37 105.691 121.362 105.664C121.354 105.636 121.34 105.61 121.322 105.588C121.304 105.566 121.281 105.547 121.256 105.534C121.231 105.52 121.203 105.512 121.174 105.509L113.878 104.79C113.85 104.787 113.822 104.79 113.794 104.798C113.767 104.806 113.742 104.82 113.72 104.838C113.698 104.856 113.68 104.878 113.666 104.904C113.653 104.929 113.645 104.956 113.642 104.985C113.637 105.042 113.655 105.098 113.691 105.142C113.728 105.186 113.78 105.215 113.837 105.221L121.132 105.943H121.153C121.209 105.947 121.265 105.929 121.307 105.893C121.35 105.856 121.377 105.805 121.383 105.749H121.369ZM112.214 109.515C112.263 109.483 112.296 109.433 112.308 109.377C112.32 109.32 112.308 109.261 112.277 109.213L108.671 103.762C108.638 103.715 108.588 103.682 108.531 103.671C108.475 103.66 108.417 103.672 108.368 103.703C108.32 103.734 108.287 103.784 108.275 103.841C108.263 103.897 108.274 103.956 108.306 104.005L111.912 109.456C111.933 109.486 111.96 109.51 111.992 109.527C112.024 109.544 112.06 109.553 112.096 109.553C112.143 109.556 112.19 109.542 112.228 109.515H112.214ZM120.49 111.339C120.489 111.282 120.466 111.227 120.426 111.186C120.386 111.145 120.331 111.122 120.274 111.12L111.697 111.04C111.64 111.04 111.585 111.063 111.544 111.103C111.504 111.143 111.481 111.198 111.481 111.255C111.48 111.284 111.485 111.313 111.496 111.339C111.506 111.366 111.522 111.39 111.542 111.411C111.562 111.431 111.586 111.448 111.613 111.458C111.639 111.469 111.668 111.475 111.697 111.474L120.274 111.554C120.304 111.556 120.333 111.551 120.36 111.541C120.388 111.531 120.413 111.515 120.435 111.495C120.456 111.475 120.473 111.451 120.485 111.424C120.497 111.397 120.503 111.368 120.504 111.339H120.49ZM108.98 124.165C108.997 124.127 110.46 120.097 114.858 119.135C114.915 119.122 114.964 119.088 114.995 119.039C115.027 118.99 115.037 118.931 115.025 118.874C115.011 118.819 114.976 118.771 114.927 118.74C114.879 118.71 114.82 118.699 114.764 118.711C110.126 119.725 108.587 123.981 108.57 124.023C108.552 124.078 108.556 124.137 108.581 124.189C108.607 124.241 108.651 124.281 108.705 124.301H108.775C108.821 124.305 108.867 124.294 108.907 124.269C108.946 124.245 108.977 124.208 108.994 124.165H108.98Z" fill="black"/>
<path d="M115.629 121.226H105.794V123.262H106.652L108.427 134.369H112.996L114.771 123.262H115.629V121.226Z" fill="#FF9B5A"/>
<path opacity="0.3" d="M115.629 121.226H105.794V123.262H106.652L108.427 134.369H112.996L114.771 123.262H115.629V121.226Z" fill="white"/>
<path d="M27.0805 59.6647L15.6402 55.93L14.6223 53.241L12.2981 53.1681L8.08057 52.369L8.58779 53.241L13.8962 57.0938L15.206 57.747L27.1708 63.9969L27.0805 59.6647Z" fill="white" stroke="#263238" stroke-width="1.00396" stroke-miterlimit="10"/>
<path d="M14.6222 53.241L13.5313 52.5878L11.353 53.3869L11.7143 53.8211L14.6222 53.241Z" fill="white" stroke="#263238" stroke-width="1.00396" stroke-linejoin="round"/>
<path d="M27.0805 59.6647L15.6402 55.93L14.6223 53.241L12.2981 53.1681L8.08057 52.369L8.58779 53.241L13.8962 57.0938L15.206 57.747L27.1708 63.9969L27.0805 59.6647Z" fill="white"/>
<path opacity="0.5" d="M27.0805 59.6647L15.6402 55.93L14.6223 53.241L12.2981 53.1681L8.08057 52.369L8.58779 53.241L13.8962 57.0938L15.206 57.747L27.1708 63.9969L27.0805 59.6647Z" fill="#FF9B5A" stroke="#263238" stroke-width="1.00396" stroke-miterlimit="10"/>
<path d="M27.0805 59.6647L15.6402 55.93L14.6223 53.241L12.2981 53.1681L8.08057 52.369L8.58779 53.241L13.8962 57.0938L15.206 57.747L27.1708 63.9969L27.0805 59.6647Z" stroke="#263238" stroke-width="1.00396" stroke-miterlimit="10"/>
<path d="M14.6222 53.241L13.5313 52.5878L11.353 53.3869L11.7143 53.8211L14.6222 53.241Z" fill="white"/>
<path opacity="0.5" d="M14.6222 53.241L13.5313 52.5878L11.353 53.3869L11.7143 53.8211L14.6222 53.241Z" fill="#FF9B5A" stroke="#263238" stroke-width="1.00396" stroke-linejoin="round"/>
<path d="M14.6222 53.241L13.5313 52.5878L11.353 53.3869L11.7143 53.8211L14.6222 53.241Z" stroke="#263238" stroke-width="1.00396" stroke-linejoin="round"/>
<path d="M29.5091 35.4258C29.5091 35.4258 29.3319 36.9891 29.7731 37.9931C30.2144 38.9971 32.6636 42.3983 32.6636 42.3983L28.0917 46.0635C28.0917 46.0635 26.1948 42.242 25.8335 41.6236C25.4722 41.0052 25.0379 38.344 26.2156 36.4367C27.3934 34.5294 29.0887 34.0153 29.5091 35.4258Z" fill="white"/>
<g style="mix-blend-mode:multiply" opacity="0.5">
<path d="M27.1603 40.4493L29.144 44.5627L28.0879 46.067L26.0938 42.506L27.1603 40.4493Z" fill="#FF9B5A"/>
</g>
<path d="M29.5091 35.4258C29.5091 35.4258 29.3319 36.9891 29.7731 37.9931C30.2144 38.9971 32.6636 42.3983 32.6636 42.3983L28.0917 46.0635C28.0917 46.0635 26.1948 42.242 25.8335 41.6236C25.4722 41.0052 25.0379 38.344 26.2156 36.4367C27.3934 34.5294 29.0887 34.0153 29.5091 35.4258Z" stroke="#263238" stroke-width="1.00396" stroke-miterlimit="10"/>
<path d="M30.9264 32.563C30.645 30.826 28.6544 27.2928 25.4964 27.4283C23.4467 27.5186 22.4878 27.932 21.5984 28.4358C20.8735 28.8629 20.1977 29.3685 19.5834 29.9435C18.0409 31.7953 17.499 32.3025 17.7978 33.7199C17.7732 34.2853 17.8618 34.8498 18.0583 35.3805C18.5308 36.6416 18.8539 37.465 19.2638 38.066C19.1388 38.6532 18.8122 40.2026 18.7948 40.557C18.7775 40.9113 19.8371 40.6647 20.3721 40.5292C21.3657 42.7526 23.1861 44.2951 23.7524 44.4723C24.739 44.7815 26.2989 43.1591 27.1258 41.9015C27.9526 40.6438 27.3273 39.2299 27.3307 38.6671C27.3342 38.1042 29.1894 36.8675 29.8773 36.4749C30.5651 36.0823 31.2044 34.2966 30.9264 32.563Z" fill="white"/>
<g style="mix-blend-mode:multiply" opacity="0.5">
<path d="M17.8115 33.7199C17.787 34.2853 17.8756 34.8498 18.0721 35.3805C18.5446 36.6416 18.8677 37.465 19.2776 38.066C19.1525 38.6531 18.826 40.2026 18.8086 40.557C18.7912 40.9113 19.8508 40.6646 20.3859 40.5292C21.3795 42.7526 23.1999 44.2951 23.7662 44.4723C24.7528 44.7815 26.3127 43.1591 27.1395 41.9014C27.3461 41.5875 27.4802 41.2314 27.5321 40.8592C27.487 40.6959 27.4557 40.5952 27.4557 40.5952C27.4557 40.5952 26.9902 42.3843 26.066 42.1516C25.1419 41.9188 23.728 40.0671 22.9393 39.4279C22.1507 38.7886 22.4738 37.9479 22.3175 36.996C22.1611 36.0441 19.8265 35.2068 19.6702 34.6614C19.5139 34.1159 20.0593 31.8578 20.0593 31.8578C20.0593 31.8578 20.9452 30.6766 20.7541 31.1629C20.6191 31.5847 20.5701 32.0292 20.6101 32.4702C20.65 32.9113 20.7782 33.3397 20.9869 33.7303C21.1333 34.0385 21.3656 34.2978 21.6559 34.4772C21.9462 34.6565 22.2821 34.7482 22.6232 34.7413L23.4709 30.5411L21.6817 29.0611L19.5972 29.9296C18.0408 31.7952 17.5093 32.3024 17.8115 33.7199Z" fill="#FF9B5A"/>
</g>
<path d="M30.9264 32.563C30.645 30.826 28.6544 27.2928 25.4964 27.4283C23.4467 27.5186 22.4878 27.932 21.5984 28.4358C20.8735 28.8629 20.1977 29.3685 19.5834 29.9435C18.0409 31.7953 17.499 32.3025 17.7978 33.7199C17.7732 34.2853 17.8618 34.8498 18.0583 35.3805C18.5308 36.6416 18.8539 37.465 19.2638 38.066C19.1388 38.6532 18.8122 40.2026 18.7948 40.557C18.7775 40.9113 19.8371 40.6647 20.3721 40.5292C21.3657 42.7526 23.1861 44.2951 23.7524 44.4723C24.739 44.7815 26.2989 43.1591 27.1258 41.9015C27.9526 40.6438 27.3273 39.2299 27.3307 38.6671C27.3342 38.1042 29.1894 36.8675 29.8773 36.4749C30.5651 36.0823 31.2044 34.2966 30.9264 32.563Z" stroke="#263238" stroke-miterlimit="10"/>
<path d="M19.6943 37.0168L20.0417 38.0104C20.0417 38.0104 20.7887 38.2571 21.6989 37.2635" stroke="#263238" stroke-miterlimit="10" stroke-linecap="round"/>
<path d="M22.262 41.6583C22.262 41.6583 23.0888 41.575 23.4223 40.4146" stroke="#263238" stroke-miterlimit="10" stroke-linecap="round"/>
<path d="M19.1143 36.1865C19.1143 36.1865 19.3609 35.4396 20.8513 35.4396" stroke="#263238" stroke-miterlimit="10" stroke-linecap="round"/>
<path d="M26.754 26.0456C25.671 25.8899 24.5789 25.8063 23.4849 25.7955C23.4849 25.7955 20.2122 23.909 17.0682 25.9205C13.9241 27.9321 15.4353 31.4548 15.4353 32.3338C15.4353 33.2127 14.4278 33.2162 15.0567 34.3488C15.6855 35.4813 17.8116 34.856 17.8116 34.856C17.8341 34.4288 17.947 34.0113 18.1428 33.631C18.3387 33.2507 18.613 32.9163 18.9477 32.6499C20.0802 31.771 20.9835 31.5799 21.3587 31.8335C21.3587 31.8335 21.1086 33.7199 21.4838 34.4738C21.4838 34.4738 22.7414 35.1026 23.1201 35.1026C23.4988 35.1026 22.8734 35.6342 24.1276 36.1067C24.3561 36.1887 24.6005 36.2167 24.8416 36.1883C25.0827 36.16 25.314 36.0762 25.5172 35.9434C25.7013 35.1791 26.1043 34.0291 26.8548 34.2966C27.9561 34.6892 28.9601 37.399 27.4697 38.3231C29.2623 38.6497 31.4336 35.4778 31.5622 32.5874C31.6907 29.6969 28.6161 26.3722 26.754 26.0456Z" fill="#263238"/>
<path d="M21.4143 30.5932C21.4143 30.5932 22.3384 30.0964 23.471 31.1595C24.6035 32.2226 26.8061 33.6435 29.7244 32.8618" stroke="white" stroke-width="0.5" stroke-linecap="round" stroke-linejoin="round"/>
<path d="M21.2854 29.742C21.2854 29.742 21.9212 28.7484 22.9842 28.7484C24.0473 28.7484 26.5313 30.2388 28.515 30.2388" stroke="white" stroke-width="0.5" stroke-linecap="round" stroke-linejoin="round"/>
<path d="M20.5628 31.6563C20.5628 31.6563 19.3573 30.1694 18.2247 31.3749C17.0921 32.5804 17.8113 33.7199 17.8113 33.7199" stroke="white" stroke-width="0.5" stroke-linecap="round" stroke-linejoin="round"/>
<path d="M15.7444 32.6499C16.4352 32.0269 16.8647 31.1655 16.9464 30.2389C17.0889 28.679 19.2185 27.3311 20.563 28.6095" stroke="white" stroke-width="0.5" stroke-linecap="round" stroke-linejoin="round"/>
<path d="M17.9399 26.9767C17.9399 26.9767 20.0696 24.92 21.8414 27.543" stroke="white" stroke-width="0.5" stroke-linecap="round" stroke-linejoin="round"/>
<path d="M35.2724 128.098C35.2724 128.098 36.5821 130.134 36.4362 131.443L36.2937 132.753C36.2937 132.753 31.489 134.07 30.4711 134.07C29.4532 134.07 24.0649 133.559 24.0649 133.559L23.8321 132.635C23.8158 132.567 23.8235 132.495 23.8538 132.432C23.8842 132.368 23.9354 132.318 23.9988 132.288L28.8035 130.047L30.3183 128.39L35.2724 128.098Z" fill="white" stroke="#263238" stroke-width="1.00396" stroke-miterlimit="10"/>
<path d="M31.2008 133.045C32.5036 133.146 34.9772 132.35 36.412 131.843L36.3112 132.753C36.3112 132.753 31.4891 134.07 30.4712 134.07C29.4533 134.07 24.065 133.559 24.065 133.559L23.8982 132.899C24.7598 132.903 29.4776 132.913 31.2008 133.045Z" fill="#FF9B5A" stroke="#263238" stroke-width="1.00396" stroke-miterlimit="10"/>
<path d="M28.8107 130.047L21.8173 133.09C21.8173 133.09 21.2198 134.587 21.8173 134.886C22.4149 135.185 35.4428 134.886 35.4428 134.886C35.4428 134.886 36.3426 132.52 34.9217 130.933C33.5008 129.345 28.8107 130.047 28.8107 130.047Z" fill="white" stroke="#263238" stroke-width="1.00396" stroke-miterlimit="10"/>
<path d="M35.4426 134.886C35.4426 134.886 22.4147 135.185 21.8171 134.886C21.5288 134.74 21.5184 134.32 21.5844 133.92H35.6719C35.6259 134.249 35.5491 134.572 35.4426 134.886Z" fill="#FF9B5A" stroke="#263238" stroke-width="1.00396" stroke-miterlimit="10"/>
<path d="M25.5031 77.1672C25.5031 77.1672 23.6757 85.2654 22.9844 90.3307C22.293 95.3959 21.8866 105.544 22.0325 106.708C22.1784 107.871 29.4532 127.372 29.4532 127.372L30.1793 129.109L35.2723 128.091C35.2723 128.091 32.9447 120.67 32.0727 116.595C31.2007 112.52 29.2934 105.825 29.2934 104.661C29.2934 103.498 33.8097 81.2702 34.1328 79.811C34.4559 78.3519 35.922 76.1111 35.922 76.1111L26.1702 75.9131L25.5031 77.1672Z" fill="#FF9B5A" stroke="#263238" stroke-width="1.00396" stroke-miterlimit="10"/>
<path d="M25.5033 77.1673C25.5033 77.1673 24.4333 84.5637 24.8745 89.7054C25.3157 94.8471 26.2641 105.794 26.2641 107.423C26.2641 109.053 28.8941 118.784 29.0434 121.841C29.2762 126.257 28.9496 128.442 28.9496 128.442L28.7933 130.043C28.7933 130.043 31.8609 130.481 32.5315 130.672C33.3059 130.872 34.1051 130.958 34.9043 130.929C34.9043 130.929 36.0195 126.02 36.0195 121.837C36.0195 117.655 35.0919 109.046 34.6298 105.558C34.1678 102.07 35.6234 88.6145 36.4503 86.1027C37.2771 83.5909 39.0836 78.272 37.8677 75.5553C36.6518 72.8385 25.5033 77.1673 25.5033 77.1673Z" fill="#FF9B5A" stroke="#263238" stroke-width="1.00396" stroke-miterlimit="10"/>
<path d="M39.2189 74.1934L39.1077 77.5008C39.1077 77.5008 37.1274 77.8934 34.4593 78.3554C32.2567 78.7376 26.7259 78.2547 24.8638 78.074C24.6941 78.059 24.5372 77.9775 24.4273 77.8474C24.3173 77.7173 24.2632 77.549 24.2767 77.3792L24.4573 74.3914L39.2189 74.1934Z" fill="#263238"/>
<path d="M31.4786 41.2241C31.4786 41.2241 28.3519 44.6044 27.1742 46.7062C25.9964 48.8081 25.5309 52.0286 25.0897 54.5647C24.6485 57.1008 25.8436 63.0554 25.5066 65.7895L24.44 74.4019C24.44 74.4019 24.2107 74.9855 24.9785 75.6248C25.7463 76.264 29.4949 76.4968 32.8821 76.667C34.1189 76.7295 37.8119 75.934 38.4164 75.8957C39.146 75.8506 39.1703 74.923 39.2016 74.1934C39.3475 70.7645 39.9659 61.6241 40.3723 57.6427C41.2096 49.5237 36.6272 41.6861 31.4786 41.2241Z" fill="white" stroke="#263238" stroke-width="1.00396" stroke-miterlimit="10"/>
<g style="mix-blend-mode:multiply">
<path d="M39.9902 62.2599C40.1292 60.4568 40.2682 58.8205 40.3898 57.6428C40.4245 57.2953 40.4453 56.9479 40.4627 56.6005L32.1561 57.9902L25.0203 55.5583C25.021 57.0348 25.1046 58.5102 25.2704 59.9774L32.2707 61.9368L39.9902 62.2599Z" fill="#FF9B5A"/>
</g>
<g style="mix-blend-mode:multiply">
<path d="M31.1696 41.5645C30.6971 42.089 29.7591 43.1556 28.8662 44.2882L34.1399 49.6487L35.877 48.9539L31.1696 41.5645Z" fill="#FF9B5A"/>
</g>
<path d="M31.4787 41.2241C31.4787 41.2241 28.352 44.6044 27.1743 46.7062C26.8251 47.345 26.5422 48.0178 26.3301 48.7143L32.6182 41.4499C32.2467 41.3373 31.8651 41.2617 31.4787 41.2241Z" fill="#263238"/>
<g style="mix-blend-mode:multiply">
<path d="M25.333 53.1958L32.1562 55.4401L40.4419 54.4882C40.3121 52.4241 39.8535 50.394 39.0836 48.4745L32.4028 51.1531L26.4308 48.4467C25.9425 49.999 25.5755 51.5868 25.333 53.1958Z" fill="#FF9B5A"/>
</g>
<g style="mix-blend-mode:multiply">
<path d="M37.079 70.7644C33.6183 71.3455 30.0674 71.0553 26.7469 69.9202L25.0828 69.3505L24.5652 73.5194L26.4621 74.0509C30.0681 75.0592 33.837 75.3495 37.5549 74.9056L39.087 74.7215C39.1667 74.5526 39.2116 74.3695 39.219 74.183C39.2607 73.2554 39.3337 71.9074 39.4275 70.3614L37.079 70.7644Z" fill="#FF9B5A"/>
</g>
<g style="mix-blend-mode:multiply">
<path d="M38.0065 65.0878C34.5457 65.6711 30.9939 65.3797 27.6745 64.2401L25.5553 63.514C25.6078 64.2709 25.5974 65.0309 25.524 65.786L25.2773 67.7906L27.3896 68.3812C30.9942 69.3905 34.762 69.682 38.479 69.2393L39.5212 69.1143C39.6081 67.7246 39.7088 66.2446 39.8165 64.782L38.0065 65.0878Z" fill="#FF9B5A"/>
</g>
<path d="M5.41279 50.3964L12.1301 55.7972L12.4197 55.4371L5.70232 50.0363L5.41279 50.3964Z" fill="#263238"/>
<path d="M34.7131 44.9727C34.7131 44.9727 37.1763 46.6507 37.2319 50.6146C37.2562 52.3517 37.0755 53.9741 36.676 56.8194C36.2765 59.6647 33.796 68.9302 31.8643 70.0558C29.9327 71.1814 26.9346 69.0552 26.9346 69.0552L12.4336 59.4285L8.92822 56.5971L7.19116 53.3175L7.7366 52.2753L12.0132 55.5548L9.7099 53.4252L10.1615 52.852L10.9953 53.4321L13.4272 54.3424L13.9587 57.8165L14.7092 58.3306L28.5813 63.3994C28.5813 63.3994 28.4076 55.9335 28.5361 54.5056C28.6647 53.0778 28.8419 49.489 30.3705 46.8869" fill="white"/>
<g style="mix-blend-mode:multiply" opacity="0.5">
<path d="M28.4838 57.7574C28.4838 60.3352 28.5707 63.3993 28.5707 63.3993L14.7124 58.3514L13.962 57.8373L13.4305 54.3632L10.9986 53.4529L10.1683 52.8623L9.71664 53.4356L12.013 55.5548L7.73639 52.2752L7.21875 53.3001L8.95581 56.5796L12.4612 59.4284L13.3436 60.0155L32.5034 66.1891L28.4838 57.7574Z" fill="#FF9B5A"/>
</g>
<path d="M34.7131 44.9727C34.7131 44.9727 37.1763 46.6507 37.2319 50.6146C37.2562 52.3517 37.0755 53.9741 36.676 56.8194C36.2765 59.6647 33.796 68.9302 31.8643 70.0558C29.9327 71.1814 26.9346 69.0552 26.9346 69.0552L12.4336 59.4285L8.92822 56.5971L7.19116 53.3175L7.7366 52.2753L12.0132 55.5548L9.7099 53.4252L10.1615 52.852L10.9953 53.4321L13.4272 54.3424L13.9587 57.8165L14.7092 58.3306L28.5813 63.3994C28.5813 63.3994 28.4076 55.9335 28.5361 54.5056C28.6647 53.0778 28.8419 49.489 30.3705 46.8869" stroke="#263238" stroke-width="1.00396" stroke-miterlimit="10"/>
<path d="M28.5812 63.3993L33.8758 67.2208L35.2481 64.7889C35.2481 64.7889 36.1965 64.042 36.3355 63.4792C36.4744 62.9164 36.2973 62.0027 36.4397 61.4399C36.5821 60.8771 37.2909 60.349 37.3569 58.9871C37.4229 57.6253 37.3569 56.4893 37.3569 56.4893C37.3569 56.4893 38.5033 51.7749 38.3783 49.7251C38.2532 47.6754 36.2764 44.0519 34.6922 43.972C33.108 43.8921 31.0479 44.1318 29.4498 46.5498C27.8517 48.9678 28.1782 56.0272 27.9281 56.4684C27.678 56.9096 28.0254 59.0879 28.0254 59.0879C27.8865 59.1915 27.7713 59.3234 27.6875 59.475C27.6036 59.6265 27.553 59.7942 27.539 59.9668C27.5112 60.5331 28.1227 61.9262 28.1227 61.9262L28.5812 63.3993Z" fill="white" stroke="#263238" stroke-width="1.00396" stroke-miterlimit="10"/>
<g style="mix-blend-mode:multiply">
<path d="M28.0671 54.655C28.078 55.2612 28.0327 55.8671 27.9316 56.465C27.7093 56.861 27.9629 58.6502 28.0185 59.015C30.9964 59.9399 34.1453 60.1775 37.2284 59.7098C37.2946 59.4682 37.3342 59.2201 37.3465 58.9698C37.416 57.6114 37.3465 56.4719 37.3465 56.4719C37.3465 56.4719 37.4472 56.0516 37.5862 55.4123C34.3933 55.6153 31.1878 55.3602 28.0671 54.655Z" fill="#FF9B5A"/>
</g>
<g style="mix-blend-mode:multiply">
<path d="M29.2343 46.9355C28.7375 47.9326 28.4596 49.4299 28.2998 50.9481C31.4536 52.1517 34.854 52.5656 38.2045 52.1536C38.3382 51.3502 38.3975 50.5361 38.3817 49.7217C38.3215 49.078 38.1694 48.4463 37.9301 47.8457C35.0045 47.914 32.0823 47.6081 29.2343 46.9355Z" fill="#FF9B5A"/>
</g>
<path d="M28.1226 61.9645L28.5707 63.3994L33.8653 67.2209L35.2376 64.789C35.2376 64.789 36.186 64.0421 36.3249 63.4793C36.3497 63.3814 36.3649 63.2813 36.3701 63.1805C33.58 63.1323 30.8079 62.7236 28.1226 61.9645Z" fill="#263238"/>
<path d="M31.9547 130.627C31.9547 130.627 32.0728 127.618 32.6495 123.22C33.2262 118.822 31.84 112.576 31.6072 111.533C31.3745 110.491 31.7254 108.177 31.4926 107.364C31.2598 106.551 30.1342 103.084 30.7978 99.0612C31.4613 95.0382 31.9998 84.4039 31.9998 84.4039C31.9998 84.4039 30.3288 83.0455 29.8389 81.2772C29.3491 79.5089 29.7243 78.953 29.7243 78.953" stroke="#263238" stroke-width="1.00396" stroke-miterlimit="10"/>
<path d="M32.7294 79.1162L32.0867 82.6737" stroke="#263238" stroke-width="1.00396" stroke-miterlimit="10"/>
</svg>
