<svg width="14" height="14" viewBox="0 0 14 14" fill="none" xmlns="http://www.w3.org/2000/svg">
<path d="M5.70143 1.78439L5.7433 5.62648L1.90228 5.66754C1.16453 5.67435 0.57141 6.28025 0.580321 7.01798C0.586027 7.75898 1.19076 8.34883 1.92958 8.34093L5.77169 8.30093L5.81142 12.1452C5.81926 12.884 6.42615 13.4738 7.16284 13.4681C7.90057 13.4592 8.49369 12.8533 8.48587 12.1166L8.44505 8.27127L12.2807 8.23134C13.0195 8.22344 13.6126 7.61755 13.6026 6.88091C13.5998 6.51041 13.4472 6.17931 13.2027 5.93995C12.9571 5.69951 12.6228 5.55401 12.2534 5.55796L8.41668 5.59898L8.37479 1.75473C8.37087 1.38532 8.21828 1.05422 7.97376 0.814858C7.72924 0.575491 7.39281 0.43001 7.02446 0.432868C6.28564 0.440767 5.69359 1.04557 5.70143 1.78439Z" fill="#200E32"/>
</svg>
