<svg xmlns="http://www.w3.org/2000/svg" width="191.043" height="191.043" viewBox="0 0 191.043 191.043">
  <g id="disable-alarm" transform="translate(0 0)">
    <path id="Path_1988" data-name="Path 1988" d="M202.151,147.517c-4.555-6.8-10.79-16.107-10.79-42.6V92.974a55.8,55.8,0,0,0-39.8-53.374V37.253a15.92,15.92,0,1,0-31.84,0V39.6a55.8,55.8,0,0,0-39.8,53.374v11.94c0,26.5-6.234,35.8-10.79,42.6C66.5,151.455,64,155.174,64,160.635c0,12.976,27.05,17.529,48.981,19.1a23.713,23.713,0,0,0,45.32,0c21.931-1.568,48.981-6.122,48.981-19.1C207.282,155.174,204.787,151.455,202.151,147.517ZM143.6,37.889a50.144,50.144,0,0,0-15.92,0v-.636a7.96,7.96,0,1,1,15.92,0Z" transform="translate(-40.12 -13.373)" fill="#8e99a3"/>
    <path id="Path_1989" data-name="Path 1989" d="M149.014,212.695c-36.45,0-63.681-6.3-63.681-11.94,0-2.911,1.228-4.874,3.786-8.687,4.828-7.214,12.135-18.117,12.135-47.034v-11.94a47.761,47.761,0,0,1,95.521,0v11.94c0,28.918,7.307,39.82,12.135,47.034,2.557,3.813,3.786,5.776,3.786,8.687C212.695,206.39,185.464,212.695,149.014,212.695Z" transform="translate(-53.493 -53.493)" fill="#c5d0d9"/>
    <path id="Path_1990" data-name="Path 1990" d="M101.253,133.094v11.94c0,28.918-7.307,39.82-12.135,47.034-2.557,3.813-3.786,5.776-3.786,8.687,0,3.268,9.193,6.752,23.991,9.11a29.883,29.883,0,0,1,2.256-7.791c3.017-7.89,7.584-19.814,7.584-51.443v-13.06c0-28.806,13.39-52.238,29.85-52.238A47.813,47.813,0,0,0,101.253,133.094Z" transform="translate(-53.493 -53.493)" fill="#dae2ec" opacity="0.71"/>
    <path id="Path_1991" data-name="Path 1991" d="M315.9,192.068c-4.828-7.214-12.135-18.116-12.135-47.034v-11.94A47.813,47.813,0,0,0,256,85.333c16.461,0,29.85,23.432,29.85,52.238v13.06c0,31.629,4.567,43.553,7.584,51.443a29.9,29.9,0,0,1,2.256,7.791c14.8-2.358,23.991-5.842,23.991-9.11C319.681,197.844,318.453,195.881,315.9,192.068Z" transform="translate(-160.479 -53.493)" fill="#49525b" opacity="0.18"/>
    <path id="Path_1992" data-name="Path 1992" d="M189.876,184.248,6.794,1.166A3.98,3.98,0,1,0,1.166,6.794L184.249,189.876a3.98,3.98,0,1,0,5.628-5.628Z" transform="translate(0)" fill="#8e99a3"/>
    <path id="Path_1993" data-name="Path 1993" d="M232.667,455.45a15.781,15.781,0,0,1-13.888-8.264c5.639.238,10.537.3,13.888.3s8.249-.066,13.889-.3A15.783,15.783,0,0,1,232.667,455.45Z" transform="translate(-137.146 -280.328)" fill="#a7a7a7"/>
    <path id="Path_1994" data-name="Path 1994" d="M232.667,455.45a15.781,15.781,0,0,1-13.888-8.264c5.639.238,10.537.3,13.888.3s8.249-.066,13.889-.3A15.783,15.783,0,0,1,232.667,455.45Z" transform="translate(-137.146 -280.328)" opacity="0.09"/>
  </g>
</svg>
